/* XPM */
static char *_6979_9946f9af2816350c63240c8f7e017c97d6470c8d6e1a3a2d3aebe0442e4ff99e[] = {
/* columns rows colors chars-per-pixel */
"50 50 62 1 ",
"  c #010101",
". c #020101",
"X c #030101",
"o c #030202",
"O c #040303",
"+ c #050303",
"@ c #050404",
"# c #060404",
"$ c #060505",
"% c #070505",
"& c #070606",
"* c #080606",
"= c #090606",
"- c #080707",
"; c #090707",
": c #0A0707",
"> c #0A0808",
", c #0B0808",
"< c #0C0808",
"1 c #0C0909",
"2 c #0D0909",
"3 c #0D0A0A",
"4 c #0D0B0B",
"5 c #0E0A0A",
"6 c #0E0B0B",
"7 c #0F0B0B",
"8 c #0F0C0C",
"9 c #100C0C",
"0 c #110D0D",
"q c #120D0D",
"w c #120E0E",
"e c #130E0E",
"r c #130F0F",
"t c #140F0F",
"y c #131010",
"u c #141010",
"i c #151010",
"p c #161010",
"a c #161111",
"s c #171111",
"d c #171212",
"f c #181212",
"g c #181313",
"h c #191313",
"j c #1A1313",
"k c #1A1414",
"l c #1A1515",
"z c #1B1515",
"x c #1C1515",
"c c #1C1616",
"v c #1D1616",
"b c #1D1717",
"n c #1E1717",
"m c #1E1818",
"M c #1F1818",
"N c #201818",
"B c #201919",
"V c #211919",
"C c #211A1A",
"Z c #221A1A",
"A c #231B1B",
"S c None",
/* pixels */
"SSSSSSSSSSSSSSSSSSSSSSSSSSSSSSSSSSSSSSSSSSSSSSSSSS",
"SSSSSSSSSSSSSSSSSSSSSSSSSSSSSSSSSSSSSSSSSSSSSSSSSS",
"SSSSSSSSSSSSSSSSSSSSSSSSSSSSSSSSSSSSSSSSSSSSSSSSSS",
"SSSSSSSSSSSSSSSSSSSSSSSSSSSSSSSSSSSSSSSSSSSSSSSSSS",
"SSSSSSSSSSSSSSSSSSSSSSSSSSSSSSSSSSSSSSSSSSSSSSSSSS",
"SSSSSSSSSSSSSSSSSSSSSSSSSSSSSSSSSSSSSSSSSSSSSSSSSS",
"SSSSSSSSSSSSSSSSSSSSSSSSSSSSSSSSSSSSSSSSSSSSSSSSSS",
"SSSSSSSSSSSSSSSSSSSSSSSSSSSSSSSSSSSSSSSSSSSSSSSSSS",
"SSSSSSSSSSSSSSSSSSSSSSSSSSSSSSSSSSSSSSSSSSSSSSSSSS",
"SSSSSSSSSSSSSSSSSSSSSSSSSSSSSSSSSSSSSSSSSSSSSSSSSS",
"SSSSSSSSSSSSSSSSSSSSSSSSSSSSSSSSSSSSSSSSSSSSSSSSSS",
"SSSSSSSSSSSSSSSSSSSSSSSSSSSSSSSSSSSSSSSSSSSSSSSSSS",
"SSSSSSSSSSSSSSSSSSSSSSSSSSSSSSSSSSSSSSSSSSSSSSSSSS",
"SSSSSSSSSSSSSSSSSSSSSSSS:;-&$@SSSSSSSSSSSSSSSSSSSS",
"SSSSSSSSSSSSSSSSSSSSSS666431,;%+oSSSSSSSSSSSSSSSSS",
"SSSSSSSSSSSSSSS SSSS00wryuteq83;#o SSSSSSSSSSSSSSS",
"SSSSSSSSSSSSSSSoSSSrtpdhklkjfar9SSSSSSSSSSSSSSSSSS",
"SSSSSSSSSSSSSSX#SSiafkxvnmnvxkgiSSSSSSSSSSSSSSSSSS",
"SSSSSSSSSSSSSSO=9ifhzbMNBBMMnxkgiSSSSSSSSSSSSSSSSS",
"SSSSSSSSSSSSSS#1efkxnBVCZZCVNnxjarSSSSSSSSSSSSSSSS",
"SSSSSSSSSSSSS+*7akxnBCZZAAZZCBnzft0SSSSSSSSSSSSSSS",
"SSSSSSSSSSSSS@:0fzbNCZZAAAAZZZBvkpqSSSSSSSSSSSSSSS",
"SSSSSSSSSSSSS%1ejvMVZZZAAAAZZZVMxsw6SSSSSSSSSSSSSS",
"SSSSSSSSSSSSS*3rknNCZZZAAAAZZZCBbfe5SSSSSSSSSSSSSS",
"SSSSSSSSSSSSS=3tknNCZZZAAAAZZZZBnhr5SSSSSSSSSSSSSS",
"SSSSSSSSSSSSSS5rjnNCZZZAAAAZZZZBmkr5;SSSSSSSSSSSSS",
"SSSSSSSSSSSSSS5ehvNCZZZAAAAZZZCNnkr2*SSSSSSSSSSSSS",
"SSSSSSSSSSSSSS5wsxMVZZZAAAAZZZVMvhw<%SSSSSSSSSSSSS",
"SSSSSSSSSSSSSSSqpkvBZZZAAAAZZCNnxf0:#SSSSSSSSSSSSS",
"SSSSSSSSSSSSSSS0tfznBCZZAAZZCBncla6*SSSSSSSSSSSSSS",
"SSSSSSSSSSSSSSSStsjxnNVCZZCVBnxkge1$SSSSSSSSSSSSSS",
"SSSSSSSSSSSSSSSSSigkcnMNBBBMvzjhi7*OSSSSSSSSSSSSSS",
"SSSSSSSSSSSSSSSSSSigzxvnmnvxkgdiS>@.SSSSSSSSSSSSSS",
"SSSSSSSSSSSSSSSoS,8eafhkkhfsaitSS%oSSSSSSSSSSSSSSS",
"SSSSSSSSSSSSSSSSo#=170wrttrewqSSSoSSSSSSSSSSSSSSSS",
"SSSSSSSSSSSSSSSSSo+%;,136778SSSSSSSSSSSSSSSSSSSSSS",
"SSSSSSSSSSSSSSSSSSSSS%*;SSSSSSSSSSSSSSSSSSSSSSSSSS",
"SSSSSSSSSSSSSSSSSSSSSSSSSSSSSSSSSSSSSSSSSSSSSSSSSS",
"SSSSSSSSSSSSSSSSSSSSSSSSSSSSSSSSSSSSSSSSSSSSSSSSSS",
"SSSSSSSSSSSSSSSSSSSSSSSSSSSSSSSSSSSSSSSSSSSSSSSSSS",
"SSSSSSSSSSSSSSSSSSSSSSSSSSSSSSSSSSSSSSSSSSSSSSSSSS",
"SSSSSSSSSSSSSSSSSSSSSSSSSSSSSSSSSSSSSSSSSSSSSSSSSS",
"SSSSSSSSSSSSSSSSSSSSSSSSSSSSSSSSSSSSSSSSSSSSSSSSSS",
"SSSSSSSSSSSSSSSSSSSSSSSSSSSSSSSSSSSSSSSSSSSSSSSSSS",
"SSSSSSSSSSSSSSSSSSSSSSSSSSSSSSSSSSSSSSSSSSSSSSSSSS",
"SSSSSSSSSSSSSSSSSSSSSSSSSSSSSSSSSSSSSSSSSSSSSSSSSS",
"SSSSSSSSSSSSSSSSSSSSSSSSSSSSSSSSSSSSSSSSSSSSSSSSSS",
"SSSSSSSSSSSSSSSSSSSSSSSSSSSSSSSSSSSSSSSSSSSSSSSSSS",
"SSSSSSSSSSSSSSSSSSSSSSSSSSSSSSSSSSSSSSSSSSSSSSSSSS",
"SSSSSSSSSSSSSSSSSSSSSSSSSSSSSSSSSSSSSSSSSSSSSSSSSS"
};
