/* XPM */
static char *_7458_ddb4bb0eddde33ec5bd862cd9e3140c6fe8655eedfc4452a9e33405942aa12ba[] = {
/* columns rows colors chars-per-pixel */
"45 45 222 2 ",
"   c #040403",
".  c #090906",
"X  c #0C0C09",
"o  c #12120D",
"O  c #161610",
"+  c #181711",
"@  c #1C1C15",
"#  c #1F2018",
"$  c #21231A",
"%  c #343D2C",
"&  c #343E31",
"*  c #197D1B",
"=  c #14760E",
"-  c #2E6C13",
";  c #217916",
":  c #3B442D",
">  c #35412F",
",  c #3A4739",
"<  c #3A7729",
"1  c #456D1B",
"2  c #497317",
"3  c #42482D",
"4  c #434833",
"5  c #4A5534",
"6  c #4A6238",
"7  c #596939",
"8  c #4E752A",
"9  c #3B4C43",
"0  c #3E5447",
"q  c #0D7B4D",
"w  c #167769",
"e  c #465E52",
"r  c #415A4F",
"t  c #526B52",
"y  c #63664C",
"u  c #6A7A47",
"i  c #319214",
"p  c #1CA619",
"a  c #25B41C",
"s  c #38AD18",
"d  c #188C2A",
"f  c #159233",
"g  c #278C23",
"h  c #279237",
"j  c #3A8F2E",
"k  c #2AAC27",
"l  c #33AE30",
"z  c #4A8B0E",
"x  c #4C8619",
"c  c #4A980E",
"v  c #49A31A",
"b  c #59A214",
"n  c #4CAE0F",
"m  c #67BA0B",
"M  c #66B918",
"N  c #63A618",
"B  c #548E32",
"V  c #689638",
"C  c #629422",
"Z  c #5BAB22",
"A  c #44A43D",
"S  c #58B639",
"D  c #47A220",
"F  c #6EB333",
"G  c #33CD33",
"H  c #67C31C",
"J  c #73CE13",
"K  c #57C638",
"L  c #53C925",
"P  c #68C827",
"I  c #75C326",
"U  c #6ACD37",
"Y  c #7BC535",
"T  c #6BD23E",
"R  c #76DD3E",
"E  c #74F633",
"W  c #099C49",
"Q  c #038E54",
"!  c #1B895E",
"~  c #149B59",
"^  c #108F4D",
"/  c #2C8A54",
"(  c #38914B",
")  c #16A958",
"_  c #1CB354",
"`  c #11A94C",
"'  c #26AB4C",
"]  c #28BA4A",
"[  c #33B64C",
"{  c #0C9663",
"}  c #158E76",
"|  c #069675",
" . c #138F72",
".. c #2C8F66",
"X. c #19B463",
"o. c #1CA47A",
"O. c #15B777",
"+. c #1BA46B",
"@. c #2DB766",
"#. c #559A49",
"$. c #768F46",
"%. c #759748",
"&. c #6A9A54",
"*. c #6F8A4B",
"=. c #41BC4D",
"-. c #62AA4A",
";. c #79AC52",
":. c #5E8975",
">. c #4A986F",
",. c #649672",
"<. c #4FA666",
"1. c #69AA71",
"2. c #3CC655",
"3. c #22C84F",
"4. c #17C276",
"5. c #2EC56D",
"6. c #45DA57",
"7. c #54CC4B",
"8. c #6CD749",
"9. c #68DA57",
"0. c #76CA4E",
"q. c #59E648",
"w. c #4AE154",
"e. c #63E949",
"r. c #75E257",
"t. c #6FE355",
"y. c #4AD86C",
"u. c #72C86B",
"i. c #4EE564",
"p. c #72EB73",
"a. c #89DE1C",
"s. c #8EE01F",
"d. c #88CD34",
"f. c #86E42E",
"g. c #83EE35",
"h. c #819756",
"j. c #8DAF57",
"k. c #809362",
"l. c #93CD51",
"z. c #8BE35B",
"x. c #0E7987",
"c. c #1B7E97",
"v. c #2877A8",
"b. c #3C63B4",
"n. c #3272AB",
"m. c #4F56BC",
"M. c #5073BC",
"N. c #3977C5",
"B. c #446AC4",
"V. c #158B8A",
"C. c #069989",
"Z. c #159889",
"A. c #099999",
"S. c #149797",
"D. c #118792",
"F. c #25988B",
"G. c #2D8D8F",
"H. c #04A48A",
"J. c #18A889",
"K. c #05A597",
"L. c #15B392",
"P. c #34A69B",
"I. c #1A98A9",
"U. c #2385AB",
"Y. c #2793AB",
"T. c #359AB4",
"R. c #05A5A2",
"E. c #06AAA9",
"W. c #14ABA5",
"Q. c #08B7AB",
"!. c #15B6A8",
"~. c #03A8B7",
"^. c #1AB2B6",
"/. c #0AB9B2",
"(. c #27B8AC",
"). c #36B8A8",
"_. c #22BFB4",
"`. c #589683",
"'. c #449284",
"]. c #6A988B",
"[. c #59A696",
"{. c #52A895",
"}. c #68B193",
"|. c #42B4A5",
" X c #66B9AD",
".X c #70BCAD",
"XX c #12C099",
"oX c #14C780",
"OX c #21C699",
"+X c #2BC08F",
"@X c #1AC5A4",
"#X c #0CC2B5",
"$X c #17C9B7",
"%X c #1ED4BC",
"&X c #35D7A9",
"*X c #24CBB6",
"=X c #35D8B9",
"-X c #2ECEAC",
";X c #49D789",
":X c #4BCC9F",
">X c #55CB99",
",X c #6BCD94",
"<X c #59E28A",
"1X c #56E391",
"2X c #42E385",
"3X c #5BCABA",
"4X c #4CD5B0",
"5X c #75C9B8",
"6X c #6BCBB5",
"7X c #02A6C3",
"8X c #1CD2C4",
"9X c #1DCCC1",
"0X c #37CDC2",
"qX c #28D8C7",
"wX c #33D9C7",
"eX c #2CE1CD",
"rX c #36E2CC",
"tX c #4FD3C5",
"yX c #47D9CB",
"uX c #85AE84",
"iX c #97CD80",
"pX c None",
/* pixels */
"pXpXpXpXpXpXpXpXpXpXpXpXpXpXpXpXpXpXpXpXpXpXpXpXpXpXpXpXpXpXpXpXpXpXpXpXpXpXpXpXpXpXpXpXpX",
"pXpXpXpXpXpXpXpXpXpXpXpXpXpXpXpXpXpXpXpXpXpXpXpXpXpXpXpXpXpXpXpXpXpXpXpXpXpXpXpXpXpXpXpXpX",
"pXpXpXpXpXpXpXpXpXpXpXpXpXpXpXpXpXpXpXpXpXpXpXpXpXpXpXpXpXpXpXpXpXpXpXpXpXpXpXpXpXpXpXpXpX",
"pXpXpXpXpXpXpXpXpXpXpXpXpXpXpXpXpXpXpXpXpXpXpXpXpXpXpXpXpXpXpXpXpXpXpXpXpXpXpXpXpXpXpXpXpX",
"pXpXpXpXpXpXpXpXpXpXpXpXpXpXpXpXpXpX8.p.p.t.T H pXpXpXpXpXpXpXpXpXpXpXpXpXpXpXpXpXpXpXpXpX",
"pXpXpXpXpXpXpXpXpXpXpXpXpXpXpXpXH m d.M P U 8.r.T D = / } pXpXpXpXpXpXpXpXpXpXpXpXpXpXpXpX",
"pXpXpXpXpXpXpXpXpXpXpXpXE g.E J f.a.s.a.J d.d.M U 9.l * q | o.pXpXpXpXpXpXpXpXpXpXpXpXpXpX",
"pXpXpXpXpXpXpXpXpXpXpXpXw.w.G a S v b N M F d.J J 0.=.[ d ^ J.J.U.N.pXpXpXpXpXpXpXpXpXpXpX",
"pXpXpXpXpXpXpXpXpXpXpXL.Z. .! q d g - 1 1 2 2 z b M n l 2.f Q H.A.b.pXpXpXpXpXpXpXpXpXpXpX",
"pXpXpXpXpXpXpXpXpXpXv.n.v.V.J.+.^ f A B %.$.$.h.$.V F K k 5.` | W.U.b.pXpXpXpXpXpXpXpXpXpX",
"pXpXpXpXpXpXpXpXB.B.n.I.^.A.C.F.5X,XuXu 5 3 > : 5 y k.iX9.[ 5.) A.^.M.Y.pXpXpXpXpXpXpXpXpX",
"pXpXpXpXpXpXpXm.b.I.Q.~.A.A.(.3X].0 $ + + + O O + @ $ 4 &.u.2.5.| E.I.v./.pXpXpXpXpXpXpXpX",
"pXpXpXpXpXpXpXG.K.R.R.R./.tX.Xr $ + + O O O o O O O O O # 6 u.,XJ.C.R.v.E.@XpXpXpXpXpXpXpX",
"pXpXpXpXpXpXpX@XR.Q._.0X).}.9 O + + o o o o X o o o o O O O , 1.:XF.W.c.Y.&X;XpXpXpXpXpXpX",
"pXpXpXpXpXpXQ.~.E.qX0X). X9 O O O o o X X X X X X X o o O O @ > >X|.S.S.T.-X<XpXpXpXpXpXpX",
"pXpXpXpXpXpX~.^.8X8XP.3Xe @ O O o o X . . X . . . . X X o O + + e 6XG.D.D.!.<XpXpXpXpXpXpX",
"pXpXpXpXpX7X~.qXqXL.4X].# O O o X X . . . .   . . . . X X o o + @ ]. XD.x.(.1X5.pXpXpXpXpX",
"pXpXpXpXpX~.#XeXQ.OX{., O O o X X . .             . . . X X o O O 9 [.V.x.W.1X_ pXpXpXpXpX",
"pXpXpXpXpX/.rX-XOX>X:.# O o o X . . .                 . X X o o O $ `.{.c.J.<Xl pXpXpXpXpX",
"pXpXpXpXpX$X=X:Xy.}.u + O o X . . .                   . . X X o O O e .XG.J.y.a 7.pXpXpXpX",
"pXpXpXpXpXrXL.5.' #., # O o X X .                       . . X X o + 9 [.w +.w.n 9.pXpXpXpX",
"pXpXpXpX%X4X) 2.d V : O O X X . .                       . . X o O O & `.q G L L p.pXpXpXpX",
"pXpXpXpX=X+X' u.d &.: O o o X . .                       . X X o o O & ,.( 9.H T U pXpXpXpX",
"pXpXpXpX=X~ [ l = ;.4 o O X X X                         . . X X O + % 1.-.J H r.M pXpXpXpX",
"pXpXpXpX&X^ 7.A < V 5 + O o X X . .                   . . . X o o + 3 V b H U z.M pXpXpXpX",
"pXpXpXpX+.d =.D < V 7 + O o X X .                       . . X o O + 7 V m M 8.M pXpXpXpXpX",
"pXpXpXpXpXd U ; - B %.$ O o o X . .                 . . . X X o + $ u F m P P c j pXpXpXpX",
"pXpXpXpXpXg 8.x 2 %.j.3 O o o X X . . .             . . X o o O + 3 j.l.Y U v h pXpXpXpXpX",
"pXpXpXpXpXi P #.8 %.%.%.@ O O o X X X . . .   . . . . X X o O O O &.l.F 0.s h { pXpXpXpXpX",
"pXpXpXpXpXpXI i 1 z x 0.6 + O O X X X X . . . . . X X o o o O O 5 l.Z L s d { pXpXpXpXpXpX",
"pXpXpXpXpXpXM z 8 z c S u.> O O o o o X X X X X X X X o O O O : l.S G p d { Q pXpXpXpXpXpX",
"pXpXpXpXpXpXM Z 7 V S -.2.}., + O O o o o o X o o o o O O O & 1.5.y.' W o.+.pXpXpXpXpXpXpX",
"pXpXpXpXpXpXpXn 8 $.b i 3.3X6Xe @ + + + + o o O o O O O @ 0 5X4XJ.+.C.H.J.H.pXpXpXpXpXpXpX",
"pXpXpXpXpXpXpXpXC y b a [ 3X).3X].r @ + + + O o O O # 9 ]. X5XT.C.W.(.K.A.pXpXpXpXpXpXpXpX",
"pXpXpXpXpXpXpXpXpXy u s ` L.$X!.tX[.t e 4 & % & , t :.`.{.D.S.A.E.E.Y.U.pXpXpXpXpXpXpXpXpX",
"pXpXpXpXpXpXpXpXpXpXy i ` K.$X8X!.qX|.'.`.`.:.1.<.<...} | C.A.I.U.n.v.pXpXpXpXpXpXpXpXpXpX",
"pXpXpXpXpXpXpXpXpXpXu j ) K.E.8XrX*XtX*XP.G.w ../ <./ .. .G.G.D.Y.W.pXpXpXpXpXpXpXpXpXpXpX",
"pXpXpXpXpXpXpXpXpXpXpXpXW H.~.~.=XeXrX9X%X*XOXO.X.2.] ] _ _ O.4.oXpXpXpXpXpXpXpXpXpXpXpXpX",
"pXpXpXpXpXpXpXpXpXpXpXpXpXpXE.7X~.Q.%XqXqX$X=X&X2Xi.q.q.q.e.e.e.pXpXpXpXpXpXpXpXpXpXpXpXpX",
"pXpXpXpXpXpXpXpXpXpXpXpXpXpXpXpX7X~.K.@XeXeXwX$XL.4.3.3.G pXpXpXpXpXpXpXpXpXpXpXpXpXpXpXpX",
"pXpXpXpXpXpXpXpXpXpXpXpXpXpXpXpXpXpXE.pX#X#XqX%X*XpXpXpXpXpXpXpXpXpXpXpXpXpXpXpXpXpXpXpXpX",
"pXpXpXpXpXpXpXpXpXpXpXpXpXpXpXpXpXpXpXpXpXpXpXpXpXpXpXpXpXpXpXpXpXpXpXpXpXpXpXpXpXpXpXpXpX",
"pXpXpXpXpXpXpXpXpXpXpXpXpXpXpXpXpXpXpXpXpXpXpXpXpXpXpXpXpXpXpXpXpXpXpXpXpXpXpXpXpXpXpXpXpX",
"pXpXpXpXpXpXpXpXpXpXpXpXpXpXpXpXpXpXpXpXpXpXpXpXpXpXpXpXpXpXpXpXpXpXpXpXpXpXpXpXpXpXpXpXpX",
"pXpXpXpXpXpXpXpXpXpXpXpXpXpXpXpXpXpXpXpXpXpXpXpXpXpXpXpXpXpXpXpXpXpXpXpXpXpXpXpXpXpXpXpXpX"
};
