/* XPM */
static char *_8154_a0a91c2f1b55530025bba2b4123fd0a096b986978554c1ddd1b763160587d8ef[] = {
/* columns rows colors chars-per-pixel */
"45 45 57 1 ",
"  c #010101",
". c #020101",
"X c #030202",
"o c #040202",
"O c #040303",
"+ c #050404",
"@ c #060404",
"# c #060505",
"$ c #070505",
"% c #080505",
"& c #080606",
"* c #090606",
"= c #090707",
"- c #0A0707",
"; c #0A0808",
": c #0B0808",
"> c #0B0909",
", c #0C0909",
"< c #0D0A0A",
"1 c #0E0A0A",
"2 c #0E0B0B",
"3 c #0F0B0B",
"4 c #0F0C0C",
"5 c #100C0C",
"6 c #100D0D",
"7 c #110D0D",
"8 c #120E0E",
"9 c #130E0E",
"0 c #130F0F",
"q c #140F0F",
"w c #141010",
"e c #151010",
"r c #151111",
"t c #161010",
"y c #161111",
"u c #171111",
"i c #171212",
"p c #181212",
"a c #181313",
"s c #191313",
"d c #191414",
"f c #1A1414",
"g c #1B1414",
"h c #1B1515",
"j c #1C1515",
"k c #1C1616",
"l c #1D1616",
"z c #1D1717",
"x c #1E1717",
"c c #1F1818",
"v c #201818",
"b c #201919",
"n c #211919",
"m c #211A1A",
"M c #221A1A",
"N c #231B1B",
"B c None",
/* pixels */
"BBBBBBBBBBBBBBBBBBBBBBBBBBBBBBBBBBBBBBBBBBBBB",
"BBBBBBBBBBBBBBBBBBBBBBBBBBBBBBBBBBBBBBBBBBBBB",
"BBBBBBBBBBBBBBBBBBBBBBBBBBBBBBBBBBBBBBBBBBBBB",
"BBBBBBBBBBBBBBBBBBBBBBBBBBBBBBBBBBBBBBBBBBBBB",
"BBBBBBBBBBBBBBBBBBBBBBBBBBBBBBBBBBBBBBBBBBBBB",
"BBBBBBBBBBBBBBBBBBBBBBBBBBBBBBBBBBBBBBBBBBBBB",
"BBBBBBBBBBBBBBBBBBBBBBBBBBBBBBBBBBBBBBBBBBBBB",
"BBBBBBBBBBBBBBBBBBBBBBBBBBBBBBBBBBBBBBBBBBBBB",
"BBBBBBBBBBBBBBBBBBBBBBBBBBBBBBBBBBBBBBBBBBBBB",
"BBBBBBBBBBBBBBBBBBBBBBBBBBBBBBBBBBBBBBBBBBBBB",
"BBBBBBBBBBBBBBBBBBBBBBBBBBBBBBBBBBBBBBBBBBBBB",
"BBBBBBBBBBBBBBBBBBBBBBBBBBBBBBBBBBBBBBBBBBBBB",
"BBBBBBBBBBBBBBBBBBBBB>:;=&#OXBBBBBBBBBBBBBBBB",
"BBBBBBBBBBBBBB BBBB4566652,=@X BBBBBBBBBBBBBB",
"BBBBBBBBBBBBB OBB89qriaapuq7,%o BBBBBBBBBBBBB",
"BBBBBBBBBBBBBXBBqeushlzzlhfiqBBBBBBBBBBBBBBBB",
"BBBBBBBBBBBB.@,quahzcvbccxjfiqBBBBBBBBBBBBBBB",
"BBBBBBBBBBBBo&5udjxbnmMmnvxjseBBBBBBBBBBBBBBB",
"BBBBBBBBBBBB@:qsjxbmMMNMMmbxhu9BBBBBBBBBBBBBB",
"BBBBBBBBBBBB$1yhzvmMMNNNMMMblsq5BBBBBBBBBBBBB",
"BBBBBBBBBBBB*4plcnMMMNNNMMMnche5BBBBBBBBBBBBB",
"BBBBBBBBBBBB-5plvmMMMNNNMMMmbky5:BBBBBBBBBBBB",
"BBBBBBBBBBBB;5plvmMMMNNNMMMMbzi5:BBBBBBBBBBBB",
"BBBBBBBBBBBB:5ulvmMMMNNNMMMmvzp5-BBBBBBBBBBBB",
"BBBBBBBBBBBBB5ehcnMMMNNNMMMncli3*BBBBBBBBBBBB",
"BBBBBBBBBBBBB5qslbMMMNNNMMmvxhy<$BBBBBBBBBBBB",
"BBBBBBBBBBBBBB9uhxbmMMNMMmbxkf0:@BBBBBBBBBBBB",
"BBBBBBBBBBBBBBBtsjxvnmMmnbxjfi5&OBBBBBBBBBBBB",
"BBBBBBBBBBBBBBBqifkxcvbbclhsp0:+BBBBBBBBBBBBB",
"BBBBBBBBBBBBBBBBqifjlzzkgsiyqB$XBBBBBBBBBBBBB",
"BBBBBBBBBBBBB O$,5qyipiuewqBBBOBBBBBBBBBBBBBB",
"BBBBBBBBBBBBBB X@*>1457777BBBB BBBBBBBBBBBBBB",
"BBBBBBBBBBBBBBBBBO#&=:>,BBBBBBBBBBBBBBBBBBBBB",
"BBBBBBBBBBBBBBBBBBBBBBBBBBBBBBBBBBBBBBBBBBBBB",
"BBBBBBBBBBBBBBBBBBBBBBBBBBBBBBBBBBBBBBBBBBBBB",
"BBBBBBBBBBBBBBBBBBBBBBBBBBBBBBBBBBBBBBBBBBBBB",
"BBBBBBBBBBBBBBBBBBBBBBBBBBBBBBBBBBBBBBBBBBBBB",
"BBBBBBBBBBBBBBBBBBBBBBBBBBBBBBBBBBBBBBBBBBBBB",
"BBBBBBBBBBBBBBBBBBBBBBBBBBBBBBBBBBBBBBBBBBBBB",
"BBBBBBBBBBBBBBBBBBBBBBBBBBBBBBBBBBBBBBBBBBBBB",
"BBBBBBBBBBBBBBBBBBBBBBBBBBBBBBBBBBBBBBBBBBBBB",
"BBBBBBBBBBBBBBBBBBBBBBBBBBBBBBBBBBBBBBBBBBBBB",
"BBBBBBBBBBBBBBBBBBBBBBBBBBBBBBBBBBBBBBBBBBBBB",
"BBBBBBBBBBBBBBBBBBBBBBBBBBBBBBBBBBBBBBBBBBBBB",
"BBBBBBBBBBBBBBBBBBBBBBBBBBBBBBBBBBBBBBBBBBBBB"
};
