/* XPM */
static char *_526_8c044fc07d521b86fe00252cb7ce7bf89dd79ae1814482623cd00c8c4a618067[] = {
/* columns rows colors chars-per-pixel */
"25 25 172 2 ",
"   c #3E1F00",
".  c #402405",
"X  c #512E01",
"o  c #523206",
"O  c #5E3700",
"+  c #553408",
"@  c #593708",
"#  c #5E3B07",
"$  c #643B00",
"%  c #6E4300",
"&  c #65420C",
"*  c #734600",
"=  c #764A01",
"-  c #754D0C",
";  c #7B520B",
":  c #6A4918",
">  c #875A0C",
",  c #8B5C0A",
"<  c #895B09",
"1  c #915F02",
"2  c #885E12",
"3  c #8F600C",
"4  c #92620D",
"5  c #946302",
"6  c #956712",
"7  c #9C6D12",
"8  c #906819",
"9  c #986B19",
"0  c #A47213",
"q  c #A87511",
"w  c #AD7A14",
"e  c #B37F14",
"r  c #9A7322",
"t  c #A57D20",
"y  c #A87A20",
"u  c #8C734C",
"i  c #B7800F",
"p  c #B68114",
"a  c #BD8612",
"s  c #B3831E",
"d  c #B9851E",
"f  c #BE8C27",
"g  c #AC8830",
"h  c #A8833E",
"j  c #CC8F0D",
"k  c #CB900F",
"l  c #D39409",
"z  c #C38B12",
"x  c #C98E12",
"c  c #CD9213",
"v  c #CE951A",
"b  c #D19613",
"n  c #D59913",
"m  c #D99C15",
"M  c #D69A19",
"N  c #D89C1D",
"B  c #DEA015",
"V  c #DEA41B",
"C  c #E3A514",
"Z  c #E7AB17",
"A  c #ECAE15",
"S  c #E4A618",
"D  c #E6A819",
"F  c #E9AB1C",
"G  c #EFB31C",
"H  c #F0B51E",
"J  c #CE9620",
"K  c #CF9A23",
"L  c #CB9C2D",
"P  c #D39D24",
"I  c #D89F26",
"U  c #C09A3B",
"Y  c #CFA02F",
"T  c #D6A324",
"R  c #DBA224",
"E  c #D9A62D",
"W  c #DEAA2C",
"Q  c #D6AA2E",
"!  c #C6A03C",
"~  c #D6AC37",
"^  c #DEAC32",
"/  c #D2A937",
"(  c #E1A925",
")  c #E4AE2C",
"_  c #E8AB22",
"`  c #EEB925",
"'  c #E5B12F",
"]  c #EAB129",
"[  c #F3BC2D",
"{  c #E1AE33",
"}  c #E3B235",
"|  c #E6BB35",
" . c #E8BF34",
".. c #E2B339",
"X. c #E9BF3F",
"o. c #ECC53A",
"O. c #F0CB38",
"+. c #AE8E54",
"@. c #A48E6D",
"#. c #A7916E",
"$. c #A39178",
"%. c #B29D79",
"&. c #BFA36C",
"*. c #DEB540",
"=. c #DEB94B",
"-. c #D8B454",
";. c #E0B340",
":. c #E7BA42",
">. c #E6BA48",
",. c #CDB16D",
"<. c #C0A670",
"1. c #C5AD7E",
"2. c #D4B97A",
"3. c #ECC343",
"4. c #EFCC46",
"5. c #ECC24E",
"6. c #EDCB48",
"7. c #F2C247",
"8. c #EFD04D",
"9. c #F1D247",
"0. c #EBC952",
"q. c #F4DE51",
"w. c #F9E048",
"e. c #FEF35B",
"r. c #E3C070",
"t. c #E5C77F",
"y. c #E7D07F",
"u. c #F7E570",
"i. c #F8EC7D",
"p. c #A99C8C",
"a. c #C9B692",
"s. c #C7BCAA",
"d. c #E6C881",
"f. c #ECCE85",
"g. c #E9CF8E",
"h. c #E3C586",
"j. c #E8D097",
"k. c #EFD89D",
"l. c #F1D792",
"z. c #F2DB9C",
"x. c #F3D894",
"c. c #FFFA84",
"v. c #FAF38E",
"b. c #FEFB94",
"n. c #DFCBA0",
"m. c #DFCFA9",
"M. c #EFDEB3",
"N. c #E2D5B9",
"B. c #F1DFB1",
"V. c #F3E0A2",
"C. c #FAF5A4",
"Z. c #FDFBBD",
"A. c #E2DED7",
"S. c #ECE2CD",
"D. c #F2E7C4",
"F. c #F3EFCE",
"G. c #FEFCC3",
"H. c #F6F2C8",
"J. c #FAF8C9",
"K. c #EFE6D1",
"L. c #EBE7DF",
"P. c #FFFFD5",
"I. c #EDE9E2",
"U. c #EEECEA",
"Y. c #F0EFEB",
"T. c #F2EDE2",
"R. c #F4F3E2",
"E. c #F1F0ED",
"W. c #F3F3F3",
"Q. c #F3F6FC",
"!. c #F5F8FD",
"~. c #FAFCFF",
/* pixels */
"W.W.W.W.W.W.W.E.!.Q.!.Q.Q.Q.Q.W.E.W.W.W.W.W.W.W.W.",
"W.W.W.W.W.W.W.!.K.j.d.g.z.V.D.W.Q.W.W.W.W.W.W.W.W.",
"W.W.W.W.W.W.E.h.I l l l V O.q.u.F.Q.W.W.W.W.W.Q.W.",
"W.W.W.W.W.W.r.n M R I b c T w.e.e.H.W.W.W.W.W.W.W.",
"W.W.W.W.Q.g.C ( =.-.! p z j T i.b.v.R.Q.W.W.W.W.W.",
"W.W.W.Q.K.] m s Y P v a 0 z k *.G.G.J.W.W.W.W.W.W.",
"W.W.W.!.f.A 0 p F L U P x q x k d.P.Z.R.Q.W.W.W.W.",
"W.W.W.E.7.b 7 F F 2 & p B a p j L v.c.C.W.W.W.W.W.",
"W.W.Q.K.[ e a F S , - a m c p c e ~ 4.6.T.Q.W.W.W.",
"W.W.!.B.G w b D B 3 ; x m n a a e 9 f d N.!.W.W.W.",
"W.E.Q.k.Z w V S B 3 > x m n c a z - 6 1 a.~.Y.W.W.",
"W.W.!.x.C e ( ( V 4 > x n n k a x - - * %.~.E.W.W.",
"W.E.!.l.C p ) { ) 4 > c m n b z c ; & $ @.~.E.W.W.",
"W.W.!.k.F z W ..^ 4 > v V M b x b ; - % #.~.E.W.W.",
"W.W.Q.M.H v E ..^ 6 , J W R M c n - + X $.~.W.W.W.",
"W.W.Q.K. .V I ..^ 6 , K ^ E R N N & .   p.~.W.W.W.",
"W.W.W.Y.>.` R } } 7 3 K ^ W E R v # o X s.~.W.W.W.",
"W.W.W.Q.g.[ | ( ..0 4 P ^ ^ W ) f + O : A.Q.W.W.W.",
"W.W.W.Q.S.} o.o.^ Q T W ^ ^ W } 8 @ O u W.W.W.W.W.",
"W.W.W.W.Q.t.) 9.o.^ ..^ ^ } ../ - - = s.~.E.W.W.W.",
"W.W.W.W.W.T.>.} 8.6.| | | ..:.r 2 5 +.W.W.W.W.W.W.",
"W.W.W.W.W.Q.S...' 3.3.o.:.5.g ; 5 h L.Q.W.W.W.W.W.",
"W.W.W.W.W.E.Q.S.-.) ^ ^ ~ t > y &.I.Q.W.W.W.W.W.W.",
"W.W.W.W.W.W.E.Q.U.m.2.,.&.a.n.K.!.W.W.W.W.W.W.W.W.",
"W.W.W.W.W.W.W.W.Q.!.Q.W.!.~.!.Q.W.W.W.W.W.W.W.W.W."
};
