/* XPM */
static char *_0187_43ed7c36b202a6b86608cb80cff503d95e2eee09af21ca41184db75e8adc7544[] = {
/* columns rows colors chars-per-pixel */
"45 46 94 2 ",
"   c #743E15",
".  c #764115",
"X  c #7A4415",
"o  c #7F4B15",
"O  c #77421A",
"+  c #79451D",
"@  c #7E4A1B",
"#  c #7A4720",
"$  c #7D4A24",
"%  c #7F4E29",
"&  c #814D14",
"*  c #814D19",
"=  c #855215",
"-  c #895614",
";  c #8D5B14",
":  c #905F13",
">  c #936313",
",  c #986712",
"<  c #9B6C13",
"1  c #9F7113",
"2  c #A27413",
"3  c #A77913",
"4  c #AA7D12",
"5  c #804F2B",
"6  c #81512D",
"7  c #835431",
"8  c #875937",
"9  c #875938",
"0  c #895C3B",
"q  c #8D613F",
"w  c #8F6444",
"e  c #906646",
"r  c #956B4C",
"t  c #976F51",
"y  c #977051",
"u  c #9A7356",
"i  c #9B7559",
"p  c #9F7A5F",
"a  c #A07C61",
"s  c #AE8212",
"d  c #B18612",
"f  c #B58A12",
"g  c #B88F11",
"h  c #BC9311",
"j  c #C09711",
"k  c #C49C11",
"l  c #D6B20F",
"z  c #DAB50F",
"x  c #DFBB0F",
"c  c #C9A310",
"v  c #CFA910",
"b  c #D2AD10",
"n  c #D6B110",
"m  c #D9B410",
"M  c #E1BE0F",
"N  c #E5C30F",
"B  c #E8C70F",
"V  c #ECCB0E",
"C  c #F0CF0E",
"Z  c #F4D40E",
"A  c #F7D80E",
"S  c #F9DA0D",
"D  c #A38166",
"F  c #A7876E",
"G  c #A9886F",
"H  c #AB8B73",
"J  c #AF927B",
"K  c #B0937D",
"L  c #B59B87",
"P  c #BAA18E",
"I  c #BDA593",
"U  c #BFA895",
"Y  c #C2AC9B",
"T  c #C3AFA0",
"R  c #C5B1A2",
"E  c #D0BFB2",
"W  c #CFC0B5",
"Q  c #D2C2B6",
"!  c #D3C5B9",
"~  c #DACEC5",
"^  c #DDD3CB",
"/  c #E1D7CF",
"(  c #E2DAD3",
")  c #E5DFDA",
"_  c #E7E0DC",
"`  c #E8E2DD",
"'  c #EBE6E2",
"]  c #ECE9E6",
"[  c #EEECEA",
"{  c #F0EEEC",
"}  c #F5F5F5",
"|  c #F7F7F8",
" . c #F7F8F8",
".. c #F8F9F9",
/* pixels */
"..} ..}  .} } | }  .} ..} ..' ! F q % % 9 w u p G K U U W W ^ [ ....} | } | } ..} | } | } ",
"} ..{ | } | } } } } } } } W u + . - > > - o .   X = = @ @ $ % u R { ..} } } } } } } } } } ",
"| } | }  .} } | }  . .` H + o 4 b B C C C x h > o 1 n M z c s o   a ( ..} } } ..} | } } } ",
"} | } } } } } } }  .( y X 1 x A A A A A S S S C c : : b A A A l ,   w ^ ..} } } } } | } | ",
"..}  .} | } } }  ./ e o g C S S S A C Z A A A A A B 2 = k A A A B 3   q / | } | } } } } } ",
"} } } } } } }  ._ r o h Z A S B k 2 > : 1 g x A A A C d o c A A A C 3   t ` | | | } | } } ",
"} }  .} } }  .{ D . h Z S Z c : . o > 1 , = o d V A A Z s = n A A S V ,   J | | } } } | } ",
"} } } } } } } Y . s Z S C f . . 1 x Z A Z B c ; , x A A C 1 ; B S S S m & $ E | } | | } } ",
"} } } }  . ./ 6 : B S Z d . . g Z S A A A S S N 1 : x A A N ; 4 A S A S j   i [ } } } }  .",
"..} ..}  .{ F X v S S j . . g Z A S S S S S S S C 1 > B A S c o b S A A V : * E  . .} ..} ",
"} } } } } ~ 5 1 Z A z =   1 C S Z b v v b b v m A B > s Z A Z < , C A A A k   a } } } } } ",
"..}  .} } G X b S Z 1   - x S A x = X X X X O : C A n = n S S b * b S A A V ; 5 ~ ..} ..} ",
"{ ..}  .( 7 < Z S b X   g A A S x o . X h v 4 ; V A A 3 < Z A C < 2 A A A A f   Y  ...} } ",
"..}  . .Y X k S Z 2   - N A A S x o . o N S c ; V A S m = b S S k = M S A S z X t { { ..} ",
"{  .} } a & N S x &   d A A A S x o   o x S c : V S A Z < 3 A A B - j S A A C : 5 ( ..} } ",
"..} ..) 8 < Z S h . X l S A A A x o O o x S c ; V S A S k ; B A A 2 1 Z S A A 4 + Q  ...} ",
"}  .} ! O h S Z <   : C A A A S x o . o M S c ; V A A S M = v A S k - B S S S k   L ..|  .",
"} }  .I . b S V -   s S A A S A x o . o M S c : V A S S C > g A S m * m S A S m + H } | } ",
"} } } F o N S z X . h S A A A A x o . @ x S c ; V S A Z A 2 1 A S B - k S A S N & u } } } ",
" .} } u - V S v . . b A A A A A x o   @ x S c ; V S A A A g > C S C > f S S A B - e ] | } ",
"}  .[ e > Z S h . o x A A A A A x o   o x A k : V A A A S c - B S A < 3 A A A V > 8 ]  .} ",
"} } ' q < Z S g . o N S A Z A A x o . o M S c ; V A A A S v = N S A 3 2 Z A A Z , 7 ) ..} ",
"}  .` q 1 Z A f . - B S A A A S x o . o M S c ; V A A A S b = N S S 4 < Z S A Z < 7 ) |  .",
"}  .` 9 1 Z S d . o B A A A A A M o . o x A c > C S A A S v = M S S 4 < A S A Z < 6 ) | } ",
" .} ] q , Z S g   = N A A A A S x o . o M A c ; V A A A S v = N S A 4 1 A A A Z < 6 )  .} ",
"}  .[ w > C S h   o x A A A A S x o O o M A c ; V A A A S k ; V A Z 1 3 A A A C > 0 ' } } ",
"} } } u ; V S b O X m S A A A S x o O o x S c ; V A A A S f > C A Z > f A A A V - e {  .} ",
"} } } F o N S x o . j S A A A S x o O @ M S c ; V S A A A 2 2 Z A V - j S A A N & y { } } ",
" .} ..I X l A V -   4 A A A A A M o . o M S c : V A A A C : g S S x = l S Z S b . G { ..} ",
"}  . .W X g A A 2   > V A A A A x o . o M S c ; V A A A x = n S A c - N S A S j   P ..}  .",
" .}  ._ 7 1 A A j . @ m S A A A x o . o x S c ; V A A A h ; B S Z 4 < Z S A Z 3 O !  . .} ",
"{  .} } p = B A N &   d A A A A x @ O o x A c : V A A Z , s A S V ; h S Z S V ; 6 (  .} } ",
"..}  .} Y O c A Z 3   = N S A A M &   & M S k : C S S b * z S S b & M S A S v . u } }  .} ",
"}  .}  .( 6 < Z A m @ O s A A S M &   X k m f ; C Z C 1 2 Z A Z 2 < Z A S Z 4   Y } } } } ",
" .}  .} | H o l S A 4   o m S S M &   + & & + : C S k = z S S m = c S A S M = 6 ~  .} } } ",
"} } }  .| ~ $ 2 Z A x -   > N S C n b b v b v z Z x - f A A A 4 > V S A A f   D } } } } } ",
"} }  .} } } G X v S A c X   < N S S S S S S S S M : < C A S b * c S A S x = $ ! ..} } } } ",
"} } } } }  .^ 6 ; B A A h X O , z A S S S S Z c ; : M A A V > 2 Z S S Z 3   D { } }  .} } ",
"} } } } } }  .I + 4 Z A A h o   * f m M M c 1 * < N S A Z 4 = M A S S k X 6 ~  .} } } }  .",
" .}  .} } }  .{ D . h A A A b < X   X & & + - j C S A A j * k S Z S z =   P } } } ..} ..} ",
"{  .} } }  .}  .` r X j A S S C b f 3 2 d k B S A A A j & g Z A S M :   D { } } ..} } } } ",
"..} } }  .} } } | / e X g C S A S A A A S S A A S C d & h Z S S z :   u ` ..} } } } } } } ",
"}  .} } } } } | | | ( r . < m Z A A A A S A S Z b , ; c A S C k =   p ` ..} } } ..} ..} } ",
" .}  .}  .} } } | | } ' H # o 4 b B C C V M k 1 X : j v k f > . 5 K ]  .}  .} } } } } } } ",
"{ ..}  .} } } | } } | |  .Q p $ X = : > - &       & X + + # 8 G !  . .} } } ..} } } } } ..",
"..}  .} | } } } } | } ..} ..[ ~ K r 8 8 e t p F K L Y T E Q ` { .. .}  .} } } ..} ..} ..} "
};
