/* XPM */
static char *_575_a4af3d8cfecc8c1f187556958428db7a11d9c9aea06d9d7b29d9fb22a75780ca[] = {
/* columns rows colors chars-per-pixel */
"25 30 167 2 ",
"   c #392100",
".  c #3F2800",
"X  c #442C00",
"o  c #482E00",
"O  c #4B3200",
"+  c #513500",
"@  c #553900",
"#  c #5F4300",
"$  c #624500",
"%  c #664801",
"&  c #6B4C00",
"*  c #745400",
"=  c #7C5B00",
"-  c #816103",
";  c #8F6D04",
":  c #916F00",
">  c #927100",
",  c #9B7600",
"<  c #9D7901",
"1  c #9F7E10",
"2  c #A07900",
"3  c #A78204",
"4  c #A98500",
"5  c #B48D00",
"6  c #BC9300",
"7  c #BD960A",
"8  c #A88711",
"9  c #B99A19",
"0  c #AB922A",
"q  c #B39725",
"w  c #AE9633",
"e  c #C39C02",
"r  c #C99E00",
"t  c #C39D0B",
"y  c #C09F1B",
"u  c #CDA301",
"i  c #CFA70B",
"p  c #D1A503",
"a  c #DAA400",
"s  c #D5AB01",
"d  c #DCAC01",
"f  c #D2AB0D",
"g  c #DFAF0C",
"h  c #DEB102",
"j  c #C5A316",
"k  c #C8A414",
"l  c #D5B115",
"z  c #DBB91D",
"x  c #D4B31C",
"c  c #E1AE01",
"v  c #E4B502",
"b  c #E9B600",
"n  c #E7B900",
"m  c #ECBC01",
"M  c #E1B40D",
"N  c #E7BA0B",
"B  c #E9BE0D",
"V  c #F1BF00",
"C  c #E3B513",
"Z  c #E3B913",
"A  c #E3BE1E",
"S  c #D9BC24",
"D  c #D6BA2D",
"F  c #D3B423",
"G  c #E2B728",
"H  c #EFC100",
"J  c #EDC30F",
"K  c #F3C400",
"L  c #F8C706",
"P  c #F6C902",
"I  c #F9CC04",
"U  c #F4C709",
"Y  c #F5CC0C",
"T  c #FBCE0A",
"R  c #FDD10C",
"E  c #EAC212",
"W  c #E6C018",
"Q  c #EAC318",
"!  c #EDC81F",
"~  c #F4CA13",
"^  c #F9CE15",
"/  c #F4C91D",
"(  c #FED314",
")  c #F7D31C",
"_  c #FDD51B",
"`  c #F7D81F",
"'  c #FED91D",
"]  c #DFC433",
"[  c #EDC523",
"{  c #EECB26",
"}  c #EDC92C",
"|  c #F6CE2C",
" . c #F8CE2A",
".. c #FCD524",
"X. c #F7DB21",
"o. c #FEDA24",
"O. c #F5D22B",
"+. c #FAD62B",
"@. c #FDDD2C",
"#. c #EFCE34",
"$. c #ECC838",
"%. c #F3CB32",
"&. c #EAD13A",
"*. c #EFD83A",
"=. c #F4D334",
"-. c #FBD632",
";. c #F4D836",
":. c #FDDE33",
">. c #F5D53A",
",. c #F7D93E",
"<. c #FDDF39",
"1. c #FDE32D",
"2. c #FEE233",
"3. c #FEE33C",
"4. c #FEE93E",
"5. c #C4B149",
"6. c #CFBC4E",
"7. c #DBC64C",
"8. c #DFCB50",
"9. c #E4CB41",
"0. c #F0CF43",
"q. c #EFD844",
"w. c #E6D04A",
"e. c #ECD64C",
"r. c #F7D346",
"t. c #FAD743",
"y. c #F6DD46",
"u. c #FDDC4F",
"i. c #E7D455",
"p. c #F9DC55",
"a. c #F6DB59",
"s. c #FADF5B",
"d. c #FFE444",
"f. c #FFEA45",
"g. c #FDE64B",
"h. c #FFEB4C",
"j. c #F7E151",
"k. c #FDE653",
"l. c #FFEC54",
"z. c #F4E25E",
"x. c #FFED5B",
"c. c #E3D563",
"v. c #EEDE64",
"b. c #F4DB67",
"n. c #FBDD64",
"m. c #EFE26D",
"M. c #FDE663",
"N. c #FFEE64",
"B. c #F2E56E",
"V. c #FDE16B",
"C. c #F7E96A",
"Z. c #FFF062",
"A. c #FFF16C",
"S. c #FBE574",
"D. c #F7EA70",
"F. c #FCEE73",
"G. c #FEE57C",
"H. c #FCEA7C",
"J. c #FFF374",
"K. c #FFF57C",
"L. c #FCE983",
"P. c #FFF582",
"I. c #FFFA82",
"U. c #FFEF96",
"Y. c #FFF496",
"T. c #FFF3A2",
"R. c None",
/* pixels */
"R.R.R.R.R.R.R.R.f.l.Z.A.H.v.G b R.R.R.R.R.R.R.R.R.",
"R.R.R.R.R.R.2.f.h.h.l.l.x.F.L.r.U V R.R.R.R.R.R.R.",
"R.R.R.R.R.2.4.f.f.f.h.h.l.l.Z.Y.n.L K K R.R.R.R.R.",
"R.R.R.R.@.2.3.;.] D ] &.d.h.l.l.Y.n.I P P R.R.R.R.",
"R.R.R.o.2.:.F q 5.c.m.m.8.9.g.l.x.T.u.P P P R.R.R.",
"R.R._ o.+.9 w m.K.I.K.I.K.m.w.f.h.N.T.-.T U R.R.R.",
"R.R...o.j 0 C.J.m.7.7.i.K.I.D.e.g.h.L.G. .^ Y R.R.",
"R._ ' W 8 q.l.Z.7.< S *.D.P.I.D.y.f.l.U.t. .^ R.R.",
"R._ ( k x 2.4.f.,.v 1.f.F.K.K.K.z.d.f.H.n.| / J R.",
"R._ ~ 7 ) o.@.3.3.h ;.4.Z.J.J.J.F.y.d.x.S.%.[ J R.",
") o.Z f ' ..o.2.>.h 1.4.x.Z.A.A.J.j.3.g.S.} N v h ",
"..o.M E ' ' o.@.*.h @.4.l.l.Z.Z.A.k.<.3.z.W h p u ",
"..o.B ^ o.o.o.1.=.h 1.2.d.h.l.x.N.l.<.3.g.z u u e ",
"..@.~ _ ' o.@.2.O.s X.1.3.d.h.k.l.k.<.3.3.l 6 5 5 ",
"_ @...( ( ' o.1.{ s X.1.d.d.d.g.g.g.3.2.+.7 , , , ",
"( o.3.I I T ( ' { s X.1.d.g.d.d.d.d.<.4.O.< * * * ",
"L _ k.L P P P R Q p ` 1.3.3.d.d.d.d.<.4.[ - $ # $ ",
"P ^ M.^ K K P L J p ` o.o.@.3.t.d.3.<.4.S & + + @ ",
"K P M. .b m V P N u ` ` ^ ( o.@.<.<.:.3.y o       ",
"H P p.p.b b b m n p ` _ P T T _ ..o.:.:.1 O X X X ",
"R.K O.H.N c c b v u ) ) K P P R ( _ @.{ - % $ $ R.",
"R.K P G.0.c a c c u _ ( K K P P T ( ' k % $ $ $ R.",
"R.n K %.L.Z a a } #.2.X.n K H P T R ^ ; % & & R.R.",
"R.R.V K s.n.c a G $.#.[ n n H I R R i % & * * R.R.",
"R.R.n K U s.a.M a a a a c n I R R U - & * * R.R.R.",
"R.R.R.m K K t.s.} C M M E Y I I T 4 $ * * * R.R.R.",
"R.R.R.R.m K K ~ O.-.| ) Y P P I 6 # * * * R.R.R.R.",
"R.R.R.R.R.n K K K K P K P P P 5 % * = = R.R.R.R.R.",
"R.R.R.R.R.R.d n V K K K V s < = : : R.R.R.R.R.R.R.",
"R.R.R.R.R.R.R.R.r r 6 6 4 : > 4 R.R.R.R.R.R.R.R.R."
};
