/* XPM */
static char *_2408_bb039403048ab7b46681639217e115c390e8583b129b2f597d670fb9ceeefd5d[] = {
/* columns rows colors chars-per-pixel */
"45 45 214 2 ",
"   c #442602",
".  c #4B2C04",
"X  c #452804",
"o  c #533206",
"O  c #5D3907",
"+  c #5E3C09",
"@  c #5A3706",
"#  c #643F07",
"$  c #623E08",
"%  c #664109",
"&  c #6C450A",
"*  c #6F480A",
"=  c #6A4307",
"-  c #714807",
";  c #744B0A",
":  c #7A4F09",
">  c #7D5109",
",  c #6E4D1D",
"<  c #714D10",
"1  c #7D5A23",
"2  c #735324",
"3  c #725937",
"4  c #82550B",
"5  c #865A0D",
"6  c #8A5D0D",
"7  c #855B13",
"8  c #8E600E",
"9  c #94650E",
"0  c #9B6A0E",
"q  c #97680E",
"w  c #8C6316",
"e  c #936511",
"r  c #9B6C12",
"t  c #966B19",
"y  c #9D711A",
"u  c #A7740F",
"i  c #A06F10",
"p  c #A47211",
"a  c #AA7611",
"s  c #AD7911",
"d  c #AA7B1A",
"f  c #A67618",
"g  c #B37E12",
"h  c #B07F1D",
"j  c #815D23",
"k  c #866828",
"l  c #946D20",
"z  c #987225",
"x  c #906C30",
"c  c #9C7631",
"v  c #AB7E23",
"b  c #816E56",
"n  c #846B46",
"m  c #A17F42",
"M  c #B58114",
"N  c #BB8412",
"B  c #BF8814",
"V  c #B4821A",
"C  c #BC891D",
"Z  c #B9851B",
"A  c #A9832A",
"S  c #B18221",
"D  c #B28829",
"F  c #B4872B",
"G  c #BC932D",
"H  c #BE933B",
"J  c #C08711",
"K  c #C48B13",
"L  c #C98E11",
"P  c #C28D1C",
"I  c #C88F18",
"U  c #CD9212",
"Y  c #C7911D",
"T  c #CB931B",
"R  c #D29613",
"E  c #D59914",
"W  c #DC9F15",
"Q  c #D59A1A",
"!  c #D99D1D",
"~  c #D0961A",
"^  c #DFA117",
"/  c #DDA21D",
"(  c #E0A317",
")  c #E3A61A",
"_  c #E6AA1D",
"`  c #EAAD1E",
"'  c #EEB31F",
"]  c #F0B41F",
"[  c #C49123",
"{  c #CC9727",
"}  c #D39D23",
"|  c #DA9F21",
" . c #C99B34",
".. c #D7A224",
"X. c #DCA224",
"o. c #DCA62A",
"O. c #DDAA2D",
"+. c #DBA729",
"@. c #CEA338",
"#. c #DDAC32",
"$. c #D5AC3A",
"%. c #D7A937",
"&. c #DFB037",
"*. c #E1A721",
"=. c #E4AB25",
"-. c #E1AD2D",
";. c #E8AC20",
":. c #EDB321",
">. c #EDB62A",
",. c #EDBA2C",
"<. c #E5B62C",
"1. c #F0B622",
"2. c #F1B925",
"3. c #F0B928",
"4. c #E0AF33",
"5. c #E2B236",
"6. c #E6BD35",
"7. c #EBBC34",
"8. c #E4B53A",
"9. c #E7BB3D",
"0. c #E8BD3C",
"q. c #E9B733",
"w. c #EAC23E",
"e. c #EFCC3E",
"r. c #E8C239",
"t. c #F1C83D",
"y. c #B69554",
"u. c #9F8F79",
"i. c #BDA26D",
"p. c #B09870",
"a. c #D5AE42",
"s. c #DBB345",
"d. c #D0B054",
"f. c #C5A35E",
"g. c #E3B741",
"h. c #E4BB44",
"j. c #E2BB48",
"k. c #E6B949",
"l. c #E6BC58",
"z. c #D0AE60",
"x. c #DDB963",
"c. c #C4AA77",
"v. c #CDB173",
"b. c #E2BD6B",
"n. c #EBC747",
"m. c #F2CD42",
"M. c #F8DF4A",
"N. c #F4D749",
"B. c #E6C256",
"V. c #F3D758",
"C. c #FAE54C",
"Z. c #FDEE51",
"A. c #F9E75B",
"S. c #F8E254",
"D. c #FEF35A",
"F. c #DDC460",
"G. c #DFC075",
"H. c #E4CB69",
"J. c #EFCC74",
"K. c #EDCD7C",
"L. c #E5C777",
"P. c #F3DD7E",
"I. c #F7E663",
"U. c #FDF363",
"Y. c #FDF577",
"T. c #B3A289",
"R. c #CAB488",
"E. c #D0BB8F",
"W. c #D4BF91",
"Q. c #C0B4A2",
"!. c #D7C59F",
"~. c #E4C682",
"^. c #EED28B",
"/. c #ECD59B",
"(. c #E2CC9A",
"). c #F5E582",
"_. c #FDF881",
"`. c #FDF88B",
"'. c #FBF583",
"]. c #FCF794",
"[. c #D9CAAA",
"{. c #DED3BA",
"}. c #ECDBAC",
"|. c #E7D3A5",
" X c #EDDDB4",
".X c #E8DABA",
"XX c #FBF7A8",
"oX c #F4E8B9",
"OX c #FCF9B8",
"+X c #F4EAA1",
"@X c #DDD7CE",
"#X c #DFDAD2",
"$X c #E2DDD3",
"%X c #E3DFD9",
"&X c #EBE1CB",
"*X c #FEFDC3",
"=X c #FEFDCB",
"-X c #F6F1C6",
";X c #EAE6DB",
":X c #EEE8DC",
">X c #EDE4D2",
",X c #F1EAD5",
"<X c #F1EADA",
"1X c #F7F6D2",
"2X c #FFFFD4",
"3X c #F4F2DA",
"4X c #F1E7C9",
"5X c #EDECE9",
"6X c #EAE7E2",
"7X c #F0EDE4",
"8X c #F0EFED",
"9X c #F2F1EC",
"0X c #F4F3E6",
"qX c #F3F3F3",
/* pixels */
"qXqXqXqXqXqXqXqXqXqXqXqXqXqXqXqXqXqXqXqXqXqXqXqXqXqXqXqXqXqXqXqXqXqXqXqXqXqX9XqXqXqXqXqXqX",
"qXqXqXqXqXqXqXqXqXqXqXqXqXqXqXqXqXqXqXqXqXqXqXqXqXqXqX8XqXqXqXqXqXqXqXqXqXqXqXqXqXqXqXqXqX",
"qXqXqXqXqXqX9XqXqXqXqXqXqXqXqXqX,X X|./.}.}. XoX,X<XqXqXqXqXqXqXqXqXqXqXqXqXqXqXqXqXqX8XqX",
"qXqXqXqXqXqXqXqXqXqXqXqXqXqX.Xb.%.X.! X.+.q.w.t.m.V.P.-X8XqXqXqXqXqXqXqXqXqXqXqXqXqXqXqXqX",
"qXqXqXqXqXqXqXqXqXqXqXqX7X~.} Q Q Q Q E R E +.w.N.M.C.C.).,XqXqXqXqXqXqXqXqXqXqXqXqXqXqXqX",
"qXqXqXqXqXqXqXqXqXqXqX<Xx.| | Q Q E R R R R U / 9.M.Z.Z.Z.I.-XqXqXqXqXqXqXqXqXqXqXqXqXqXqX",
"qXqXqXqXqXqXqXqXqXqX7Xx.| | ! Q E E R U R U U U ~ w.A.U.U.D.U.-XqXqX9XqXqXqXqXqXqXqXqXqXqX",
"qXqXqXqXqXqXqXqXqX8Xb.*.*.| | 5.l.H.B.s.I U U U U Q n.Y._._.Y.'.3XqXqXqXqXqXqXqXqXqXqXqXqX",
"qXqXqXqXqXqXqXqXqX|.;.*.*./ h.H.d. .G F r a K U U U ..V.].XX].].XX8X9XqXqXqXqXqXqXqX8XqXqX",
"qXqXqXqXqXqXqXqX<Xk._ _ Q C @.[ [ { Y L N p 0 B U U U &.P.*X*XOXOX1XqXqXqXqXqXqXqXqXqXqXqX",
"qXqXqXqXqXqXqXqX^.` _ ) r e Y | X.| Q E R L a 0 B U U U s.XX2X2X*X=X9XqXqXqXqXqXqXqXqXqXqX",
"qXqXqXqXqXqXqX7Xk.` ` g 4 P =.=.=.#.s.s.%.R U s 0 L U L } L.=X2X=X*X1XqXqXqXqXqXqXqXqXqXqX",
"qXqXqXqXqXqXqX X>.1./ 6 a ) ` _ [ k k x V E E L u s U L Y @.+XOXOXXXXX0XqXqXqXqXqXqXqXqXqX",
"qXqXqXqXqXqXqXJ.' 1.g 5 T _ _ _ g # O 5 s W E R J p K U L P F.].`.`._.*XqXqXqXqXqXqXqXqXqX",
"9XqXqXqXqXqX7Xl.] ;.9 p ) ) ) ) N & # 6 s E E E R g g L L B G I.I.A.Z.P.9XqXqXqXqXqXqXqXqX",
"qXqXqXqXqXqX,Xq.1.Q 5 J ) ) ) ) N ; & e N E E E R K a L L K y $.h.n.9.l.,XqXqXqXqXqXqXqXqX",
"qXqXqXqXqXqXoX>.1.K 8 E ) ) ( ( N ; & r N E E E E U g N L L 9 d  . .{ { .XqXqXqXqXqXqXqXqX",
"qXqXqXqXqXqX/.1.1.g i ( ) ) ^ W g ; - r J E E E E R N g L L q 5 S v V h R.qXqXqXqXqXqXqXqX",
"qXqXqXqXqXqX^.1.;.a s ) ) ) ) E N ; ; i K E E E E R L g L L i = r r r e y.qXqXqXqXqXqXqXqX",
"qXqXqXqXqXqXK.] ;.p N _ ) ) ) W g ; : p K E E E E R L g J L s @ 5 6 6 6 m 5XqXqXqXqXqXqXqX",
"qXqXqXqXqXqXJ.] =.p B =.=.*.*.! g : : p K E E E E R U N J L N $ : > > > x 6XqXqXqXqXqXqXqX",
"qXqXqXqXqXqXJ.' _ p K -.4.4.=.X.g : : p K W E E E R R J J L N - & & & - 1 %XqXqXqXqXqXqX9X",
"qXqXqXqXqXqXJ.' ;.a K <.4.#.#.#.M : : p L ! E E E R R J J L J % + = # $ 2 #XqXqXqXqXqXqXqX",
"qXqXqXqXqXqXK.:.;.g B -.5.&.5.#.Z : > p K ! ! Q E E R J L L L % & 4 : ; 1 #XqXqXqXqXqXqXqX",
"qXqXqXqXqXqX^.:.' B B <.5.&.&.#.g : 4 p I | | | E E E L L U U % - : ; - 1 $XqXqXqXqXqXqXqX",
"qXqXqXqXqXqX|.:.:.~ B O.5.&.&.&.Z : : u I =.X.| ! W Q U L ~ U $ $ # # $ 2 %XqXqXqXqXqXqXqX",
"qXqXqXqXqXqX X1.2./ B O.&.&.&.&.h 4 : p P -.o.o./ X.! U R Q I O o o o o 3 6XqXqXqXqXqXqXqX",
"qXqXqXqXqXqX,X7.:.:.I ..5.&.&.5.g 4 4 p T %.O.#.+.X.| ~ Q ! P o   X .   3 5XqXqXqXqXqXqXqX",
"qXqXqXqXqXqX8Xl.2.3.) ~ 4.4.4.5.P 4 4 u Y #.O.o.#.o.| } | ! Z .         b qXqXqXqXqXqXqXqX",
"qXqXqXqXqXqXqXJ.2.,.,.~ 4.g.4.5.C 4 4 a [ #.%.#.O.#.o.} X.X.f . o o . . u.qXqXqXqXqXqXqXqX",
"qXqXqXqXqXqXqX X3.,.7.o.| 8.5.5.P 6 5 s T #.#.%.O.#.o.o.o.=.w o $ O $ $ Q.qXqXqXqXqXqXqXqX",
"qXqXqXqXqXqXqX:Xk.3.7.n.| 4.5.5.Y 6 5 s Y #.#.#.#.O.o.o.o.} & o + $ O , @XqXqXqXqXqXqXqXqX",
"qXqXqXqXqXqXqXqX~.>.q.m.7.+.5.5.} p p N ~ &.#.#.O.O.<.O.#.G o @ O O @ n 5XqXqXqXqXqXqXqXqX",
"qXqXqXqXqXqXqXqX&X8.q.7.N.,.#.5.5.6.6.<.+.&.5.#.O.5.O.#.5.t o = # % # T.qXqXqXqXqXqXqXqXqX",
"qXqXqXqXqXqXqXqXqXL.5.5.w.M.7.O.5.5.8.q.q.&.#.O.&.5.#.5.%.; = ; - - j @XqXqXqXqXqXqXqXqXqX",
"qXqXqXqXqXqXqXqXqX>Xk.4.5.e.C.r.O.#.#.#.O.#.+.5.6.5.&.8.A % 4 4 4 4 p.qXqXqXqXqXqXqXqXqXqX",
"qX8XqXqXqXqXqXqXqXqX(.8.8.q.n.S.N.q.O.O.O.&.6.0.5.8.8.@.< 4 e e 6 c $XqXqXqXqXqXqXqXqXqXqX",
"qXqXqXqXqXqXqXqXqXqX5Xb.5.5.8.9.V.V.N.e.e.e.0.&.8.h.s.l : y r r r [.qXqXqXqXqXqXqXqXqXqXqX",
"qXqXqXqXqXqXqXqXqXqXqX:Xx.5.8.q.q.8.9.w.6.8.8.g.j.n.A < e r e e R.qXqXqXqXqXqXqXqXqXqXqXqX",
"qXqXqXqXqXqXqXqXqXqXqXqX:Xx.5.8.9.8.8.9.8.g.h.j.s.A % 7 e e z R.8XqXqXqXqXqXqXqXqXqXqXqXqX",
"qXqXqXqXqXqXqXqXqXqXqXqXqX6Xv.&.8.9.9.h.h.k.j.a.z < y d f y.{.qXqXqXqXqXqXqXqXqXqXqXqXqXqX",
"qXqXqXqXqXqXqXqXqXqXqXqXqXqX5X.Xz.@.@.$.$.@.D w t F H f.!.6XqXqXqXqXqXqXqXqXqXqXqXqXqXqXqX",
"qXqXqXqXqXqXqXqXqXqXqXqXqXqXqXqX8X.XE.c.f.i.R.W.[..X>X9XqXqXqXqXqXqXqXqXqXqXqXqXqXqXqXqXqX",
"qXqXqXqXqXqXqXqXqXqXqXqXqXqXqXqXqXqXqXqXqXqXqXqXqXqXqXqX9XqXqXqXqXqXqXqXqXqXqXqXqXqXqXqXqX",
"qXqXqXqXqXqXqXqXqXqXqXqXqXqXqXqXqXqXqXqXqXqXqXqXqXqXqXqXqXqXqXqXqX9XqXqXqXqXqXqXqXqX9XqXqX"
};
