/* XPM */
static char *_954_96f42dedcdfb0afa979e9084a78022249da6ce55982956b9395b322b0f342c32[] = {
/* columns rows colors chars-per-pixel */
"30 30 199 2 ",
"   c #472806",
".  c #512F04",
"X  c #543305",
"o  c #593607",
"O  c #573811",
"+  c #623E09",
"@  c #6A4307",
"#  c #6E470C",
"$  c #6E490E",
"%  c #744C0B",
"&  c #794F0A",
"*  c #754B09",
"=  c #7C530C",
"-  c #6F4B14",
";  c #734E10",
":  c #6B4C20",
">  c #865A0D",
",  c #8A5C0B",
"<  c #875A08",
"1  c #835911",
"2  c #8F600C",
"3  c #92630D",
"4  c #9C6C0D",
"5  c #8B6115",
"6  c #956711",
"7  c #946914",
"8  c #9B6C13",
"9  c #986D1D",
"0  c #9F751E",
"q  c #AE7B13",
"w  c #A3771E",
"e  c #A47313",
"r  c #B37E11",
"t  c #8E6A29",
"y  c #83673E",
"u  c #A67E2A",
"i  c #BB830F",
"p  c #B68113",
"a  c #BB8513",
"s  c #B6861E",
"d  c #BD8718",
"f  c #B7881E",
"g  c #BF8B1C",
"h  c #BF8813",
"j  c #B78822",
"k  c #B98B27",
"l  c #B79132",
"z  c #C98E0F",
"x  c #D4970C",
"c  c #D4980E",
"v  c #C08711",
"b  c #C38B12",
"n  c #C98E11",
"m  c #C38D19",
"M  c #CC9214",
"N  c #CB951B",
"B  c #D29614",
"V  c #D59913",
"C  c #D99C14",
"Z  c #D0971B",
"A  c #D59B1B",
"S  c #D99D1A",
"D  c #DDA31B",
"F  c #DFA417",
"G  c #E2A519",
"H  c #E6AA1C",
"J  c #EDAD1B",
"K  c #E4A617",
"L  c #CB9621",
"P  c #CC9923",
"I  c #CD9C2A",
"U  c #C09126",
"Y  c #D59C23",
"T  c #D99F21",
"R  c #C79B31",
"E  c #D5A026",
"W  c #DBA223",
"Q  c #D2A22D",
"!  c #DBA52B",
"~  c #DCAB2E",
"^  c #D9A827",
"/  c #C8A039",
"(  c #CDA031",
")  c #D5A531",
"_  c #DAA634",
"`  c #D2A937",
"'  c #DEAC32",
"]  c #D7A93B",
"[  c #E2AC2D",
"{  c #E3AA22",
"}  c #ECB425",
"|  c #EFBB2E",
" . c #E4B329",
".. c #E0AF32",
"X. c #E3B334",
"o. c #E6BA35",
"O. c #EBBD35",
"+. c #E2B43A",
"@. c #E4B93B",
"#. c #EABD3A",
"$. c #EAC23B",
"%. c #EAC333",
"&. c #AC8A45",
"*. c #BF9B46",
"=. c #9D8970",
"-. c #A18966",
";. c #A48C68",
":. c #BA9D67",
">. c #A48F70",
",. c #A0917E",
"<. c #B29B74",
"1. c #BBA276",
"2. c #D2AD4A",
"3. c #DBAB40",
"4. c #DFB742",
"5. c #DAB24B",
"6. c #D8B84C",
"7. c #DDB85C",
"8. c #E1B544",
"9. c #EBBD44",
"0. c #E4BD55",
"q. c #C1A365",
"w. c #DFB760",
"e. c #C1A775",
"r. c #E3BF65",
"t. c #EBC443",
"y. c #EECC46",
"u. c #EED449",
"i. c #EDC557",
"p. c #F8E14A",
"a. c #FAEB5F",
"s. c #FCF15F",
"d. c #E3C16D",
"f. c #ECC869",
"g. c #EFCC73",
"h. c #E5C47C",
"j. c #EFCF7F",
"k. c #E5CA73",
"l. c #F0CE79",
"z. c #F4D867",
"x. c #F2E16D",
"c. c #F9E86E",
"v. c #FDF464",
"b. c #F6E37D",
"n. c #B2A696",
"m. c #C6B189",
"M. c #CFBD99",
"N. c #D1BE96",
"B. c #D7C393",
"V. c #EACF8F",
"C. c #E1C785",
"Z. c #EDD68B",
"A. c #F1D48A",
"S. c #E7CE96",
"D. c #ECD59A",
"F. c #F1D898",
"G. c #F7EA8D",
"H. c #FBF593",
"J. c #FDF994",
"K. c #DBCAA5",
"L. c #CAC1B4",
"P. c #D0C4B1",
"I. c #EBD8A8",
"U. c #F0DBA7",
"Y. c #E6DABE",
"T. c #EBDCBB",
"R. c #EBDBB3",
"E. c #F0DFB2",
"W. c #F6EAA1",
"Q. c #FEFCA7",
"!. c #F2E3B7",
"~. c #F9F4B8",
"^. c #DFDAD2",
"/. c #E5DAC5",
"(. c #E4DDD0",
"). c #EEE4CC",
"_. c #EFE2C5",
"`. c #F2E5C1",
"'. c #FEFCC2",
"]. c #FDFCCB",
"[. c #F7F4C8",
"{. c #E7E1D6",
"}. c #EEE7D6",
"|. c #E7E4DF",
" X c #EDE7DB",
".X c #F2EBD4",
"XX c #F2EBDA",
"oX c #F6F5D5",
"OX c #EBE9E4",
"+X c #EEEDEA",
"@X c #E8E6E1",
"#X c #F2EEE5",
"$X c #F2EFEA",
"%X c #F2F1ED",
"&X c #F3F3E7",
"*X c #F3F3F3",
"=X c #F3F5FA",
"-X c #F7F8FA",
";X c #F8F9FB",
/* pixels */
"*X*X*X*X*X*X*X*X*X*X=X-X-X=X=X=X=X=X=X*X*X*X*X*X*X*X*X*X*X*X",
"*X*X*X*X*X*X*X*X=X%X}.R.I.I.E.E.`..X%X=X*X*X*X*X*X*X*X*X*X*X",
"*X*X*X*X*X*X*X=X}.S.r.3._ _ 8.i.z.b.W.oX*X=X*X*X*X*X*X*X*X*X",
"*X*X*X*X%X*X=X).C._ B x c x B { %.p.a.G.[.$X*X*X*X*X*X*X*X*X",
"*X*X*X*X*X*XXXh.! S E _ I Z n B ^ u.s.v.H.oX*X*X*X*X*X*X*X*X",
"*X*X*X*X*X%XV.[ D ' 5.2.R k a b M ~ x.H.H.~.%X*X*X*X*X*X*X*X",
"*X*X*X*X*X`.9.S m U ) Y L v r r b B 4.W.~.'.oX*X*X*X*X*X*X*X",
"*X*X*X=X#XV.} a q N { I R I n r r n Z k.'.].'.&X*X*X*X*X*X*X",
"*X*X*X=X.Xi.F e d G T w t s B n i a z ` Z.Q.Q.[.*X*X*X*X*X*X",
"*X*X*X*X!.#.M q M } B > @ e B V h i z g 6.x.x.G.&X*X*X*X=X*X",
"*X%X=X%XF.} s a S J M 2 & r B C z a b i k ` $.0._.*X*X*X*X*X",
"*X*X=X#XA.{ p M F K M 2 1 r V V B b v i e w j l K.%X=X%X*X*X",
"*X*X=XXXj.G p B K K M , > r B V V z i v 6 1 7 8 m.+X-X%X*X*X",
"*X%X-XXXg.F a Y { { M 3 > i V V V z b b 4 * = = <.OX=X*X%X*X",
"*X*X-XXXg.G d E [ [ N 3 , a V C B M h z 4 * @ # ;.|.-X*X*X*X",
"*X*X=XXXg.G d Y X.X.I 3 , a S S V B b M 4 * @ # -.|.-X%X*X*X",
"*X%X=XXXA.H M E ..+.I 3 , d S W A B n B 8 * @ # -.@X-X%X*X*X",
"*X*X=X#XV.J A E ..+.I 3 , d ! ! T S B S 8 + . O =.@X;X*X=X*X",
"*X*X*X*XU.O.W W ' +.Q 7 , g ~ ' ! E A S 7 X     ,.OX-X%X*X*X",
"*X*X*X*X!.t.} W _ X.Q 8 3 g ! ' ~ ! T Y 6 X   O n.+X-X*X*X*X",
"*X*X*X=XXXf.|  .~ X.Q 4 2 m _ ' _ ! ! L 1 X o - L.*X=X*X*X*X",
"*X*X*X=X$XD.#.O.o. ._ f r L ~ ..~ [ [ s ; . + y (.*X*X%X*X*X",
"*X*X*X*X*X).0.#.$.$.' ' ~ ~ ~ ..' [ X.u $ + - >.+X=X*X*X*X*X",
"*X*X*X*X*X$XV.8.$.$.$.X.X.' ..' X.+.R 5 & & t L.*X-X%X*X*X*X",
"*X*X*X*X*X*X}.d.+.$.y.y.O.o.o.@.@.@.u 5 < 9 1.+X*X*X*X*X*X*X",
"*X*X*X*X*X*X*XT.r.X.#.t.t.#.@.9.8.l 5 < 8 :.(.=X%X*X*X*X*X*X",
"*X*X*X*X*X*X*X*XT.r.+...@.@.+.) l 7 6 u 1./.*X*X*X*X*X*X*X*X",
"*X*X*X*X*X*X*X*X*X/.C.w.5.2.2.*.&.&.:.B.{.*X=X*X*X*X*X*X*X*X",
"*X*X*X*X*X*X*X*X=X*XOXY.K.B.N.M.K.Y. X=X=X*X*X*X*X*X*X*X*X*X",
"*X*X*X*X*X*X*X*X*X*X=X-X*X*X=X-X;X=X=X*X*X*X*X*X*X*X*X*X*X*X"
};
