/* XPM */
static char *_2869_536c11cca32414f40816d59f274db4cbf5742edcb2406473d846bf93bb766aaa[] = {
/* columns rows colors chars-per-pixel */
"18 22 134 2 ",
"   c #3E2500",
".  c #402800",
"X  c #4B3200",
"o  c #573B00",
"O  c #5A3E00",
"+  c #5C4103",
"@  c #624700",
"#  c #6A4C00",
"$  c #735300",
"%  c #7E5D01",
"&  c #815F00",
"*  c #806106",
"=  c #8B6900",
"-  c #967400",
";  c #9E7903",
":  c #98780D",
">  c #A27D04",
",  c #B18B00",
"<  c #BD9600",
"1  c #BC9B1B",
"2  c #C39C02",
"3  c #C99E00",
"4  c #CFA602",
"5  c #C7A10D",
"6  c #D2A500",
"7  c #D5AA01",
"8  c #DAAC02",
"9  c #DFAD0A",
"0  c #DCB006",
"q  c #DDB40B",
"w  c #D3AC10",
"e  c #D8B110",
"r  c #DBB81C",
"t  c #E5B402",
"y  c #E7B900",
"u  c #EDBD00",
"i  c #E3B40B",
"p  c #E6BA0D",
"a  c #E3B516",
"s  c #E2BB14",
"d  c #EEBF10",
"f  c #E1B41D",
"g  c #E7BD1E",
"h  c #C9AB22",
"j  c #CFB02B",
"k  c #D5B925",
"l  c #D1B42A",
"z  c #D7B928",
"x  c #E8BD20",
"c  c #EEC20A",
"v  c #F3C401",
"b  c #F7CA03",
"n  c #F9CC05",
"m  c #F4C60C",
"M  c #F6CA0D",
"N  c #F9CC0A",
"B  c #FDD10C",
"V  c #EDC616",
"C  c #EECB16",
"Z  c #EBC31B",
"A  c #EFCE1A",
"S  c #F6C712",
"D  c #F3CA16",
"F  c #F5CD1C",
"G  c #FCD313",
"H  c #F3D21B",
"J  c #FCD41B",
"K  c #FED91C",
"L  c #DEC537",
"P  c #E4C224",
"I  c #EBC623",
"U  c #EBCA23",
"Y  c #E9C52A",
"T  c #EBCD2F",
"R  c #F6CF24",
"E  c #F8CE27",
"W  c #F2D524",
"Q  c #FCD623",
"!  c #FFDA25",
"~  c #F6D62D",
"^  c #F8D229",
"/  c #FDDB2C",
"(  c #EDCC35",
")  c #E7CF3E",
"_  c #EDC83A",
"`  c #F5CE36",
"'  c #F7D233",
"]  c #FCD536",
"[  c #FEDD33",
"{  c #F7D53C",
"}  c #FCDB3A",
"|  c #FEE235",
" . c #FEE23B",
".. c #FEE83F",
"X. c #CDB744",
"o. c #CDB946",
"O. c #F8D747",
"+. c #F0DA44",
"@. c #F4D44B",
"#. c #F4DF4A",
"$. c #FDDD4E",
"%. c #EBD856",
"&. c #F2D351",
"*. c #FADB57",
"=. c #F8DC5A",
"-. c #FEE344",
";. c #FFEA41",
":. c #F7E24A",
">. c #FDE54A",
",. c #FFEB4B",
"<. c #F4E253",
"1. c #FAE552",
"2. c #FFEB53",
"3. c #F6E45C",
"4. c #FCE05F",
"5. c #FEEC5B",
"6. c #E3D664",
"7. c #E8D961",
"8. c #EBDE68",
"9. c #F2E261",
"0. c #FDE362",
"q. c #FFEF65",
"w. c #F2E56C",
"e. c #FAE56D",
"r. c #F6E96F",
"t. c #FEED6C",
"y. c #FFF065",
"u. c #FFF16D",
"i. c #F6EA70",
"p. c #FDED72",
"a. c #FFED7D",
"s. c #FFF272",
"d. c #FEF37B",
"f. c None",
/* pixels */
"f.f.f.f.f.;.,.5.u.w.@.d f.f.f.f.f.f.",
"f.f.f.f. .;.,.,.2.5.r.*.S v f.f.f.f.",
"f.f.f.| } T L +.+.>.2.d.=.N v f.f.f.",
"f.f.! ^ j X.6.i.w.%.:.2.a.$.N b f.f.",
"f.f.Q h o.i.8.7.i.d.9.:.5.a.] S f.f.",
"f.K f h <.5.j z <.d.d.3.>.t.0.E D f.",
"f.H w U | -.I W 2.s.d.t.:.2.e.` C f.",
"J D e J ! | Z W ,.q.u.s.1.-.0.` p 0 ",
"! D V K ! / Z W ;.2.5.y.5. .1.P 7 4 ",
"! D H ! ! ~ Z H | >.2.5.1. .-.r 2 < ",
"Q Q G K ! / Z A | -.>.,.>. ./ 5 > ; ",
"G [ G n B H i A | -.-.-.-. .' > $ $ ",
"N } F v b N q A / [  .-.-. .T * o O ",
"v } ' u u v 9 C K J ! [ [  .z + . . ",
"v ! @.t t u 8 C B n B G ! [ 1 + X X ",
"f.S =.x 8 0 8 C G v b B G F : @ @ f.",
"f.v ' &.9 9 Y ~ D u v n G e % @ # f.",
"f.f.m O._ 9 f g p y v n M ; # $ f.f.",
"f.f.u S { ` a q i c n n 2 $ $ $ f.f.",
"f.f.f.u v F R F D n n 4 % $ $ f.f.f.",
"f.f.f.f.t u v v v u 2 = % & f.f.f.f.",
"f.f.f.f.f.7 8 6 3 , - - f.f.f.f.f.f."
};
