/* XPM */
static char *_870_f93458d4c35c253dba6a2907215e7f80d57964cb2c6ba74340061bb177af028b[] = {
/* columns rows colors chars-per-pixel */
"45 45 202 2 ",
"   c #452C05",
".  c #4C2D07",
"X  c #4A2E09",
"o  c #4F3005",
"O  c #4C330A",
"+  c #533207",
"@  c #5B3704",
"#  c #53360A",
"$  c #54390B",
"%  c #5C3A0A",
"&  c #673E02",
"*  c #613D0B",
"=  c #5E410E",
"-  c #6D4303",
";  c #65420C",
":  c #6A440D",
">  c #6E4B0F",
",  c #724704",
"<  c #764904",
"1  c #7C4D03",
"2  c #714D0E",
"3  c #7F5004",
"4  c #6A4712",
"5  c #6D4D15",
"6  c #624612",
"7  c #734C11",
"8  c #765215",
"9  c #7D5612",
"0  c #7D5916",
"q  c #845203",
"w  c #8B5604",
"e  c #8A5B0A",
"r  c #855709",
"t  c #915D06",
"y  c #855C15",
"u  c #895F14",
"i  c #845B15",
"p  c #95640D",
"a  c #9C690C",
"s  c #9D670B",
"d  c #8D6415",
"f  c #8B6419",
"g  c #92651A",
"h  c #946B1B",
"j  c #996D1B",
"k  c #986A17",
"l  c #9B711E",
"z  c #96771C",
"x  c #A46E0C",
"c  c #A5710B",
"v  c #AB740D",
"b  c #AE790D",
"n  c #B47C0D",
"m  c #A06F17",
"M  c #AA7718",
"N  c #B47D11",
"B  c #866528",
"V  c #936C25",
"C  c #9D7225",
"Z  c #AB7E25",
"A  c #A47A23",
"S  c #B07F22",
"D  c #BC830E",
"F  c #B58214",
"G  c #BB8414",
"H  c #BB861B",
"J  c #B8861C",
"K  c #9F8125",
"L  c #AB822C",
"P  c #A28427",
"I  c #B3872A",
"U  c #BC8E31",
"Y  c #BE9231",
"T  c #C1870E",
"R  c #C48A0E",
"E  c #C88E0F",
"W  c #D2970F",
"Q  c #D6990E",
"!  c #DD9F0F",
"~  c #C18711",
"^  c #C48B12",
"/  c #CA8E12",
"(  c #C38B1B",
")  c #C88F19",
"_  c #CC9213",
"`  c #C7921C",
"'  c #CC9319",
"]  c #D19613",
"[  c #D59913",
"{  c #D99B13",
"}  c #D2951C",
"|  c #D49A1B",
" . c #D99C1D",
".. c #DFA20E",
"X. c #D5A11E",
"o. c #DCA21C",
"O. c #DFA110",
"+. c #E3A50E",
"@. c #E3A513",
"#. c #E4A61C",
"$. c #E6A91D",
"%. c #E9AC1D",
"&. c #EFB11D",
"*. c #F1B41F",
"=. c #C38E22",
"-. c #CC982F",
";. c #CB9526",
":. c #D59C22",
">. c #DB9E22",
",. c #DB9F2B",
"<. c #D2982B",
"1. c #C49D31",
"2. c #CA9937",
"3. c #D7A224",
"4. c #DCA224",
"5. c #DCAC26",
"6. c #DBA52A",
"7. c #DDAB2D",
"8. c #DFB22A",
"9. c #CCA438",
"0. c #D4A634",
"q. c #DCAC33",
"w. c #D6AE3D",
"e. c #DEAF39",
"r. c #D4A636",
"t. c #DFB03A",
"y. c #D9B134",
"u. c #E2A623",
"i. c #E4AB25",
"p. c #EAAC22",
"a. c #E5A629",
"s. c #E2AD2C",
"d. c #E8AD2B",
"f. c #EDB324",
"g. c #E3B42C",
"h. c #EBB32A",
"j. c #E6BF2C",
"k. c #EDBA2C",
"l. c #E8B822",
"z. c #F1B422",
"x. c #F1BB27",
"c. c #E0AE34",
"v. c #E2B236",
"b. c #EAB633",
"n. c #EDBE33",
"m. c #E4B33A",
"M. c #E9BB3C",
"N. c #E8BA38",
"B. c #E7C12E",
"V. c #EECD35",
"C. c #EBC23F",
"Z. c #EFCF3C",
"A. c #E7C437",
"S. c #F5CE31",
"D. c #F0C132",
"F. c #F6D037",
"G. c #D5AE42",
"H. c #D8AC46",
"J. c #DDB343",
"K. c #D9B647",
"L. c #CFAD55",
"P. c #E2B640",
"I. c #E3B945",
"U. c #EABB42",
"Y. c #E3BB49",
"T. c #EBBA4B",
"R. c #DFC25D",
"E. c #E8C845",
"W. c #F2D444",
"Q. c #FADE4E",
"!. c #F4DA48",
"~. c #E2C058",
"^. c #ECD95E",
"/. c #F5DF51",
"(. c #F1D757",
"). c #FAE94B",
"_. c #F6E456",
"`. c #FEEE51",
"'. c #F9E55C",
"]. c #FEFB5C",
"[. c #FCF656",
"{. c #DEC763",
"}. c #E1CB73",
"|. c #EDD265",
" X c #FBE367",
".X c #FEFA61",
"XX c #EEE27F",
"oX c #FCFA76",
"OX c #FFFE82",
"+X c #FFFD8C",
"@X c #FEFB92",
"#X c #FDFB9C",
"$X c #F4EDA1",
"%X c #FEFDA4",
"&X c #FFFDAE",
"*X c #F5EFB2",
"=X c #FEFDB6",
"-X c #FFFDBA",
";X c #FFFDC1",
":X c #FFFECB",
">X c #FFFED4",
",X c None",
/* pixels */
",X,X,X,X,X,X,X,X,X,X,X,X,X,X,X,X,X,X,X,X,X,X,X,X,X,X,X,X,X,X,X,X,X,X,X,X,X,X,X,X,X,X,X,X,X",
",X,X,X,X,X,X,X,X,X,X,X,X,X,X,X,X,X,X,X,X,X,X,X,X,X,X,X,X,X,X,X,X,X,X,X,X,X,X,X,X,X,X,X,X,X",
",X,X,X,X,X,X,X,X,X,X,X,X,X,X,X,X,X,X,X,X,X,X,X,X,X,X,X,X,X,X,X,X,X,X,X,X,X,X,X,X,X,X,X,X,X",
",X,X,X,X,X,X,X,X,X,X,X,X,X,X,X6.6.3.X.3.5.8.V.V.S.F.W.,X,X,X,X,X,X,X,X,X,X,X,X,X,X,X,X,X,X",
",X,X,X,X,X,X,X,X,X,X,X,X,X<.:.:. .| ] [ ] X.5.A.W.Q.Q.).Q.,X,X,X,X,X,X,X,X,X,X,X,X,X,X,X,X",
",X,X,X,X,X,X,X,X,X,X,X,X<.>.:. .| ] | ] W W _ X.I./.`.[.`.).,X,X,X,X,X,X,X,X,X,X,X,X,X,X,X",
",X,X,X,X,X,X,X,X,X,X,X,.,.>.:.| | ] ] ] _ W _ W | E.'..X.X].[.,X,X,X,X,X,X,X,X,X,X,X,X,X,X",
",X,X,X,X,X,X,X,X,X,X6.a.u. . .e.~.{.~.K.) _ _ _ _ ' E.oXOXoXoXoX,X,X,X,X,X,X,X,X,X,X,X,X,X",
",X,X,X,X,X,X,X,X,X,Xi.u.#.>.U.}.L.2.U I x v ^ ' _ _ 6.^.#X%X#X@X@X,X,X,X,X,X,X,X,X,X,X,X,X",
",X,X,X,X,X,X,X,X,Xa.p.$. .I 0.=.;.;.) ( N x x ~ _ _ _ y.XX;X;X-X&X,X,X,X,X,X,X,X,X,X,X,X,X",
",X,X,X,X,X,X,X,X,Xp.p.#.x p =.,.,.:. .| } / v s D _ _ ' K.*X>X>X:X-X,X,X,X,X,X,X,X,X,X,X,X",
",X,X,X,X,X,X,X,Xd.%.%.N q ( a.a.a.c.H.H.r.] ' v c E _ _ 3.}.>X:X:X;X=X,X,X,X,X,X,X,X,X,X,X",
",X,X,X,X,X,X,X,Xf.*.O.r v u.p.p.=.B B V J ] ] / x N _ _ ` 9.$X-X=X&X%X,X,X,X,X,X,X,X,X,X,X",
",X,X,X,X,X,X,Xd.z.&.F r ' p.$.$.N & @ i n { { ] ~ c ~ _ ) H {.@X+X+XOX,X,X,X,X,X,X,X,X,X,X",
",X,X,X,X,X,X,Xh.*.%.p c @.@.%.#.G - & t n { { ] ' N n _ _ G Y  X X X X/.,X,X,X,X,X,X,X,X,X",
",X,X,X,X,X,X,Xf.*.| w R +.+.+.@.D , - p n Q Q { ] ^ v R _ R j H.T.T.U.U.,X,X,X,X,X,X,X,X,X",
",X,X,X,X,X,X,Xz.z.~ t W +.+...O.F < - a D Q Q Q [ _ n D / R t S 2.-.-.-.,X,X,X,X,X,X,X,X,X",
",X,X,X,X,X,X,Xz.*.N x ..@.+...! n < , a T Q Q Q W ] D n / E s i M I I M I ,X,X,X,X,X,X,X,X",
",X,X,X,X,X,Xk.z.&.v n @.@.@.O.! D < < c R Q Q Q Q ] R n E E m 4 k h k k j ,X,X,X,X,X,X,X,X",
",X,X,X,X,X,Xh.z.%.c D $.$.$.@...n < < c R Q Q Q { W E n R E v % i y d y y ,X,X,X,X,X,X,X,X",
",X,X,X,X,X,Xh.z.$.c G i.i.i.o.o.n 1 1 c R Q { W Q W W D T E n * 8 9 9 9 0 ,X,X,X,X,X,X,X,X",
",X,X,X,X,X,Xh.z.$.c ^ g.q.g.s.4.F 1 1 c E [ { Q W W E D T E T > : 2 > > 5 ,X,X,X,X,X,X,X,X",
",X,X,X,X,X,Xh.f.%.v ^ s.q.q.e.5.F 1 1 c ^  .{ { { W W T R E ~ % $ 6 ; 6 6 ,X,X,X,X,X,X,X,X",
",X,X,X,X,X,Xh.z.p.N ~ s.e.e.e.e.F 1 1 c ^  . . .[ [ ] R R _ ^ % 4 0 8 7 5 ,X,X,X,X,X,X,X,X",
",X,X,X,X,X,Xd.z.&.~ G s.e.t.e.e.F 1 1 c / 4.3.| | | [ ^ ^ ] / * : 9 8 5 5 ,X,X,X,X,X,X,X,X",
",X,X,X,X,X,X,Xz.f.] R g.e.e.e.e.F 1 q c _ 6.4.>. . . ./ _ ] ) * = 6 = = = ,X,X,X,X,X,X,X,X",
",X,X,X,X,X,X,Xf.z.o.D 6.v.e.t.e.F 1 1 c ) 7.6.6.,.>.>.' } } ) % o $ # # $ ,X,X,X,X,X,X,X,X",
",X,X,X,X,X,X,Xk.x.f._ 3.v.t.t.e.G q q c ` q.q.6.4.4.>.}  . .=.#         O ,X,X,X,X,X,X,X,X",
",X,X,X,X,X,X,Xh.x.x.>.] v.e.e.e.H q q c ` q.0.7.7.6.3.:. .>.( .         X ,X,X,X,X,X,X,X,X",
",X,X,X,X,X,X,Xg.k.k.h.| c.v.v.e.H w q b ` q.q.q.q.q.6.>.>.>.m . + + . . O ,X,X,X,X,X,X,X,X",
",X,X,X,X,X,X,X,Xk.k.D.i.>.v.v.v.( w w b ` q.y.q.q.7.6.4.6.a.i . % % % % ,X,X,X,X,X,X,X,X,X",
",X,X,X,X,X,X,X,Xg.k.n.V.3.c.v.v.` t w v ` q.y.q.7.0.7.6.6.,.* + * * * * ,X,X,X,X,X,X,X,X,X",
",X,X,X,X,X,X,X,Xq.k.b.Z.B.4.v.v.:.c x D _ c.q.q.q.8.8.q.7.=.O * % * % * ,X,X,X,X,X,X,X,X,X",
",X,X,X,X,X,X,X,X,Xv.b.N.!.n.c.v.v.j.j.l.i.v.q.q.7.g.7.q.v.j + * * & * ,X,X,X,X,X,X,X,X,X,X",
",X,X,X,X,X,X,X,X,Xq.v.v.C.).k.c.c.v.m.m.v.e.q.7.8.v.e.c.r.7 : 2 2 2 7 ,X,X,X,X,X,X,X,X,X,X",
",X,X,X,X,X,X,X,X,X,Xe.v.v.E.).n.s.q.c.q.q.7.7.g.B.e.m.v.Z & 9 i 9 9 i ,X,X,X,X,X,X,X,X,X,X",
",X,X,X,X,X,X,X,X,X,X,Xv.v.m.E._.W.m.s.7.7.q.j.B.v.J.m.r.7 i f d d f ,X,X,X,X,X,X,X,X,X,X,X",
",X,X,X,X,X,X,X,X,X,X,Xr.v.b.b.C.(./.W.Z.V.V.N.e.P.P.P.V 7 j j h h ,X,X,X,X,X,X,X,X,X,X,X,X",
",X,X,X,X,X,X,X,X,X,X,X,Xr.m.m.m.m.U.M.E.M.N.m.P.Y.Y.L : g h h h ,X,X,X,X,X,X,X,X,X,X,X,X,X",
",X,X,X,X,X,X,X,X,X,X,X,X,Xr.m.b.b.m.M.m.M.P.I.Y.K.L : y h g h ,X,X,X,X,X,X,X,X,X,X,X,X,X,X",
",X,X,X,X,X,X,X,X,X,X,X,X,X,X-.e.N.M.U.I.I.Y.E.G.C 7 C A A A ,X,X,X,X,X,X,X,X,X,X,X,X,X,X,X",
",X,X,X,X,X,X,X,X,X,X,X,X,X,X,X,XY 9.w.w.G.9.I g h I I I ,X,X,X,X,X,X,X,X,X,X,X,X,X,X,X,X,X",
",X,X,X,X,X,X,X,X,X,X,X,X,X,X,X,X,X,X,XP P z j ,X,X,X,X,X,X,X,X,X,X,X,X,X,X,X,X,X,X,X,X,X,X",
",X,X,X,X,X,X,X,X,X,X,X,X,X,X,X,X,X,X,X,X,X,X,X,X,X,X,X,X,X,X,X,X,X,X,X,X,X,X,X,X,X,X,X,X,X",
",X,X,X,X,X,X,X,X,X,X,X,X,X,X,X,X,X,X,X,X,X,X,X,X,X,X,X,X,X,X,X,X,X,X,X,X,X,X,X,X,X,X,X,X,X"
};
