/* XPM */
static char *_094_dbbec7cf636f5c10a9b5401ec29f15ef151df7f36a8f21a7b603ad3ccdbe2e28[] = {
/* columns rows colors chars-per-pixel */
"60 60 245 2 ",
"   c #1C0C0D",
".  c #180D09",
"X  c #1C130B",
"o  c #0F0E14",
"O  c #0B0F19",
"+  c #100F15",
"@  c #0E1016",
"#  c #0D111A",
"$  c #111016",
"%  c #1C1414",
"&  c #15141A",
"*  c #19161C",
"=  c #1B191E",
"-  c #17181D",
";  c #23140E",
":  c #271609",
">  c #251B14",
",  c #231C1C",
"<  c #271917",
"1  c #311D18",
"2  c #34180C",
"3  c #2D211C",
"4  c #28291C",
"5  c #382418",
"6  c #0F132B",
"7  c #141522",
"8  c #1A1621",
"9  c #161A24",
"0  c #1D1C22",
"q  c #141A2B",
"w  c #1C1E2A",
"e  c #111629",
"r  c #1C1C34",
"t  c #211E24",
"y  c #221E29",
"u  c #291E21",
"i  c #1D2125",
"p  c #1D212D",
"a  c #1D2433",
"s  c #232126",
"d  c #2A2323",
"f  c #24232A",
"g  c #29262C",
"h  c #2B292D",
"j  c #2A2B23",
"k  c #322523",
"l  c #362C25",
"z  c #332B2C",
"x  c #392A26",
"c  c #2E3127",
"v  c #2F342E",
"b  c #37312C",
"n  c #222633",
"m  c #2B2632",
"M  c #2C2C32",
"N  c #22253A",
"B  c #242B3B",
"V  c #2C2939",
"C  c #322E34",
"Z  c #322C3B",
"A  c #2E3238",
"S  c #323235",
"D  c #393234",
"F  c #33343A",
"G  c #39353C",
"H  c #37393D",
"J  c #48341D",
"K  c #523617",
"L  c #533D00",
"P  c #43332C",
"I  c #473827",
"U  c #563A27",
"Y  c #463B34",
"T  c #472E27",
"R  c #623F29",
"E  c #4C4719",
"W  c #535313",
"Q  c #62461D",
"!  c #635004",
"~  c #5C4326",
"^  c #49453D",
"/  c #584639",
"(  c #545137",
")  c #4E4E2A",
"_  c #6B5425",
"`  c #68563B",
"'  c #6B4C2F",
"]  c #716C33",
"[  c #2B2C45",
"{  c #353A44",
"}  c #3A3D4B",
"|  c #383844",
" . c #3C3F52",
".. c #423C46",
"X. c #484449",
"o. c #544B49",
"O. c #434353",
"+. c #4C4656",
"@. c #534A53",
"#. c #5A524E",
"$. c #684F46",
"%. c #655649",
"&. c #765744",
"*. c #765D50",
"=. c #65595D",
"-. c #78624E",
";. c #756356",
":. c #746A5C",
">. c #7C7167",
",. c #756562",
"<. c #825A1F",
"1. c #8B681F",
"2. c #8A731B",
"3. c #937F1C",
"4. c #8A5B34",
"5. c #8A682A",
"6. c #836030",
"7. c #8B643A",
"8. c #896739",
"9. c #93643A",
"0. c #936C3C",
"q. c #966C39",
"w. c #93733D",
"e. c #9B733C",
"r. c #977436",
"t. c #92742C",
"y. c #8C6644",
"u. c #8E6A49",
"i. c #886546",
"p. c #926641",
"a. c #946B43",
"s. c #9A6D45",
"d. c #946F4C",
"f. c #996B47",
"g. c #9D7345",
"h. c #94734E",
"j. c #9C724B",
"k. c #98784A",
"l. c #866B55",
"z. c #946F55",
"x. c #8B745E",
"c. c #8B7856",
"v. c #9C755C",
"b. c #997656",
"n. c #8B7249",
"m. c #A2754B",
"M. c #A47849",
"N. c #A37552",
"B. c #A37B54",
"V. c #AB7B53",
"C. c #A67E5A",
"Z. c #AA7D5A",
"A. c #B27F53",
"S. c #997B69",
"D. c #8A7763",
"F. c #A37961",
"G. c #9C8A3B",
"H. c #AA973D",
"J. c #9D8146",
"K. c #9A9949",
"L. c #9D885A",
"P. c #8E8053",
"I. c #A68449",
"U. c #AC835B",
"Y. c #AA8755",
"T. c #B4855B",
"R. c #B88A5A",
"E. c #BB9558",
"W. c #AE9443",
"Q. c #B6A559",
"!. c #BAA346",
"~. c #9C8264",
"^. c #98846B",
"/. c #988474",
"(. c #A38565",
"). c #AB8562",
"_. c #AE8D6B",
"`. c #A4866B",
"'. c #B48A64",
"]. c #BA8D63",
"[. c #B58D6C",
"{. c #B88B6B",
"}. c #B6946B",
"|. c #B99665",
" X c #A78876",
".X c #B78D70",
"XX c #AA9275",
"oX c #B49476",
"OX c #BD9373",
"+X c #BD9B72",
"@X c #BA977C",
"#X c #AB9469",
"$X c #BDA266",
"%X c #BCA275",
"&X c #BAB66C",
"*X c #C19459",
"=X c #CBB154",
"-X c #C28E64",
";X c #C18F6A",
":X c #C29268",
">X c #C59B77",
",X c #C5A76A",
"<X c #CCA77A",
"1X c #D4B76F",
"2X c #D3C258",
"3X c #EAE44A",
"4X c #ECEA54",
"5X c #F6EA5B",
"6X c #FEF85A",
"7X c #F1E84B",
"8X c #D0CA79",
"9X c #CEC561",
"0X c #E3C775",
"qX c #EADC79",
"wX c #ECDA70",
"eX c #EDE864",
"rX c #F5E764",
"tX c #FEF568",
"yX c #F4E570",
"uX c #FCED75",
"iX c #FAE77B",
"pX c #FFFB7B",
"aX c #FCF777",
"sX c #EAE877",
"dX c #9E8A81",
"fX c #AA9886",
"gX c #B79A83",
"hX c #B5A784",
"jX c #C5A385",
"kX c #C4A99A",
"lX c #DDBA94",
"zX c #D8AC89",
"xX c #D8BCA2",
"cX c #CFBBA0",
"vX c #F7DD88",
"bX c #EAC698",
"nX c #F1D389",
"mX c #F9E885",
"MX c #FFF885",
"NX c #F8E696",
"BX c #FFF497",
"VX c #DCC2AC",
"CX c #E7C9A7",
"ZX c #EAD2AD",
"AX c #F2E4A4",
/* pixels */
"+ + + + + + + + + + + + + o o o # $ + $ $ + + + + o + o o + + o o o + + + + + + $ o + + o o o o + + + + + + + + + + + + ",
"+ + + + + + + + + + + + + + + + $ $ + $ $ $ $ $ + + + + + + $ + + + + + + + + + $ $ + + + o o o + + + + + + + + + + + + ",
"+ + + + + + + + + + + + + o + o $ $ & + + $ $ & & $ & & & $ & $ + $ $ $ $ $ $ $ $ $ $ + + o + + + + + + + + + + + + + + ",
"+ + + + + + + + + + + o $ $ $ $ $ + & $ & $ & & & & & $ & & $ $ & $ & & $ $ $ $ + + $ $ + + + + + + + + + + + + + + + + ",
"$ o + o + + + + + + + $ $ $ $ $ $ $ $ & & & & & & & & $ & & & $ & & & & & $ $ $ # & + $ $ + + + + + + + + + + + + + + + ",
"o o $ $ + + + + o + + $ $ $ & & $ $ & & & & * & * $ * & & & & 8 & - & & & & & & $ $ + + $ + + + + + + + + + + + + + + + ",
"$ o $ o + + + + o + $ $ $ & $ & $ 7 & & & $ & * - & - * - - & 8 * & * & & & & $ & $ & & $ $ + + + + + + + + + + + + + + ",
"o $ o + + + + + o + + $ $ $ & $ $ $ & & & & 8 & * * 8 * * = 8 * - * - & - & $ & & + + $ + $ $ $ o $ + + + + + + + + + + ",
"$ $ O + o O + + + + + & $ $ & & - $ * - - - 8 = 8 = = 8 0 = = 0 $ f - o = 0 - 0 & - & $ $ & & & + o $ $ $ $ $ $ + + + + ",
"$ $ $ $ $ $ + + + + + & & $ & & * * * - = = 0 0 8 0 0 0 0 i 0 0 0 h i = s 0 o & & & $ $ $ $ $ $ $ $ O $ $ $ + $ + + + + ",
"+ + + + $ $ $ $ + + + & $ & & & & * * - = 8 0 0 i 0 i s s s s s & 8 = = f 0 = s 8 * * - - & & & $ $ + + $ $ $ $ + + + + ",
"+ + + + $ $ $ $ + + & + & & - & - & = = 0 i 0 i s s f f s f f f g f 0 s 0 - - 0 0 0 8 * & & & & $ $ $ $ $ # + + + + + + ",
"+ + + + + + $ $ & + + & & & - - - = 0 0 0 f s f f f f g g g f g h f f f f 0 t i 0 8 = - & & & $ $ 7 8 $ & + $ $ + + + + ",
"o + + + + $ $ $ + & $ & & & = = 8 8 0 i f g g g h h h m M h M M f s M M f g h 0 s t 0 0 0 8 * * * $ $ $ $ + + + + + + + ",
"o o o + $ $ & & + $ & & 8 * 8 = 0 0 s s f h m M M A C S S A A M G G G m 0 g S 0 s s 0 0 8 8 * 8 $ $ $ $ $ + + + + + + + ",
"o o o + $ $ & $ & + & & * * 0 = y 0 f g g M A M S S F S D D D D z k z d 3 X.=.#.> % % %   & % $ * * * $ & + $ + + + + + ",
"X o X $ $ & $ & & & & & = i = i y y m m M B A A M H c Y G x :. X XS.S.S.S.kXZXxXS.D./.;.,.>.  t & & & & $ $ $ $ $ $ $ + ",
"@ @ @ $ $ $ & & & & & & = = i s f g m M B A H H { H ^ Y I Y x.-.v.v.S.v.v.F.z.i. Xz.(.~.xXkX$.  & & & & 7 $ $ $ + + $ $ ",
"@ @ $ $ $ % & $ $ & * * = 0 i s 4 j h v A H { { O.H o.^ I -.:.~ 8.h.f.p.z.j.f.0.k.6.8.8.+X~.l.:   & & * & $ $ $ $ $ + $ ",
"X o @ $ $ @ % $ & & * = 0 i s s 4 4 c v A { }  .O.X.X.#.Y ^.` K 8.g.0.6.p.p.0.M.t.r.J.$X%Xn._.J ; & $ & $ & $ $ $ + $ $ ",
"@ o @ @ $ $ - & - & - = = s s s 4 j c v { }  .O...+.@.o.;.x.U ~ 4.q.e.q.m.q.9.q.r.t.5.,XY.8._.I % & & & $ $ $ $ $ $ + $ ",
"@ @ o $ $ $ $ & & - = = i i f j j c v H { }  .O.+.@.=./ ^.` ~ Q ] 0.e.g.m.m.q.s.M.q.e.,Xk.a.oX` % & 8 & $ * 8 $ + $ $ $ ",
"@ @ $ $ $ & & & & - = = 0 s g f M F G | } X.O.+.@.#.%.%.x.~ ~ _ k.0.p.f.9.9.f.9.4.9.>X<XC.z.S.U % - & & $ $ $ $ $ $ $ $ ",
"@ @ $ @ $ $ & $ - - = , 3 s g h F [ | | ^ ^ ( ( ( ` E P._ _ Q Q a.7.f.V.N.N.V.m.V.j.zXU.z.v.S.T * * * & * $ 7 $ $ $ $ + ",
"@ @ O # # & & & * & = = = j z s } n ^ H ) ) E W K.8X8XQ.G.! L ] e.r.0.0.a.f.f.f.4.B.zXu.u.S./.1 , * * & & & & $ $ + $ + ",
"@ @ @ @ $ & & & $ * 3 0 = f z S m F ^ v E ] K.9XsXMXpXaXMX9XG.2.2.2.t.e.M.m.m.m.s.>XU.h.l.gX*.: , 8 & & & & & $ $ $ $ $ ",
"O O @ # # & # * = = = 4 , , d z k Y E ] &XMXMXeX4X4X3X4XtXpX6XaX=XH.G.1.5.5.9.e.Y.<Xn.k.v.^.5 X , = - & & & & + $ $ # + ",
"O O O # # # & & t % $ = d d d l J hXVXAXNXsXyXtX6X6X6X6X7X7X5XtXMXiXrX0X=XW.5.<.R.R.k.b.XX/ : z , 8 - & & & & $ $ $ $ $ ",
"O # O # # - & - = % $ % d s G #.^.ZXAXNXBXmXuXeX5X5XtXtX6X5XtX5XeXyXMXBXNXnX*XI.<X}.#Xc.l.4 > j 0 = 8 & & & & $ $ + $ $ ",
"# O # # & # # & $ = = , 3 3 o.fXL.&X,XQ.1X8XqXmXiXuXuXtXrXrXtXtXaXuXiXmXvXnXbXbX+XL.-./ 3 t i # 0 8 * & & & $ & $ $ $ + ",
"O O O # # # & - + , = 4 s % ^ fX#XJ.k.Y.,X<X,X|.,X1XqXvXiXiXiXyXyXwX9X=X:XE.'.).R R x k 8 [ [ [ w = * & & & & $ $ + $ + ",
"O O # # & & & & * = & = h % c >.%Xw.I.+XlXbXoXU.U.'.Y.*X,X1X=X!.W.G.H.I.Y.Y.F. XU Y z S [ r 6 a w = & & & & & $ $ + $ $ ",
"# @ & @ & & & & = @ i $ s s , >.gXb.u.h.jXZX<Xz.Z.U.T.R.*X*XR.I.Y.P.L.I.m.A..XS.P P A B N f y 0 8 & & & & & + & + + & + ",
"# # @ & $ & $ - - X 3 - s f 9 :.oXS.b.i.Z.<XU.N.m.m.M.V.R.].R.m.^.fXjXB.9.-X;Xl.P [ [ a B f , , , * & & & & & & + + + + ",
"# X @ @ & $ & & & & i & s f - o.XX'.B.9.p.j.y.s.s.f.s.M.T.].Y.j.c.cXCXC.9.;X.Xi.P Z V N a f , , * * & & & + & + $ + $ + ",
"@ @ $ $ @ $ & $ & & i & 0 j = b [.'.V.9.s.s.7.a.j.s.s.m.'.].B.u.~.VXCX'.f.>XZ.' T Z B a a f , < = * & & & + + & + + + & ",
"o o @ @ $ $ X & & & = & 0 s 0 3 h.R.V.q.m.g.0.g.s.p.p.B.'.}.C.y.`.CXCX}.V.>XF.U x h n a p p , = = & & & $ $ $ $ & + + $ ",
"o o @ X $ $ & $ & & = = = 0 = > ' R.R.s.s.4.9.j.j.p.0.B.].+X).h.~.VXlXT.T.>Xv.2 x h n p w 0 = , & 8 & & $ $ + $ + + $ $ ",
"o o o o $ $ $ & & $ $ = * = s > K ].OXU.V.f.a.j.s.a.a.B.].:XT.j.h.oXoXb.{..X&.2 k k p p w 0 = % & & $ $ $ $ $ $ $ $ + + ",
"o o o @ $ $ $ $ = $ @ = * $ s > : ~.@XoXjXoX).B.a.p.p.j.T.].Y.p.u.i.i.v.@Xv.U 1 k y f w w 0 0 = 8 $ * 7 $ $ + + + $ $ $ ",
"o o @ @ $ $ $ $ $ $ $ & = = = % : l %.D.XXgXgXgX[.Z.N.N.A.-XA.9.z. X X XjXl.5 k u u y 9 8 8 - * 8 $ $ $ $ $ + + + + o $ ",
"o o @ @ $ @ X $ $ $ $ & & = = = o X 4 5 ^ ;.^.oXgXjX;XZ.A.*X-X-XOXkXjXgXfX*.1 1 u y t 0 9 * & * $ $ $ $ $ + + + + + O o ",
"o o @ @ $ $ $ $ X $ $ & & - = - p i - % X 3 Y / x.(..XOX;X;X;X{.@XfXS.*.$.P < u t t t 8 - - & & $ * $ $ $ + + + + + o $ ",
"o o X o $ @ $ $ @ @ $ & & & - - & e 0 y 4 = < 1 1 U &.S.>XjX.XN.&./ P x < * 8 y t 8 8 * - * $ $ $ $ $ $ $ + + + + + o $ ",
"$ o $ o $ o $ $ $ $ $ $ & & & - # 7 e 8 0 t u u > : 1 T $.&.` T 1 : < d t t y 7 9 8 - * * $ $ & $ $ O $ + + + + + + + + ",
"o $ $ o o $ $ $ @ @ & @ $ & & & y y y 8 * * 0 , k ,     ; ;     1 : , y p w p 7 8 8 - % & $ $ $ + + + + + + + + + + + + ",
"X o . @ $ $ $ $ X @ X # & $ & X o $ & t y y y y 8 0 t y y f m C k , , & e 6 q e e 7 - % & $ $ @ + + + + + + + + + + + + ",
"@ o o $ $ $ $ @ @ @ $ $ $ @ & & * & % * & & & 8 8 0 w w 8 7 7 8   , y y w q e r 7 & & & $ $ $ @ o o + $ + + + + + + + + ",
"@ @ + + + + + + $ $ $ & $ $ # & & & & $ & & & $ 8 8 * 8 - 7 - & = = * 8 8 9 8 7 $ $ $ & + $ $ + + + + + + + + + + + + + ",
"@ @ + + + + + + $ $ $ $ $ $ $ $ + & + & & & $ * & & - & & * * * - - & - - $ * & & & $ $ + $ $ + + + + + + + + + + + $ o ",
"@ + + + + + + + $ $ $ $ $ $ $ $ + & + & & 8 * $ & 8 $ * - & & * $ & & & $ $ @ $ & + + & $ + + + + + + + + + + + + + + + ",
"+ + + + + + + + $ $ $ $ $ $ $ $ + $ & + + $ $ $ & $ 8 * & & & & $ $ $ $ $ $ $ o + & + + $ + + + + + + + + + + + + + + + ",
"+ + + + + + + + + + + + + + + + + + + + & & + + $ 7 $ $ $ * $ # $ & $ $ $ $ $ $ + + & + $ o $ o o $ o $ + + + + + + $ + ",
"+ + + + + + + + + + + + + + + + + + + + + + + & $ $ $ $ $ $ $ $ & $ & $ $ $ $ $ + + + + o o o o o + + + + + + + + + + + ",
"+ + + + + + + + + + + + + + + + + + o + + & + + $ $ $ $ $ $ $ $ $ $ $ $ $ + o @ + & o $ $ o o o $ o $ o + + + + + + + + ",
"+ + + + + + + + + + + + + + + + o o o + + + + $ + $ $ $ + $ $ + $ $ + + + o o o + + O o o o o o o $ o + $ + + + + + + + ",
"+ + + + + + + $ o o $ o + + + + + + + + + + + + + + + + + + + + $ + + + + + + + + + + + + + + + $ + + + + + + + + + + + ",
"+ + + + + + + + o $ + + + O + + + + + + + + + + + + + + + + + + O + + + + + + + + + + + + $ + + o O + + + + + + + + + + ",
"+ + + o + + + + + + + + $ o o $ + + + + + + + + + + + + + + + + + + + + + + + + + + $ + + + + + + + + + + + + + + + + + ",
"+ + o $ + + + + + + + + o $ o + + + + + + + + + + + + + + + + + + + + + + + + + + + + + + + + + + + + + + + + + + $ + + "
};
