/* XPM */
static char *_c4b3fa7063e458b99a9442fadde121cx64zAK05KMyRTfBY[] = {
/* columns rows colors chars-per-pixel */
"45 45 223 2 ",
"   c #0C0D0F",
".  c #070407",
"X  c #1B0C04",
"o  c #140D0C",
"O  c #1B0E0A",
"+  c #0E100F",
"@  c #1C130D",
"#  c #0E0E15",
"$  c #0E0E1B",
"%  c #060A15",
"&  c #110F15",
"*  c #120E1B",
"=  c #0E1215",
"-  c #0E121A",
";  c #111115",
":  c #1B1415",
">  c #151815",
",  c #1D1916",
"<  c #13131A",
"1  c #1A171B",
"2  c #16191D",
"3  c #1B191D",
"4  c #220F09",
"5  c #221205",
"6  c #23150D",
"7  c #271A0F",
"8  c #241A14",
"9  c #2B1B11",
"0  c #22171D",
"q  c #231B1B",
"w  c #2A1C1A",
"e  c #231714",
"r  c #301D17",
"t  c #23201F",
"y  c #2C211C",
"u  c #34231C",
"i  c #382417",
"p  c #0E0C21",
"a  c #141522",
"s  c #1A1622",
"d  c #161A23",
"f  c #1C1C23",
"g  c #1D1C2A",
"h  c #171828",
"j  c #221D24",
"k  c #251E26",
"l  c #1E2126",
"z  c #1D212A",
"x  c #1E2434",
"c  c #232126",
"v  c #2C2224",
"b  c #25242B",
"n  c #2A242A",
"m  c #2A282D",
"M  c #2E2926",
"N  c #332423",
"B  c #332B25",
"V  c #34262A",
"C  c #392A2A",
"Z  c #3F312B",
"A  c #3F3528",
"S  c #232532",
"D  c #2D2B32",
"F  c #282A39",
"G  c #322C34",
"H  c #3B2C32",
"J  c #2A303E",
"K  c #333135",
"L  c #3B3435",
"P  c #35343B",
"I  c #3D373C",
"U  c #402D1C",
"Y  c #543817",
"T  c #49331E",
"R  c #422E26",
"E  c #452B27",
"W  c #463629",
"Q  c #473B38",
"!  c #4E410C",
"~  c #645900",
"^  c #58432A",
"/  c #4B4138",
"(  c #504433",
")  c #5B493B",
"_  c #544339",
"`  c #55502A",
"'  c #624A25",
"]  c #6B5737",
"[  c #715C3D",
"{  c #716930",
"}  c #2C2F42",
"|  c #2D3341",
" . c #363A44",
".. c #393943",
"X. c #3F434C",
"o. c #4D4643",
"O. c #464449",
"+. c #5B4942",
"@. c #5A5340",
"#. c #4D4856",
"$. c #5D565D",
"%. c #664E42",
"&. c #665442",
"*. c #63544A",
"=. c #685748",
"-. c #755D49",
";. c #755C57",
":. c #7D695A",
">. c #7B6855",
",. c #736351",
"<. c #886E17",
"1. c #8A5D33",
"2. c #8A6C29",
"3. c #8D6436",
"4. c #8A6C3C",
"5. c #876A37",
"6. c #93633B",
"7. c #956C3C",
"8. c #926935",
"9. c #8D723D",
"0. c #98753A",
"q. c #8D7424",
"w. c #846B43",
"e. c #8E6E43",
"r. c #946C44",
"t. c #986D42",
"y. c #956D49",
"u. c #94664E",
"i. c #8F714C",
"p. c #947543",
"a. c #9B7342",
"s. c #91734D",
"d. c #9E754A",
"f. c #997A49",
"g. c #866A56",
"h. c #80745C",
"j. c #927354",
"k. c #92755E",
"l. c #987958",
"z. c #946752",
"x. c #A27647",
"c. c #A37553",
"v. c #A87C55",
"b. c #8D6D60",
"n. c #8A7764",
"m. c #9A7B61",
"M. c #957C68",
"N. c #947E70",
"B. c #AA7E61",
"V. c #9B8728",
"C. c #A19A3F",
"Z. c #978555",
"A. c #A7844C",
"S. c #B2914C",
"D. c #AC8359",
"F. c #A98B55",
"G. c #B4885A",
"H. c #BC915D",
"J. c #B69657",
"K. c #BCBB5E",
"L. c #9B846D",
"P. c #9A8275",
"I. c #A48C6D",
"U. c #AD8B6C",
"Y. c #A78367",
"T. c #B58A63",
"R. c #B38E6D",
"E. c #B88A6B",
"W. c #B89266",
"Q. c #AB8D74",
"!. c #A38875",
"~. c #B48C73",
"^. c #AD957C",
"/. c #B39272",
"(. c #B7937B",
"). c #B99779",
"_. c #AE9366",
"`. c #B9A060",
"'. c #B4B363",
"]. c #C4A35A",
"[. c #CDBB53",
"{. c #C49A69",
"}. c #CB9A7A",
"|. c #C3A966",
" X c #DABB6B",
".X c #C7A37B",
"XX c #D4B477",
"oX c #D3CF58",
"OX c #EDDF58",
"+X c #E8E155",
"@X c #F1E05E",
"#X c #DEC872",
"$X c #CDCA74",
"%X c #F1DE68",
"&X c #E8CE71",
"*X c #FAEB69",
"=X c #F8F465",
"-X c #FAE87A",
";X c #FFFB73",
":X c #FEF87A",
">X c #A99382",
",X c #B59888",
"<X c #B8A086",
"1X c #B8A691",
"2X c #C9A784",
"3X c #CBB29C",
"4X c #DFBA90",
"5X c #CFB192",
"6X c #E8C985",
"7X c #F2D386",
"8X c #EEDE93",
"9X c #E4C491",
"0X c #FFEA85",
"qX c #FEE185",
"wX c #FDFC83",
"eX c #FFF38F",
"rX c #EBE09E",
"tX c #FFE692",
"yX c #D7C9A6",
"uX c #FFDCB7",
"iX c #F5CFAA",
"pX c #FAE8B8",
"aX c #F7E5C1",
/* pixels */
"; ; ; & ; ; & ; & & & & ; & & ; * * * * * * * * * * * o o o o o o & o * o * o : & o & + + ",
"; & ; # & ; ; & & & ; ; ; ; ; & * * * * * * p * * * & & * : O * & & * o * o o & o & ; o = ",
"& & ; ; ; ; ; # & ; ; & ; ; ; < * 1 1 1 < < < < & & & & * O * : & & & & o & & o o & + ; o ",
"; ; & ; & & ; ; ; & ; ; ; ; < > < * 1 * 2 1 < 2 & * < : & * * * & ; * $ & * & & ; + ; + ; ",
"; & ; ; ; ; # ; & ; ; < < > < < < < < 2 2 2 2 2 < - < > ; ; ; < * - * ; = * - = & ; ; # + ",
"; ; & & & ; & ; & < ; ; : < 1 2 1 : > 2 2 2 3 3 2 2 2 - 1 < a - - - - - - - - % # ; & # ; ",
"# ; ; ; & ; ; & ; ; > < < < < 3 2 2 d 2 3 3 l 3 3 d d d a a a a a - < - $ - $ - - # = & + ",
"& ; # ; ; & ; ; & ; ; < < 1 1 2 f d f l l f c j f l d z h h h h - < $ - - - - - $ = $ # & ",
"o & # ; ; & ; ; & < < : 2 2 3 f g S g j k S n k c j k S s h k g 3 < # ; 2 $ % d $ - * # & ",
"= # & ; & ; ; ; ; < < 2 2 3 f c x S S F F G G n H G k j k S k h c , : = . - d % - - $ = & ",
"  & # ; ; ; < ; ; < 1 3 1 3 l b F F F F G n V V w Z H N v 0 : k o o , q ; f b % $ - # & & ",
"; & & ; ; : ; ; < 2 3 f l c b S } } } ..G V W Q E R 9 i *.%.u 6 9 9 7 6 : ; =   - $ - $ # ",
"; & ; & ; ; < ; : s 3 c c b m D } } |  .I / *.>.P.I.k.L.3X3XL.n.>.n._ X O o # d - - - $ ; ",
"  # ; ; ; < < > 2 3 f c b m K K }  . .I Q @.-.>.-.j.j.i.s.w.4.j.Q.3XN.r @ y 1 1 # - - - * ",
"& # ; ; ; < : 1 1 f f b b D K P  .X.O./ _ =.&.' f.e.5.4.p.p.9.w.Z.>XL.W X @ > . < ; - $ < ",
"& & ; ; > < < < 3 f c b m m K P  .O.O.O.=.>.[ Y 4.4.a.a.9.7.0.e.).k.m.-.5 . q 3 - - - - ; ",
"p - - ; > ; > > 3 l 2 K m K  .O.#.#.$.o.,.:.` ' 5.5.x.7.a.x.1.c.2Xj.m.-.5 i o > ; < = - ; ",
"p p ; ; + > > > > m D D b o.I A / A @.) ] ] ! { 5.2.f.x.7.t.c.}.).Z.!.W X 6 , 1 ; ; - = - ",
"p $ = ; ; > > > b 2 l K K o.M A ` { '.$X$XC.~ ~ V.q.q.x.7.6.c.E.j.k.L.i 5 7 , ; - - - - ; ",
"$ $ ; = = > > < 3 l K B 7 A ` Z.K.oXwXwXwX:XoX[.V.q.~ V.7.t.E.E.g.k.>.i 8 w > ; > - - = $ ",
"# # ; ; - > > 2 3 v v y ( 1XyXrXwX=X=X+X+X=X;X:X*X&X X].7.3.G.B.L.P.( 6 O t = d - - - - ; ",
"= # = ; > - 2 a c j q =.^.pXpXrX:X+X=X;X*X+X%X*X-XeXtX7XXX}.2XQ.:.*.t , > l   d - d - - ; ",
"=   ; ; < < < a s v L >X^.Z.F.].#X[.&X0X0X-X0XqXqX7X6X6X9X2Xs.] A M , t b f - - - - - - ; ",
"+ + = ; ; 2 a s k k O n.L.Z.`.XX`.J.F.J.]. X#X].].S.F.A.F.y.Y E M M m 3 b = d d d - - - ; ",
"o + + ; > a d d s V O >.U.5.0.XX4X~.c.v.G.W.H.x.d.F.d.l.U.m.^ R M b l l 2 d 2 - - ; ; < & ",
"o + > ; ; > 2 a j 1 X ) /.Z.2.0.c.z.z.c.v.H.G.x.G.4X/.l.,Xg.E u m b l l d d a - - * < < & ",
"; & ; ; 2 - a a j f u W I._.0.9.r.u.t.t.x.D.G.7.D.iXU.k.,X;.E H n b z d d d - - < $ ; * & ",
"& & + ; - > - 2 d : N 9 >./.p.5.6.r.7.6.x.H.H.7.{.uX(.!.,X+.V H b z d d d 2 - < * ; * & * ",
"& ; - = > > - - f < q 6 %.2Xl.w.3.3.3.8.x.{.H.8.D.2XY.,XN.V N k c f f 2 s 1 < & = & & * * ",
"* - > = = = - 2 l j k 6 W >XQ.2XU.D.d.7.a.G.H.7.3.y.j.>Xb.w C k j f 3 2 < : < * & & & & & ",
"* * > = = > = = ; < k o 4 Q u.B.(.(.(.B.c.D.G.v.T.W.Q.Q.] 9 r w 3 3 : 1 < : : & o * * o * ",
"* * - = = = > = s * k O r 9 9 i %.b.,X,X~.~.~.R.).<X^.g.W 6 w k f 1 1 < < ; < o * o * & & ",
"& * & & = = ; ; < ; 1 1 1 0 q e y u R ] N.1X<XP.-.) W k 0 j g j * < < * & ; * & & & & & * ",
"& & & & * ; ; ; ; 2 < < 1 s f 3 , 8 @ 8 Z Q / R N v q 0 g k h h s * < < ; & ; ; & # # & # ",
"& & & & ; ; ; ; ; < < 1 2 s f 3 q v 8 : @ 9 9 8 6 e e 1 s g a p 1 < ; ; ; ; ; ; & & & & ; ",
"& & & & * ; ; ; < ; < < < < 2 : ; q t e e e q 8 v w q s h a a p * < < & ; $ ; * & # = & # ",
"& # # ; ; & < * ; < ; ; ; < < < & < 0 0 : : : @ e 3 < < 1 a a a < * ; ; ; * ; ; & # # & & ",
"& & & & ; ; ; < * ; ; ; ; ; * < s s f 1 1 3 , 3 o o ; < 1 < p - < ; ; & # ; ; ; & ; & & & ",
"& & # # & ; ; ; ; * ; & & & & & a * < * ; : > : ; > < 2 < * $ $ * & & & ; ; * ; # ; # & & ",
"# & & ; ; & ; ; ; ; ; # & # & & * p a a 2 ; # ; > ; ; # $ # < < ; ; & & # ; ; ; # & & & = ",
"; # ; $ # ; # & # # # ; & & & - $ a $ p ; - $ = & = - ; & * & * & ; ; # & & & & ; # # ; & ",
"# & & & & & & ; & ; & & # & # * < p $ $ - - = $ - = ; ; ; & & * # # & & # = & # & & & & $ ",
"& & ; # # ; & # # = & # ; # & & * - - * - - - = - = ; ; ; * * : * & # & & & # ; & & # # ; ",
"= & & & # & # ; & & & & & & # ; ; * * = - - = - = $ ; ; & & * o & = & ; # & & & # ; ; & & ",
"& & # & & # & & ; # & # # & & ; & & * = = = = = - & * ; & * : * & & & & & & # & & = & & # "
};
