/* XPM */
static char *_6892_a3104f841f44714f9f749642938b0b275b1489a3185c154d0dfc446582a6b5fe[] = {
/* columns rows colors chars-per-pixel */
"45 45 166 2 ",
"   c #4E2B1B",
".  c #542E1C",
"X  c #56311E",
"o  c #5B321D",
"O  c #64351D",
"+  c #6A371D",
"@  c #6C391D",
"#  c #733B1D",
"$  c #7B3E1D",
"%  c #723E20",
"&  c #7E401E",
"*  c #764121",
"=  c #7C4421",
"-  c #7D4E27",
";  c #7F5027",
":  c #84431E",
">  c #89461F",
",  c #854620",
"<  c #894720",
"1  c #8D4A20",
"2  c #824D27",
"3  c #924D22",
"4  c #825227",
"5  c #855528",
"6  c #87582B",
"7  c #885A2F",
"8  c #965224",
"9  c #9C5424",
"0  c #9D5C26",
"q  c #955B28",
"w  c #9B5D29",
"e  c #895D33",
"r  c #9D5F30",
"t  c #A05624",
"y  c #A45A26",
"u  c #AA5E26",
"i  c #A35D29",
"p  c #A95F29",
"a  c #9D622A",
"s  c #896038",
"d  c #91603E",
"f  c #9D643E",
"g  c #9E6A3B",
"h  c #AE6127",
"j  c #A3632B",
"k  c #AB642B",
"l  c #AE692D",
"z  c #B36227",
"x  c #B86727",
"c  c #B36529",
"v  c #B46A2B",
"b  c #BB6C2B",
"n  c #BE722E",
"m  c #AC6631",
"M  c #A26A33",
"N  c #AC6936",
"B  c #A36E3A",
"V  c #AC6C3C",
"C  c #A56433",
"Z  c #B36C32",
"A  c #A4713E",
"S  c #AE713E",
"D  c #B57335",
"F  c #BB7234",
"G  c #B5763C",
"H  c #BB7439",
"J  c #B6783E",
"K  c #BD793C",
"L  c #C3722B",
"P  c #CA792E",
"I  c #C17531",
"U  c #C47935",
"Y  c #CA7A31",
"T  c #C37D3B",
"R  c #9D6945",
"E  c #966A4C",
"W  c #8F6D56",
"Q  c #977258",
"!  c #A36C45",
"~  c #AC6F44",
"^  c #A67544",
"/  c #AE7245",
"(  c #A5704A",
")  c #AC744A",
"_  c #A7794C",
"`  c #AF784A",
"'  c #B67741",
"]  c #B57B43",
"[  c #BD7C42",
"{  c #B2794A",
"}  c #B97E4E",
"|  c #AD7650",
" . c #C27E42",
".. c #C6813F",
"X. c #BD814F",
"o. c #B48252",
"O. c #A88A64",
"+. c #B29374",
"@. c #C58245",
"#. c #C88445",
"$. c #C6854B",
"%. c #C8864A",
"&. c #CA8A4E",
"*. c #C28551",
"=. c #CA8D55",
"-. c #C68954",
";. c #CB9057",
":. c #CC915B",
">. c #D2975E",
",. c #D7995B",
"<. c #DC9E5F",
"1. c #D59454",
"2. c #C79162",
"3. c #D79D63",
"4. c #CF9D72",
"5. c #DEA265",
"6. c #DFA569",
"7. c #CFA178",
"8. c #D3A47C",
"9. c #E0A466",
"0. c #E0A66A",
"q. c #B7A281",
"w. c #BEAA8D",
"e. c #BDA488",
"r. c #BDB893",
"t. c #C1AB8F",
"y. c #C4B296",
"u. c #C6BC9A",
"i. c #C0B994",
"p. c #DCBD9B",
"a. c #DFBFA0",
"s. c #CDC2A2",
"d. c #CDC1A9",
"f. c #D2C5A7",
"g. c #D3C4AD",
"h. c #D6C8AC",
"j. c #D7C6B0",
"k. c #DBCBB3",
"l. c #CFD5B6",
"z. c #CFD8B9",
"x. c #D3D8BC",
"c. c #E0C0A0",
"v. c #E2CEBC",
"b. c #DADDC4",
"n. c #E6D1C2",
"m. c #DAE9CC",
"M. c #DEECD2",
"N. c #E0E0CB",
"B. c #E8E6D6",
"V. c #E1ECD4",
"C. c #E5EDDA",
"Z. c #E9EADD",
"A. c #E8E5D6",
"S. c #E7F0DD",
"D. c #E8F0DF",
"F. c #EDEDE2",
"G. c #F1EFE6",
"H. c #ECF3E4",
"J. c #EFF5E8",
"K. c #EFF8EC",
"L. c #F1F6EB",
"P. c #F2F8EE",
"I. c #F6FAF3",
"U. c #F8FDF7",
"Y. c #FCFCFA",
"T. c None",
/* pixels */
"T.T.T.T.T.T.T.T.T.T.T.T.T.T.T.T.T.T.T.T.T.T.T.T.T.T.T.T.T.T.T.T.T.T.T.T.T.T.T.T.T.T.T.T.T.",
"T.T.T.T.T.T.T.T.T.T.,.3.5.5.6.6.6.0.0.0.0.0.0.0.0.0.9.6.9.9.9.5.<.1.T.T.T.T.T.T.T.T.T.T.T.",
"T.T.T.T.T.T.T.T.T.R 3.| R R R ! ^ ( ( ) ) ) ) ) ) ` ` ` ` ` { { >.o.T.T.T.T.T.T.T.T.T.T.T.",
"T.T.T.T.T.T.T.T.T.e :.a 9 w 0 a 0 0 0 0 0 a 0 y a y 0 a 0 a 0 : X._ T.T.T.T.T.T.T.T.T.T.T.",
"T.T.T.T.T.T.T.T.T.s ;.Z L L Y P Y Y Y Y Y P P Y P P P P P U L 0 J _ T.T.T.T.T.T.T.T.T.T.T.",
"T.T.T.T.T.T.T.T.T.e =.Z L U 8.f.p.a.c.p.=.L P  .4.8.8.8.7.:.U a X.^ T.T.T.T.T.T.T.T.T.T.T.",
"T.T.T.T.T.T.T.T.T.e -.Z L I k.K.P.I.J.F.>.L L $.Z.I.Y.Y.K.v.U 0 ] _ T.T.T.T.T.T.T.T.T.T.T.",
"T.T.T.T.T.T.T.T.T.e &.m L I d.H.J.H.H.G.=.L L  .A.I.I.P.U.n.I 0 ] ^ T.T.T.T.T.T.T.T.T.T.T.",
"T.T.T.T.T.T.T.T.T.7 &.l L b a.H.D.C.L.F.-.L b  .N.L.P.P.Y.v.F 9 J ^ T.T.T.T.T.T.T.T.T.T.T.",
"T.T.T.T.T.T.T.T.T.e %.m b v d.C.V.Z.H.G.*.b b [ n.G.H.I.U.k.b w J A T.T.T.T.T.T.T.T.T.T.T.",
"T.T.T.T.T.T.T.T.T.e #.m b v u.M.V.S.H.Z.*.x b [ m.H.H.J.P.j.Z 9 J A T.T.T.T.T.T.T.T.T.T.T.",
"T.T.T.T.T.T.T.T.T.7 #.k b v u.m.V.S.L.F.} x x ' b.C.C.H.P.g.v w J A T.T.T.T.T.T.T.T.T.T.T.",
"T.T.T.T.T.T.T.T.T.7 #.k z c u.m.m.H.J.B.} x x G x.M.H.J.J.j.m 9 G B T.T.T.T.T.T.T.T.T.T.T.",
"T.T.T.T.T.T.T.T.T.6  .k z k r.m.C.D.J.B.{ z z ~ l.M.H.H.J.u.k q D B T.T.T.T.T.T.T.T.T.T.T.",
"T.T.T.T.T.T.T.T.T.6 T p u p r.V.C.H.H.V.{ z k V z.H.J.H.J.d.p 8 D B T.T.T.T.T.T.T.T.T.T.T.",
"T.T.T.T.T.T.T.T.T.6 T p u p O.w.w.w.t.e.N h u C q.y.y.y.y.+.p 8 D B T.T.T.T.T.T.T.T.T.T.T.",
"T.T.T.T.T.T.T.T.T.6 T i y u u y y y u y u u u p u y u y u u N d D a T.T.T.T.T.T.T.T.T.T.T.",
"T.T.T.T.T.T.T.T.T.6 I i y y y u u y y u y u u y y y y y y t | Q D M T.T.T.T.T.T.T.T.T.T.T.",
"T.T.T.T.T.T.T.T.T.6 I i t t t t y t y y t y y y y t y t t t ~ E D a T.T.T.T.T.T.T.T.T.T.T.",
"T.T.T.T.T.T.T.T.T.5 I t t t t 9 t t t t t t t 9 t t t t t 9 ( W v M T.T.T.T.T.T.T.T.T.T.T.",
"T.T.T.T.T.T.T.T.T.5 I 9 9 9 9 9 t t t t y t y y y t y t t t r 2 Z a T.T.T.T.T.T.T.T.T.T.T.",
"T.T.T.T.T.T.T.T.T.6 F 9 8 3 9 9 9 9 9 9 9 9 9 9 9 9 9 9 9 9 9 = Z a T.T.T.T.T.T.T.T.T.T.T.",
"T.T.T.T.T.T.T.T.T.5 L 8 3 3 3 3 > 3 3 3 3 3 3 3 3 3 1 3 1 1 3 % l a T.T.T.T.T.T.T.T.T.T.T.",
"T.T.T.T.T.T.T.T.T.5 n 8 1 1 : : > < : < < 1 1 < < < < < < , < & l j T.T.T.T.T.T.T.T.T.T.T.",
"T.T.T.T.T.T.T.T.T.5 n 3 > 3 3 3 3 3 3 3 3 1 1 3 3 3 3 3 3 3 1 % l a T.T.T.T.T.T.T.T.T.T.T.",
"T.T.T.T.T.T.T.T.T.4 n 3 > 1 8 3 3 9 3 9 3 < < 9 t 9 9 t 9 t 8 % l a T.T.T.T.T.T.T.T.T.T.T.",
"T.T.T.T.T.T.T.T.T.4 n 1 : 1 3 1 1 1 1 3 3 < > 3 3 1 1 1 1 8 1 % l a T.T.T.T.T.T.T.T.T.T.T.",
"T.T.T.T.T.T.T.T.T.; n 1 : : 1 : > > > 1 1 : : 1 1 < < < < 1 < % k a T.T.T.T.T.T.T.T.T.T.T.",
"T.T.T.T.T.T.T.T.T.4 b 1 $ : : & : : : : > & & > > : : : : < : % k a T.T.T.T.T.T.T.T.T.T.T.",
"T.T.T.T.T.T.T.T.T.4 b 1 $ $ : $ & & $ : : $ $ : : : $ $ & : & + j a T.T.T.T.T.T.T.T.T.T.T.",
"T.T.T.T.T.T.T.T.T.2 L : $ $ $ $ $ $ $ $ $ $ $ $ $ $ $ $ $ & % + j 0 T.T.T.T.T.T.T.T.T.T.T.",
"T.T.T.T.T.T.T.T.T.2 z $ # # # + # # # $ $ # # # $ $ # # # % % O j w T.T.T.T.T.T.T.T.T.T.T.",
"T.T.T.T.T.T.T.T.T.; v & + + + + + + + @ # + # # @ + + + + # @ o j a T.T.T.T.T.T.T.T.T.T.T.",
"T.T.T.T.T.T.T.T.T.; l & + + O O O + O + @ + + + + O O + O + + X j 9 T.T.T.T.T.T.T.T.T.T.T.",
"T.T.T.T.T.T.T.T.T.; v & O O o o o o o O O O O + O o o o o O o X j w T.T.T.T.T.T.T.T.T.T.T.",
"T.T.T.T.T.T.T.T.T.; v # o . X X X o o o o o o o o o o o o X X . 0 q T.T.T.T.T.T.T.T.T.T.T.",
"T.T.T.T.T.T.T.T.T.; h *     . X X X X X o o o X . o X X X .     0 q T.T.T.T.T.T.T.T.T.T.T.",
"T.T.T.T.T.T.T.T.T.; h @   X X X X . X X X X X X X X X X o X X . i q T.T.T.T.T.T.T.T.T.T.T.",
"T.T.T.T.T.T.T.T.T.; c 0 9 9 9 0 0 0 i y w t t t t y 0 y i 0 0 y x q T.T.T.T.T.T.T.T.T.T.T.",
"T.T.T.T.T.T.T.T.T.& 8 9 9 9 y y y u u u u k h z z z h z h h u u u 8 T.T.T.T.T.T.T.T.T.T.T.",
"T.T.T.T.T.T.T.T.T.v h v v b b n n n I I I I I I I I I L n n b b v v T.T.T.T.T.T.T.T.T.T.T.",
"T.T.T.T.T.T.T.T.T.j u k k l Z Z F F H H H H K K H H Z Z Z Z m k k u 0 T.T.T.T.T.T.T.T.T.T.",
"T.T.T.T.T.T.T.T.n Z F F F H K T  . .@. . .%.%.%.%.%.$.$.$.@.@. .[ K [ T.T.T.T.T.T.T.T.T.T.",
"T.T.T.T.T.T.T.T.y j j k m N N V V S ~ ' / / / / ) ) ) ) ! ( ! ! ! f f T.T.T.T.T.T.T.T.T.T.",
"T.T.T.T.T.T.T.T.T.T.T.T.T.T.T.T.T.T.T.T.T.T.T.T.T.T.T.T.T.T.T.T.T.T.T.T.T.T.T.T.T.T.T.T.T."
};
