/* XPM */
static char *_084_343045e8ccc57f0aba739021c82d7e32da7d52437f09e3815ea4f12da5979a2d[] = {
/* columns rows colors chars-per-pixel */
"45 45 68 1 ",
"  c #704E34",
". c #724F35",
"X c #795539",
"o c #7D583B",
"O c #7D583C",
"+ c #916D42",
"@ c #916E42",
"# c #937044",
"$ c #967046",
"% c #967146",
"& c #977346",
"* c #977347",
"= c #987547",
"- c #987248",
"; c #997548",
": c #9B7749",
"> c #9A704C",
", c #9D724E",
"< c #A1774E",
"1 c #A07B4C",
"2 c #A2784F",
"3 c #A17C4D",
"4 c #A27D4D",
"5 c #A57950",
"6 c #A57A51",
"7 c #A67B52",
"8 c #A87C53",
"9 c #A87C54",
"0 c #A97C54",
"q c #AB7E55",
"w c #AB7E56",
"e c #AC7E56",
"r c #AC7E57",
"t c #AD7F57",
"y c #AF8057",
"u c #AE8058",
"i c #AF8058",
"p c #AF8158",
"a c #B08159",
"s c #B18159",
"d c #B1825A",
"f c #B3845D",
"g c #B38C59",
"h c #B8905C",
"j c #B9915C",
"k c #B9915D",
"l c #B68760",
"z c #BB8D67",
"x c #C99F67",
"c c #C39671",
"v c #C99D79",
"b c #CDA26A",
"n c #CEA36B",
"m c #D0A56C",
"M c #D1A66D",
"N c #D2A66D",
"B c #D4A96F",
"V c #D5A96F",
"C c #D6AA70",
"Z c #D7AA70",
"A c #D7AB71",
"S c #D8AC71",
"D c #D0A381",
"F c #D1A482",
"G c #E2B798",
"H c #EBC1A4",
"J c #FFD8BF",
"K c None",
/* pixels */
"KKKKKKKKKKKKKKKKKKKKKKKKKKKKKKKKKKKKKKKKKKKKK",
"KKKKKKK ............................. KKKKKKK",
"KKKKKKKX>,,,,,,,,,,,,,,,,,,,,,,,,,,,>XKKKKKKK",
"KKKKKKKOtdddddddddddddddddddddddddddtOKKKKKKK",
"KKKKKKKoraaassssssssaaaaassssssssaaaroKKKKKKK",
"KKKKKKKoraa7<<<<<<<2eaaae2<<<<<<<7aaroKKKKKKK",
"KKKKKKKorai%=433331@6sas6@133334=%iaroKKKKKKK",
"KKKKKKKorai$hCBBBVm:6sas6:mVBBBCh$iaroKKKKKKK",
"KKKKKKKorai$kACCCCM:6sas6:MCCCCAk$iaroKKKKKKK",
"KKKKKKKorai$jACCCCM:6sas6:MCCCCAj$iaroKKKKKKK",
"KKKKKKKorai$jACCCCM:6sas6:MCCCCAj$iaroKKKKKKK",
"KKKKKKKorai$jACCCCM:6sas6:MCCCCAj$iaroKKKKKKK",
"KKKKKKKorai$jACCCCM:6sas6:MCCCCAj$iaroKKKKKKK",
"KKKKKKKorai$jACCCCM:6sas6:MCCCCAj$iaroKKKKKKK",
"KKKKKKKorai$jACCCCM:6sas6:MCCCCAj$iaroKKKKKKK",
"KKKKKKKorai$jACCCCM:6sas6:MCCCCAj$iaroKKKKKKK",
"KKKKKKKorai$jACCCCM:6sas6:MCCCCAj$iaroKKKKKKK",
"KKKKKKKorai$jACCCCM:6sas6:MCCCCAj$iaroKKKKKKK",
"KKKKKKKorai$kACCCCM:6sas6:MCCCCAk$iaroKKKKKKK",
"KKKKKKKorai$hCBBBVm:6sas6:mVBBBCh$iaroKKKKKKK",
"KKKKKKKorai%=433331@6sas6@133334=%iaroKKKKKKK",
"KKKKKKKoraa7<<<<<<<2eaaae2<<<<<<<5iaroKKKKKKK",
"KKKKKKKoraaassssssssaaaaassssssalFcaroKKKKKKK",
"KKKKKKKoraaaaaaaaaaaaaaaaaaaaaayvJHfeoKKKKKKK",
"KKKKKKKoraaaaaaaaaaaaaaaaaaaaaaazGDdroKKKKKKK",
"KKKKKKKoraaq99999990uaaau09999998waaroKKKKKKK",
"KKKKKKKorap-#*****&+7sas7+&*****#-iaroKKKKKKK",
"KKKKKKKorai$gnbbbbx;6sas6;xbbbbng$iaroKKKKKKK",
"KKKKKKKorai$kSZZZAN:6sas6:NAZZZSk$iaroKKKKKKK",
"KKKKKKKorai$jACCCCM:6sas6:MCCCCAj$iaroKKKKKKK",
"KKKKKKKorai$jACCCCM:6sas6:MCCCCAj$iaroKKKKKKK",
"KKKKKKKorai$jACCCCM:6sas6:MCCCCAj$iaroKKKKKKK",
"KKKKKKKorai$jACCCCM:6sas6:MCCCCAj$iaroKKKKKKK",
"KKKKKKKorai$jACCCCM:6sas6:MCCCCAj$iaroKKKKKKK",
"KKKKKKKorai$jACCCCM:6sas6:MCCCCAj$iaroKKKKKKK",
"KKKKKKKorai$jACCCCM:6sas6:MCCCCAj$iaroKKKKKKK",
"KKKKKKKorai$kACCCCM:6sas6:MCCCCAk$iaroKKKKKKK",
"KKKKKKKorai$hCBBBVm:6sas6:mVBBBCh$iaroKKKKKKK",
"KKKKKKKorai%=433331@6sas6@133334=%iaroKKKKKKK",
"KKKKKKKoraa7<<<<<<<2eaaae2<<<<<<<7aaroKKKKKKK",
"KKKKKKKoraaassssssssaaaaassssssssaaaroKKKKKKK",
"KKKKKKKOtdddddddddddddddddddddddddddtOKKKKKKK",
"KKKKKKKX>,,,,,,,,,,,,,,,,,,,,,,,,,,,>XKKKKKKK",
"KKKKKKK ............................. KKKKKKK",
"KKKKKKKKKKKKKKKKKKKKKKKKKKKKKKKKKKKKKKKKKKKKK"
};
