/* XPM */
static char *_804987a3fee4f0fd51a9d381ffd7230BRxjL7FzAC6ppyou[] = {
/* columns rows colors chars-per-pixel */
"45 45 191 2 ",
"   c #030000",
".  c #170F0C",
"X  c #19120C",
"o  c #1C1B17",
"O  c #1D1C1A",
"+  c #21180F",
"@  c #291D16",
"#  c #2B221C",
"$  c #35251F",
"%  c #372E1E",
"&  c #392D1D",
"*  c #2A2220",
"=  c #2E2B23",
"-  c #2D2D2B",
";  c #362C21",
":  c #322E2A",
">  c #2F302B",
",  c #33302D",
"<  c #3D342D",
"1  c #3C3022",
"2  c #353130",
"3  c #3C3732",
"4  c #3C3935",
"5  c #423626",
"6  c #4C3A24",
"7  c #46352C",
"8  c #41392C",
"9  c #4C3D2D",
"0  c #503E28",
"q  c #403730",
"w  c #443A32",
"e  c #4B3E33",
"r  c #52412D",
"t  c #5B472F",
"y  c #4F4136",
"u  c #4D423A",
"i  c #524335",
"p  c #594835",
"a  c #524439",
"s  c #5A4739",
"d  c #55493C",
"f  c #5A4B3C",
"g  c #66462D",
"h  c #6A4B2B",
"j  c #694829",
"k  c #724623",
"l  c #784925",
"z  c #734C2C",
"x  c #794E2D",
"c  c #76522E",
"v  c #7A532E",
"b  c #6C4D32",
"n  c #6D4F39",
"m  c #654F3A",
"M  c #734C32",
"N  c #7C4D34",
"B  c #774D3B",
"V  c #6E5135",
"C  c #665038",
"Z  c #6D543D",
"A  c #755434",
"S  c #7A5533",
"D  c #765833",
"F  c #785832",
"G  c #73553A",
"H  c #7C5239",
"J  c #75593B",
"K  c #7C5B3B",
"L  c #454442",
"P  c #574C43",
"I  c #5A4D44",
"U  c #5E5144",
"Y  c #5D534A",
"T  c #5E5C5C",
"R  c #5A5551",
"E  c #645445",
"W  c #6A5443",
"Q  c #6E5942",
"!  c #645549",
"~  c #6A5748",
"^  c #6E5B4B",
"/  c #715542",
"(  c #745C44",
")  c #715D4C",
"_  c #795E48",
"`  c #7A5C44",
"'  c #6D5E51",
"]  c #605F5D",
"[  c #705E50",
"{  c #76604D",
"}  c #7C634B",
"|  c #6B645E",
" . c #756353",
".. c #796755",
"X. c #76665B",
"o. c #656464",
"O. c #666867",
"+. c #6C6A6A",
"@. c #6D6764",
"#. c #706F6B",
"$. c #7F716E",
"%. c #835630",
"&. c #855835",
"*. c #835C3D",
"=. c #8B603E",
"-. c #8C6443",
";. c #806E5A",
":. c #86786E",
">. c #897463",
",. c #847977",
"<. c #9B8E7D",
"1. c #8C8584",
"2. c #898689",
"3. c #948A84",
"4. c #948B89",
"5. c #96928F",
"6. c #9B918B",
"7. c #9F9A97",
"8. c #979598",
"9. c #9E9C9D",
"0. c #A19B99",
"q. c #A5A09C",
"w. c #B5A898",
"e. c #ADA7A7",
"r. c #AAA9A7",
"t. c #A8A9A8",
"y. c #B4ABA4",
"u. c #B5B2AA",
"i. c #BDBAB5",
"p. c #BCBCBA",
"a. c #C1BAAD",
"s. c #C0B7B0",
"d. c #C1BEB3",
"f. c #C3BDBA",
"g. c #C6C1BE",
"h. c #CAC2B9",
"j. c #D8CABD",
"k. c #CFC9C9",
"l. c #C9C4C2",
"z. c #D8CDCB",
"x. c #DFD6CF",
"c. c #DFD6D1",
"v. c #D6D7DC",
"b. c #DFDDDE",
"n. c #E2DBD5",
"m. c #E6E1DD",
"M. c #F1E7DD",
"N. c #DEDCE9",
"B. c #DDDCE4",
"V. c #E5DEE3",
"C. c #E8DEE6",
"Z. c #E5E5E6",
"A. c #EBE6E4",
"S. c #ECE9E5",
"D. c #E4E5EA",
"F. c #E9E4EA",
"G. c #E5EBEC",
"H. c #ECECEC",
"J. c #F3EAE5",
"K. c #F0E6EE",
"L. c #F2EDED",
"P. c #FBEEEB",
"I. c #F4EAE2",
"U. c #F4F1EE",
"Y. c #FBF4ED",
"T. c #EEE6F1",
"R. c #EBEEF1",
"E. c #F2EEF3",
"W. c #F8EFF0",
"Q. c #EDF2F4",
"!. c #EFF5F8",
"~. c #EFF9FA",
"^. c #F3F3F3",
"/. c #FBF5F4",
"(. c #F4F8F7",
"). c #FDFAF5",
"_. c #F3F5F9",
"`. c #FAF6FB",
"'. c #F5FAFC",
"]. c #FAFAFD",
"[. c #FFFBFF",
"{. c #FEFAFD",
"}. c #FAFEFF",
"|. c #FCFCFC",
" X c #FFFEFD",
".X c #FFFDFF",
"XX c #FFFCFF",
"oX c white",
"OX c #FEFEFE",
"+X c #FDFFFF",
"@X c #FCFCFC",
/* pixels */
"Q.R.Q.'. X X^.H.^.{. X XC.`.T.{.{.{.`.E.Y.@X).).Y.M.S.U. X XN.].E. X X XZ. XL.`. X@XL.H.L.",
"R.Q.^.'. X@XE.H.K.`.`. XC.E.K.{. X{.C.B.M.).).).M.S.U.@X X'. XN.D.(.]. XZ.H.G. X X`.Q.H.H.",
"Q.Q.(.'.`.^.^.L./.{./.{.K.K.C.`.`.`.W./.).).).M.).M.h.g.2.2.{.B.^. X(. XG.G.A. X`.@X^.^.H.",
"'.'.'.Q.^.^.^./. X`.C.{.{.{.`.{./.{.{./.M.j.w.<. .! u 8 . : V.].H. XH.(.{. XH.G.H.^.(.@X`.",
"@X@X(.Q.H.^.`. X`.k.,.6.4.4.1.<.:.,.:.X.E i r 6 r r ' ' I 3 1.0.9.Q.B.H.@X X@XZ.S.L.@X X X",
"}.@X_.Q.^._.(.@X{.e.* - $ @ # # 7 e f p t C { } } Q ..' ! o *   T H.L.Q.Q. X X^.H._.`. X@X",
"_.Q.^._.].'.^.^.{.u.- e I Y X. .~ ^ _ ( J K D h D t C p f 8 3., | @X X XL.G.^.@X'.(.^.^.^.",
"G.G.R.`. X X^.Z.{.u.: Y ' E  .E _ ( Z V J K D j h J K { r 1 h.# #. X^. X^.A.^. X X@XU.H.H.",
"L.U.Q.`.}.}.Q.H. Xu.: d [ Q Q Z ( G V V S S N z c c V ( r < a.# o.@X@X(.^.^.^.@X X(.^.R.^.",
"`.(._.^.Q.!.'.(. Xu.; d ) Q Q J J Z G A S S x l c A V ( r 5 a.; @.(.L.^.(.@X(.^.^.^.`. X@X",
" X X(.H.D.R.'.@X Xu.; f ) Q D D J Z A A x S l N h M V / r < h.= #.^.S.R. X X`.^.Z.^. X X X",
" X@X`.Q.R.Q.~.}.@Xu.; p Q J D c J G A A N %.%.N z z G Q r 3 d.> +._.H.^.`. X(.^.H.^.]. X X",
"L.R.^.'.@X}.!.G.@Xu.% t } D F c J G V J B %.N N M M B ~ a 8 p.> o.@X X(.Q.L.U.`. X(.^.H.H.",
"A.H.Q.@X@X@X!.D.@Xu.% t ( D v c J Z G A %.B N N M B W ^ a 4 p.> o. X X@XL.G.L. X X XL.F.S.",
"E.^.^.(.'.~.~.R.@Xu.& t J F F F J Q G G N %.%.N N B W ^ u 4 p.> O.@X@X(.Q.U.^.(.@X(._.L.Q.",
"{.{.]._.R.Q.~.}.@Xu.& t ( F F c J Z G B / %.B N N B W ' u 4 p.- +.`.U.^.(.@X^.^.H._.@X X X",
" X X X^.R.R.}. X).u.% p ( J S D G G G A A z x N A M (  .e q l.: o.L.G.^. X X@X^.Z.U.@X X X",
"`.`.`._.~.!.~.(.@Xu.; p { J S D G V G c D z c c A V /  .e q g.- o._.^.(.@X`.^._.^.^.(.(._.",
"U.U.`.].].'.Q.G.).u.% p ( D A A J V A A c c c x A b /  .e < g.- o. X X@XL.H.L.}. X`.^.H.U.",
"L.H.^.'. X'.Q.G.).u.% p { J S D J V G A S c c c A n /  .e < f.- o. X X`.H.H.H.@X X XH.H.G.",
"^./.^.(.}.}.~.R.@Xu.% p { J D D D G J A S c c c H n ` [ e < f.= +.{.`.(.^.^.^.`. X(.^.L.^.",
").(.`.^._.'.'.'.@Xu.% p ( J D A J J J A S c c S H n ` ..e < g.= +.^.L.^.(.@X(.^.U._.(.`. X",
" X@X`.^.Q.Q.'.}.).u.% p ( J D A J G J D S c v c K G _ ..e 3 g.- +.^.G.^. X X`.^.G.U.{. X X",
" X@X`.^.G.R.~.}.@Xu.; p ( J S D J J J D D c S S K G _ ..e 3 g.- @.^.H._. X X(.H.G.^.{. X@X",
"L.H.^.]. X@X~.D.@Xu.& p ( J A D G G K A F v S S A G / ) u < i.- o. X X@XH.H.H. X X(.U.H.Q.",
"L.U.^.`.@X}.Q.G.@Xu.1 p { J D A G G J K S v S S M G / ) y < p.: o. X X].Q.H.U.@X X`.^.G.G.",
"U.^./.(.'._.~.Q.@Xu.; s ( G D c G V K A D c F S M G G ) a < f., o. X X`.^.U.L.(.`.@X^.^.H.",
"(.).`._.Q.Q.Q.'.@Xu.; p ( D D G Z D J D S c &.S h G Q ^ i 3 f., +.(.^.^.^.{._.(.L.^.).{.(.",
" X@X`.Q.Q.Q.'.@X@Xu.& p ( J A c D G J D c c S S z V / ) u 8 f., +.^.G.U. X X@X^.Z.Q.@X X X",
"@X{.^.^.Q._.'.}.@Xu.& p { J A A G G J D S c v S M G / ) i 3 f.- +._.H.L.]. X(.^.H.^.`. X X",
"/.U.^.^.'.'.~.Q.@Xu.; p ( J D c G G K A S c S S A A / ) e 3 p.: +. X`._.^.^.^.^.@X(.^.^.^.",
"S.S.Q.'.}.}.Q.Z.@Xu.% p { D D A A J K S S v v S A G / ) a < i.- O. X X XH.S.G.(. X@XL.H.L.",
"H.S.U.(.'.~.~.G.}.i.% p { J K h H A S S %.&.%.%.k H ` _ s # l.O o. X(. X^.Z. XH. X`.^.R.^.",
").).(.Q.Q.~.~.'.(.i.< d Z h D F K H z k k k l l z A V W d < g.4 ] @XZ.Q.^.Q. X^.^.(.(.@X@X",
").).).H.D.G.~.@X(.t., I ..{ J K g b G *.=.-.*.&.z G / W d u q.L o. XA.H.@X@X@X^.Z.U. X X X",
").).(.U.R.R.'.].@Xu.= u ~ ( C Z } / n g g M S H b G _ ~ a < R o T @X^.^. X@XL.Q.H.^.@X X X",
"P.U.U.(. X@X!.R.'.t.2 w U  .^ >.' ^ ^ ) _ _ ` ` n n [ W w @ 3 o ] ^.^._.^.^.H. X X`.^.H.R.",
"I.M.P.{. X X!.D.`.v.8.2.| I ; 5 e e P ! ) ) ( / / m  .^ P < 4.5.t. X X(.S.H.H. X X XH.Z.G.",
"P.P./.`.`.`._.!.!.].`. X`./.z.c.0.<.@.d e 9 r s ~ s ' I P w n.@XH. X`. XG.^.^.`. X(.^.^.U.",
").)./.P.E.R._.{._.`.D.F.E.{.L./.(.`.{.L.n.s.6.:.! e I w < . A.@X^.^.b. X^. X`.U.H.^.@X X{.",
"{.{.{.L.F.E. X X@X!.D.R.{. X{.R.D.R.@X X X).Y.Y.).Y.x.y.7.u.M.@X@X^.Z.H. X X@XL.G.L.(.@X X",
"Y.).)./.^._.`.`.`._.!._.].{.`._.!.'.].].(.^.^.Y.).).@X).U.). X X(.^.^._.`.@X'.^.H.^.(.`.`.",
"L././.(.{.{.^.R._.`.@X'.^.Q._.]. X}.^.E.^.^.`.@XS.L./.).@X@X(.S.^.).@X(.^.^.(.(.`.(.^.^.U.",
"H.S.U.`. X X^.G.E.]. X@XQ.R.^.]. X_.H.G.^.]. X XL.S.H.U.).@X/.H.^.@X X@XU.H.U.@X X`.^.U.L.",
"H.F.H.`. X X^.S.U.@X@X`.^.H.^.`. X(.H.H.^. X X XH.H.(. X X X^.H.^.@X X`.Q.H.U.`. X@XQ.H.H."
};
