/* XPM */
static char *result[] = {
/* columns rows colors chars-per-pixel */
"46 46 221 2 ",
"   c #3D261D",
".  c #3B2826",
"X  c #58150E",
"o  c #7B1412",
"O  c #582E1C",
"+  c #65291A",
"@  c #78251C",
"#  c #6D351A",
"$  c #65321A",
"%  c #7A3A1B",
"&  c #7C1E20",
"*  c #583528",
"=  c #59373C",
"-  c #412E32",
";  c #683A28",
":  c #763D26",
">  c #633C35",
",  c #742C30",
"<  c #7B4228",
"1  c #744938",
"2  c #0A1E5B",
"3  c #15255E",
"4  c #362E50",
"5  c #091F62",
"6  c #0A216B",
"7  c #0B2267",
"8  c #162A68",
"9  c #0A2373",
"0  c #09237C",
"q  c #122A77",
"w  c #1C3174",
"e  c #393973",
"r  c #543A4E",
"t  c #733059",
"y  c #453F78",
"u  c #753070",
"i  c #5D4647",
"p  c #7C595B",
"a  c #704E4A",
"s  c #6B686D",
"d  c #767376",
"f  c #687275",
"g  c #5D4D7B",
"h  c #870706",
"j  c #891614",
"k  c #960D0F",
"l  c #AA0607",
"z  c #B90609",
"x  c #AC1615",
"c  c #AB2918",
"v  c #931E33",
"b  c #BB1722",
"n  c #B01831",
"m  c #88342D",
"M  c #9A342D",
"N  c #A62725",
"B  c #B0272A",
"V  c #C80809",
"C  c #DB0A0C",
"Z  c #D30909",
"A  c #D71519",
"S  c #C20D11",
"D  c #E80C0C",
"F  c #E81416",
"G  c #F91313",
"H  c #F21214",
"J  c #E50D10",
"K  c #FE201F",
"L  c #CD1C25",
"P  c #F91D21",
"I  c #EB1A23",
"U  c #C42927",
"Y  c #C63332",
"T  c #DB2B2B",
"R  c #ED2528",
"E  c #FA2828",
"W  c #E33A3E",
"Q  c #EB2F30",
"!  c #874428",
"~  c #9F4B37",
"^  c #914F36",
"/  c #A55A3D",
"(  c #B1643B",
")  c #CF4538",
"_  c #902650",
"`  c #AA264E",
"'  c #B0284E",
"]  c #FC3C42",
"[  c #82544B",
"{  c #965A42",
"}  c #894F51",
"|  c #A75C45",
" . c #BE5F4E",
".. c #9C6146",
"X. c #9A604B",
"o. c #9B6B56",
"O. c #A7644A",
"+. c #B46C57",
"@. c #B67455",
"#. c #B56B4C",
"$. c #84777A",
"%. c #97786F",
"&. c #B17866",
"*. c #D2504A",
"=. c #EA4848",
"-. c #FB4F54",
";. c #FA5955",
":. c #E95355",
">. c #C4785A",
",. c #CD624D",
"<. c #D1726A",
"1. c #EB7779",
"2. c #F26A6B",
"3. c #F66B57",
"4. c #BBAD52",
"5. c #B2887B",
"6. c #D0885E",
"7. c #D88866",
"8. c #DA8D72",
"9. c #DE9E7A",
"0. c #C5886F",
"q. c #E8986D",
"w. c #EB9978",
"e. c #EA8D6D",
"r. c #F3A37B",
"t. c #EFA379",
"y. c #092485",
"u. c #132D84",
"i. c #112C89",
"p. c #163288",
"a. c #143698",
"s. c #0D2A96",
"d. c #223A8D",
"f. c #153AA3",
"g. c #163EAC",
"h. c #1B3AA8",
"j. c #183FB0",
"k. c #273DA6",
"l. c #4C3D8C",
"z. c #483B9B",
"x. c #2A4195",
"c. c #1841B4",
"v. c #1944BB",
"b. c #1740B3",
"n. c #1740AF",
"m. c #2346B8",
"M. c #324FB0",
"N. c #445D9B",
"B. c #794D8C",
"V. c #72748F",
"C. c #4345B3",
"Z. c #4A59B0",
"A. c #5F76A9",
"S. c #1D49C5",
"D. c #1D4AC9",
"F. c #1A47C4",
"G. c #1F4ED2",
"H. c #234DCA",
"J. c #3457CA",
"K. c #214FD3",
"L. c #2453D8",
"P. c #3E62D7",
"I. c #2B5AE3",
"U. c #2758E4",
"Y. c #3564EB",
"T. c #4668D9",
"R. c #5465C3",
"E. c #4773EF",
"W. c #817E83",
"Q. c #F17E80",
"!. c #7A8081",
"~. c #6C81A9",
"^. c #898889",
"/. c #8A8A97",
"(. c #989596",
"). c #918186",
"_. c #A89F9D",
"`. c #9A9AA6",
"'. c #A09DA2",
"]. c #A5A4A5",
"[. c #BDB0AD",
"{. c #B7B6B8",
"}. c #A8ADB8",
"|. c #CC9986",
" X c #EB8587",
".X c #F08687",
"XX c #F18E90",
"oX c #D1A289",
"OX c #D5AA91",
"+X c #E6AC89",
"@X c #FAB687",
"#X c #EBB895",
"$X c #F8BF9B",
"%X c #F7A586",
"&X c #C6BEBC",
"*X c #D4B3A9",
"=X c #EBB3B0",
"-X c #FFC694",
";X c #FFD5AA",
":X c #FFE1B6",
">X c #BCBDC3",
",X c #C0BEC4",
"<X c #BFC2D0",
"1X c #CBCACB",
"2X c #CECCD0",
"3X c #D5D2D6",
"4X c #E8D5D9",
"5X c #EFC2C3",
"6X c #CDD6E3",
"7X c #D8DBE7",
"8X c #DEE4F5",
"9X c #E4E2E6",
"0X c #E9E8ED",
"qX c #EDEDF3",
"wX c #E8ECF9",
"eX c #EEF5FC",
"rX c #F4F5FA",
"tX c #F5FAFD",
"yX c #F9FBFE",
"uX c #F2F1F4",
"iX c None",
/* pixels */
"iXiXiXiXiXiXiXiXiXiXiXiXiXiXiXiXiXiXiXiXiXiXiXiXiXiXiXiXiXiXiXiXiXiXiXiXiXiXiXiXiXiXiXiXiXiX",
"iXiXiXiXiXiXiXiXiXiXiXiXiXiXiXiXiXiXiXiXiXiXiXiXiXiXiXiXiXiXiXiXiXiXiXiXiXiXiXiXiXiXiXiXiXiX",
"iXiXiXiXiXiXiXiXiXiXiXiXiXiXiXiXiXiXiXiXiXiXiXiXiXiXiXiXiXiXiXiXiXiXiXiXiXiXiXiXiXiXiXiXiXiX",
"iXiXiXiXiXiXiXiXiXiXiXiXiXiXiXiXiXiXiXiXiXiXiXiXiXiXiXiXiXiXiXiXiXiXiXiXiXiXiXiXiXiXiXiXiXiX",
"iXiXiXiXiXiXiXiXiXiXiXiXiXiXiXiXiXiXiXiXiXiXiXiXiXiXiXiXiXiXiXiXiXiXiXiXiXiXiXiXiXiXiXiXiXiX",
"iXiXiXiXiXiXiXiXiXiXiXiXiXiXiXiXiXiXiXiXiXiXiXiXiXiXiXiXiXiXiXiXiXiXiXiXiXiXiXiXiXiXiXiXiXiX",
"iXiXiXiXiXiXiXiXiXiXiXiXiXiXiXiXiXiXiXiXiXiXiXiXiXiXiXiXiXiXiXiXiXiXiXiXiXiXiXiXiXiXiXiXiXiX",
"iXiXiXiXiXiXiXiXiXiXiXiXiXiXiXiXiXiXiXiXiXiXiX6XiXiXiXiXiXiXiXiXiXiXiXiXiXiXiXiXiXiXiXiXiXiX",
"iXiXiXiXiXiXiXiXiXiXiX1 1 ..iXiXiXiXiXiXiX(.}.6XeXyXiXiXiXiXiXiXiXiXiXiXiXiXiXiXiXiXiXiXiXiX",
"iXiXiXiXiXiXiXiXiXiX* $ # : ..iXiXiXiXiX^./.}.7XeXtXiXiXiXiXiXiXiXiXiXiXiXiXiXiXiXiXiXiXiXiX",
"iXiXiXiXiXiXiXiXiXiX1 $ # % ! { o.iXiX^.!.(.<X8XeXtXyXiXiXiXiXiXiXiXiXiXiXiXiXiXiXiXiXiXiXiX",
"iXiXiXiXiXiXiXiXiXiXiXO * = = ; 1 [ %.(.].>X7XwXeXyXyXiXiXiXiXiXiXiXiXiXiXiXiXiXiXiXiXiXiXiX",
"iXiXiXiXiXiXiXiXiXiXiX4 8 q u.e r = p _.{.1X0XrXrXyXyXrXiXiXiXiXiXiXiXiXiXiXiXiXiXiXiXiXiXiX",
"iXiXiXiXiXiXiXiXiXiXiXiX8 7 9 0 q 4 i (.'.&X9XrXyXyXqXuXiXiXiXiXiXiXiXiXiXiXiXiXiXiXiXiXiXiX",
"iXiXiXiXiXiXiXiXiXiXiXiX7 6 9 y.y.q g `.{.1X9XuXrXuX4X=XiXiXiXiXiXiXiXiXiXiXiXiXiXiXiXiXiXiX",
"iXiXiXiXiXiXiXiXiXiXiX8 7 9 0 y.s.f.iXiXiX9X9X4X4X5XQ.-.iXiXiXiXiXiXiXiXiXiXiXiXiXiXiXiXiXiX",
"iXiXiXiXiXiXiXiXiXiXiX8 7 9 0 s.h.iXiXiXiXiXiXiX<.:.E E iXiXiXiXiX*.:.iXiXiXiXiXiXiXiXiXiXiX",
"iXiXiXiXiXiXiXiXiXiXiX8 7 6 u.n.J.T.iXiXiXiXiXiXS D G G ;.%Xr.r.,.B Y :.iXiXiXiXiXiXiXiXiXiX",
"iXiXiXiXiXiXiXiXiXiXiX8 2 7 p.a.h.m.J.T.T.R.iXv l C G E 3.w.e.3.) k x U =.iXiXiXiXiXiXiXiXiX",
"iXiXiXiXiXiXiXiXiXiXiX8 3 8 q p.i.f.j.j.c.z.v k l J G E ,.>.#.{ m o k x U W 2.iXiXiXiXiXiXiX",
"iXiXiXiXiXiXiXiXiXiXiXiX8 q p.a.f.g.g.c.k._ z l V D G Q ,.| m , X X h l z A W -.iXiXiXiXiXiX",
"iXiXiXiXiXiXiXiXiXiXiXiXw q a.b.g.j.c.v.k.n Z V C H I Y >.+.! + + + j l V Z A R -.iXiXiXiXiX",
"iXiXiXiXiXiXiXiXiXiXiXiXq a.n.v.c.b.v.S.z.L D J D F U  .7.8.>.O.O./ M b V Z C J E -.iXiXiXiX",
"iXiXiXiXiXiXiXiXiXiXiXw q a.v.D.F.v.S.D.C.' H F L N ~ >.8.w.%X%Xt.7./ B L C C J F Q iXiXiXiX",
"iXiXiXiXiXiXiXiXiXiXiXw u.g.F.G.D.F.S.H.M.B.' _ u i O.7.6.+.&.|.OX|.o.@ b F D H G E =.iXiXiX",
"iXiXiXiXiXiXiXiXiXx.d.q a.b.G.L.K.D.S.M.f ^.Z.C.C.} >.7.@.> i V.V.V.%.; j I H I E G E iXiXiX",
"iXiXiXiXiXiXiXx.p.a.a.f.b.D.K.U.K.D.D.N.4.4.B.u , O.7.7.^ - i /.~.`.5.; & L W <.XX1.E iXiXiX",
"iXiXiXiXiXiXd.u.i.f.j.v.D.K.U.U.K.H.K.J.A.V.` N m >.q.>.* . p oX*X#XoX..~ U 2.=X1.XX-.iXiXiX",
"iXiXiXiXiX. p.a.f.c.H.K.L.I.Y.Y.T.T.P.J.Z.g v b ~ t.q.O.  * X.8.#X#X+X+.~ B XX=XQ..XiXiXiXiX",
"iXiXiXiX* O r d.j.F.K.L.I.I.Y.iXiXiXiXiX( c C Z Q r.t...  ^ 6.+X+X[.oX^ @ N :. X XiXiXiXiXiX",
"iXiXiXiX< O O = y k.H.K.I.E.iXiXiXiXiXiXiXk z h N iX-X@.* 6.9.$X-X,X&.@ o N =.iXiXiXiXiXiXiX",
"iXiXiXiXiX< O $ ; > r y Z.iXiXiXiXiXiXiXiXh h & } iXiX0.a 7.@X;X;XiXiXj j N iXiXiXiXiXiXiXiX",
"iXiXiXiXiXiX< $ # % < a } iXiXiXiXiXiXiXiX& , %.d $.$.[.iXw.-X;X:XiXiXiXj B iXiXiXiXiXiXiXiX",
"iXiXiXiXiXiX^ < # % ^ ^ / >.iXiXiXiXiXiXiX} ).].^.d (.1XiXiXiXiXiXiXiXiXiXiXiXiXiXiXiXiXiXiX",
"iXiXiXiXiXiXiX/ < ! ..@.( 7.iXiXiXiXiXiXiX(.^.^.W.s ].2X3XiXiXiXiXiXiXiXiXiXiXiXiXiXiXiXiXiX",
"iXiXiXiXiXiXiXiX6.^ / ( >.iXiXiXiXiXiXiXiXiXd V.s s '.,X7XiXiXiXiXiXiXiXiXiXiXiXiXiXiXiXiXiX",
"iXiXiXiXiXiXiXiXiX6.@.>.iXiXiXiXiXiXiXiXiXiX(.d W.'.{.7XqXiXiXiXiXiXiXiXiXiXiXiXiXiXiXiXiXiX",
"iXiXiXiXiXiXiXiXiXiXiXiXiXiXiXiXiXiXiXiXiXiXiX^.{.2X9XuXiXiXiXiXiXiXiXiXiXiXiXiXiXiXiXiXiXiX",
"iXiXiXiXiXiXiXiXiXiXiXiXiXiXiXiXiXiXiXiXiXiXiXiX3XqXrXiXiXiXiXiXiXiXiXiXiXiXiXiXiXiXiXiXiXiX",
"iXiXiXiXiXiXiXiXiXiXiXiXiXiXiXiXiXiXiXiXiXiXiXiXiXiXiXiXiXiXiXiXiXiXiXiXiXiXiXiXiXiXiXiXiXiX",
"iXiXiXiXiXiXiXiXiXiXiXiXiXiXiXiXiXiXiXiXiXiXiXiXiXiXiXiXiXiXiXiXiXiXiXiXiXiXiXiXiXiXiXiXiXiX",
"iXiXiXiXiXiXiXiXiXiXiXiXiXiXiXiXiXiXiXiXiXiXiXiXiXiXiXiXiXiXiXiXiXiXiXiXiXiXiXiXiXiXiXiXiXiX",
"iXiXiXiXiXiXiXiXiXiXiXiXiXiXiXiXiXiXiXiXiXiXiXiXiXiXiXiXiXiXiXiXiXiXiXiXiXiXiXiXiXiXiXiXiXiX",
"iXiXiXiXiXiXiXiXiXiXiXiXiXiXiXiXiXiXiXiXiXiXiXiXiXiXiXiXiXiXiXiXiXiXiXiXiXiXiXiXiXiXiXiXiXiX",
"iXiXiXiXiXiXiXiXiXiXiXiXiXiXiXiXiXiXiXiXiXiXiXiXiXiXiXiXiXiXiXiXiXiXiXiXiXiXiXiXiXiXiXiXiXiX",
"iXiXiXiXiXiXiXiXiXiXiXiXiXiXiXiXiXiXiXiXiXiXiXiXiXiXiXiXiXiXiXiXiXiXiXiXiXiXiXiXiXiXiXiXiXiX"
};
