/* XPM */
static char *_573e252e3054355d893f745a6c1c3c6rgb5DAmUel1Mumrq[] = {
/* columns rows colors chars-per-pixel */
"60 60 233 2 ",
"   c #010302",
".  c #010B01",
"X  c #05000A",
"o  c #09010C",
"O  c #0A0505",
"+  c #021402",
"@  c #021C00",
"#  c #0B1707",
"$  c #141515",
"%  c #101110",
"&  c #042301",
"*  c #042B02",
"=  c #092B05",
"-  c #0E2D0D",
";  c #0E2109",
":  c #11270C",
">  c #043302",
",  c #0A3206",
"<  c #033C01",
"1  c #0A3C05",
"2  c #0D330B",
"3  c #083C09",
"4  c #12380D",
"5  c #0F2910",
"6  c #182619",
"7  c #163A10",
"8  c #1A3918",
"9  c #0D3614",
"0  c #203D1E",
"q  c #034300",
"w  c #044B01",
"e  c #0A4B04",
"r  c #0D450A",
"t  c #0E4C0D",
"y  c #084607",
"u  c #11440D",
"i  c #114A0E",
"p  c #0B5403",
"a  c #0B5707",
"s  c #14530D",
"d  c #0D4C14",
"f  c #1A4215",
"g  c #1D461A",
"h  c #1E4B1B",
"j  c #174915",
"k  c #155513",
"l  c #1A5515",
"z  c #1C5A16",
"x  c #1C551A",
"c  c #1E5A1B",
"v  c #145A11",
"b  c #224B1E",
"n  c #20471B",
"m  c #22531D",
"M  c #225D1D",
"N  c #205716",
"B  c #13640C",
"V  c #1E6219",
"C  c #196715",
"Z  c #24631C",
"A  c #26681E",
"S  c #23721E",
"D  c #1D5922",
"F  c #254C21",
"G  c #245323",
"H  c #2A5426",
"J  c #255C23",
"K  c #295D25",
"L  c #2E552A",
"P  c #2C5A2B",
"I  c #275B2A",
"U  c #315D2D",
"Y  c #32542C",
"T  c #355333",
"R  c #3A5B37",
"E  c #2A6524",
"W  c #2C632A",
"Q  c #296627",
"!  c #32652D",
"~  c #356328",
"^  c #31742B",
"/  c #356434",
"(  c #396233",
")  c #3D633A",
"_  c #3E6B3A",
"`  c #366B32",
"'  c #3A7136",
"]  c #3B7536",
"[  c #277220",
"{  c #41673B",
"}  c #41793D",
"|  c #464747",
" . c #475E46",
".. c #456C42",
"X. c #4C6D4A",
"o. c #496747",
"O. c #4A7746",
"+. c #546753",
"@. c #5E745C",
"#. c #597856",
"$. c #526C4F",
"%. c #61795A",
"&. c #677E5A",
"*. c #696C69",
"=. c #6D7D6B",
"-. c #677966",
";. c #71786D",
":. c #757672",
">. c #5A8355",
",. c #5C8C59",
"<. c #4D8849",
"1. c #65845E",
"2. c #63945D",
"3. c #698768",
"4. c #71826E",
"5. c #738B6C",
"6. c #6A9867",
"7. c #749B6F",
"8. c #748C72",
"9. c #7D8A7A",
"0. c #7A8778",
"q. c #799577",
"w. c #6D8E73",
"e. c #7FA37D",
"r. c #858D7B",
"t. c #83967B",
"y. c #80AA7E",
"u. c #7C8980",
"i. c #868B86",
"p. c #849183",
"a. c #8A9486",
"s. c #8E9B8C",
"d. c #8A9789",
"f. c #929989",
"g. c #949C92",
"h. c #9E9E9D",
"j. c #969796",
"k. c #929396",
"l. c #88A587",
"z. c #96A68E",
"x. c #93A492",
"c. c #9CA29C",
"v. c #9DAB9B",
"b. c #97A795",
"n. c #9EB39B",
"m. c #9CB99A",
"M. c #92B58D",
"N. c #A2A79C",
"B. c #A1B99F",
"V. c #9FA4A0",
"C. c #AAADA7",
"Z. c #ABACAC",
"A. c #A5A8A3",
"S. c #ACB4AB",
"D. c #ABBAAA",
"F. c #A6B6A4",
"G. c #B1BAAE",
"H. c #B4B4B4",
"J. c #B3BDB1",
"K. c #BABBB6",
"L. c #BDBDBB",
"P. c #B7B5B9",
"I. c #C2BCBC",
"U. c #A8C2A8",
"Y. c #B5C2B4",
"T. c #B9C4B5",
"R. c #BCC4BB",
"E. c #BBCCB9",
"W. c #BFD1BD",
"Q. c #C1C6BF",
"!. c #C2CBBE",
"~. c #BEBDC2",
"^. c #C5BEC6",
"/. c #BCC2C0",
"(. c #C3C4C2",
"). c #C8C4C5",
"_. c #C5CBC3",
"`. c #CCC4CC",
"'. c #CCCCCB",
"]. c #C8CBC8",
"[. c #C5D1C4",
"{. c #CCD4CB",
"}. c #CCDACB",
"|. c #C8D5C6",
" X c #D1D8CE",
".X c #CECDD2",
"XX c #D4CCD3",
"oX c #D4D4D3",
"OX c #D5DAD4",
"+X c #D8DCD6",
"@X c #DCDCDB",
"#X c #D8D6DB",
"$X c #CCD2D0",
"%X c #E1D7DF",
"&X c #D6E1D5",
"*X c #DDE2DC",
"=X c #DBE6D8",
"-X c #E0E1DE",
";X c #E1E9DE",
":X c #DFDEE6",
">X c #DEE5E4",
",X c #E4E4E4",
"<X c #E5EBE4",
"1X c #E9EBE7",
"2X c #E4EBEB",
"3X c #ECECEC",
"4X c #E8E5E9",
"5X c #EDF2EC",
"6X c #E7F2E5",
"7X c #F1F1EF",
"8X c #F0FAEF",
"9X c #EEEDF1",
"0X c #E7EAF1",
"qX c #F2EDF3",
"wX c #F5EDF8",
"eX c #ECF4F3",
"rX c #EEF9F8",
"tX c #F5F5F5",
"yX c #F9F4F5",
"uX c #F6FAF4",
"iX c #F8F9F6",
"pX c #F6F5F9",
"aX c #F9F6FB",
"sX c #F7F8FC",
"dX c #F6FAF9",
"fX c #F8F8F8",
"gX c #F9F9F9",
"hX c gray98",
"jX c #FBFBFB",
"kX c #FAF9F9",
"lX c #FAFAFD",
"zX c #FDFDFD",
"xX c #FAFAFA",
/* pixels */
"hXhXhXhXhXhXhXhXhXhXhXhXhXhXhXhXfXfXfXfXfXfXfXfXhXfXhXhXhXhXhXhXfXfXfXfXfXfXhXhXhXfXhXfXfXfXfXfXhXhXhXhXhXhXhXhXfXtXtXfX",
"hXhXhXhXhXhXhXhXhXhXhXhXhXhXhXhXfXfXfXfXfXfXfXfXfXfXfXhXhXhXhXhXfXfXfXfXfXhXhXhXhXhXhXfXfXfXfXfXhXhXhXhXhXhXhXhXzXjXhXjX",
"hXhXhXhXhXhXhXhXhXhXhXhXhXhXhXhXfXfXfXfXfXfXfXfXfXfXfXhXhXhXhXhXhXfXhXfXhXhXhXhXfXfXfXfXfXfXfXhXhXhXhXhXhXhXhXhXhXhXjXhX",
"hXhXhXhXhXhXhXhXhXhXhXhXhXhXhXhXfXfXfXfXfXfXfXfXfXfXfXhXhXfXfXfXfXhXfXhXhXhXhXhXfXfXfXfXhXfXhXhXhXhXhXhXhXhXhXhXfXfXfXfX",
"hXhXhXhXhXhXhXhXhXhXhXhXhXhXhXhXfXfXfXfXfXfXfXfXhXhXhXhXfXfXtXtXfXfXfXhXhXhXhXhXfXfXfXfXfXfXhXhXhXhXhXhXhXhXhXhXhXhXhXhX",
"hXhXhXhXhXhXhXhXhXhXhXhXhXhXhXhXfXfXfXfXfXfXfXfXhXhXhXfXfXfXtXtXtXfXfXfXyXfXhXpXtXfXfXfXfXfXhXhXhXhXhXhXhXhXhXhXhXhXhXjX",
"hXhXhXhXhXhXhXhXhXhXhXhXhXhXhXhXfXfXfXfXfXfXfXfXfXfXfXfXfXfXtXfXtXfXtXfXpXfXfXfXtXtXfXfXhXhXhXhXhXhXhXhXhXhXhXhXhXhXhXhX",
"hXhXhXhXhXhXhXhXhXhXhXhXhXhXhXhXfXfXfXfXfXfXfXfX7XeXfXfXiXhXhXpXtXtXtXtXfXfXfXtXfXtXfXfXfXhXhXhXhXhXhXhXhXhXhXhXzXjXhXjX",
"hXhXhXhXhXhXhXhXiXfXfXfXhXfXhXhXhXhXhXhXhXhXjXhXyXfXtX5X3XtXfXhXzXfX3X3X3XpXfXtXzXjXfX3XfXzXjXfXhXzXhXfXfXfXfXfXfXfXfXfX",
"hXhXhXhXhXhXhXhXhXfXfXfXfXfXhXfXhXhXhXfXhXhXhXhXzXjXzXhXhXfXtX3X3XtXhXfX3X3X5XhXtXtXfXtXtXfXyXfXhXzXhXfXfXhXhXfXjXzXzXzX",
"hXhXhXhXhXhXhXhXfXhXfXfXfXfXfXfXfXfXfXtXfXfXtXtXtXtXtXtXiXhXhXfXtX3XtXtXfX5X3X3X3X3XfXhXfXtXtXhXhXhXhXfXtXhXhXfXtXfXfXfX",
"hXhXhXhXhXhXhXhXhXhXfXhXfXfXfXfXtXfXfXtXtXtXtXtX3X3X4X4X3X3X9X3XpX3X3X3X7XqX3X4X3X3X3XfXfXtXtXhXhXhXhXfXfXhXhXfXhXhXhXhX",
"hXhXhXhXhXhXhXhXhXhXhXfXfXfXyXfXfXfXfXfXhXpXfXtXjXfXtX0X4X@X#X#X@X3XqX3X,X>X4X3X1X,X,X3X7X7XqXtXfXhXfXtXtXfXjXhXhXhXhXhX",
"hXhXhXhXhXhXhXhXfXhXfXhXfXfXfXfXfXhXhXhXfXyXtXtXtXtXtXtXtX1X4X-X'.$XOX,X,X,X@X@X,X,X,X,X3XtXfX7XfXfXfXtXtXhXhXfXtXfXtXfX",
"hXhXhXhXhXhXhXhXfXiXhXfXfXhXhXfXfXfXhXfXeX3X1X,XoX.XoXoXOX+X+X@X'./.H.L.oX@X#X].'.@X:X@X,XtXyX3XtXfXfXtXtXhXhXfXjXzXzXzX",
"hXiXhXhXhXhXlXlXpXpXpXfXhXfXfXhXtXfXqX3X<X*XOXOX/.K.F.c.c.c.A.S.[.T.D.F.S.L._.'.H..X@XXX#X1X7X-XtXfXfXtXtXiXhXfXfXfXhXfX",
"uXuXyXiXpXsXsXsXlXjXjXlXjXjXyXqXqXwXqX4X3X6X=X|./.W.U.m.m.M.t.5.>.7.u.6.y.m.l.Y..Xj.^.^.%X^.1X-X+XtXzX7X1XfXzXfXhXhXlXlX",
"iXuXiXuXfXpXsXsXlXlXjXaXyXyXyX7XaXwXqX:X{.W.F.M.6.6.#.X.O.X.X...<.] ,.2.2.6.d.w.V.P.k.XX`.Q. X-X{.5XzX7X1XtXhXiXfXfXfXfX",
"uXiXfXfXhXpXsXsXaXlXfXtXyXkXyXtXtX6X*X_.D.l.8.#..._ R H G L R _ ' ' Q <.^ ' 7.3.:.S.i.~.K.Q.S.;X!.-XiXyX3X7XfXhXfXtXpXpX",
"iXiXfXfXpXlXsXsXaXaXpXfXyXjXtX5X&X|.Y.b.q.1.X.) P P H F n g F F H ' W ! ] [ _ 6.@.4.v.u.F.T.x.&X'.-X3XtX7X7XfXhXhXhXlXsX",
"iXuXyXiXhXfXsXsXwXsXlXsXhXfX1X=XW.U.d.,.o.Y b n h f 7 4 4 2 = = 2 j I K ' W i ` <.O.M.3.M.n.x.E.{.*X1X7X3X7XtXtXfXfXpXpX",
"iXuXiXyXpXpXlXsXpXsXlXlXdX5X&X!.m.e.>._ H g f f 4 , & @ @ @ @ + & . 2 g j ` K z ] O.>.7.7.t.F.v.Q.oX1X1X3X7XfXtXfXfXhXfX",
"iXiXiXiXfXlXsXlXfXhXpXtX5X=X[.D.e.,./ H b f 7 7 & @ . . . . . . + . . @ & h ! M E ] Q 2.6.3.x.f.N.'.3X1X<X7XhXfXjXhXjXjX",
"iX8XiXiXfXpXlXpXhXfXtX5X>X&XR.n.6.O.H h 8 4 & @ @ + + . . .     . $   . @ @ 1 k Z A A } 3.5.4.j.f.Q.7X3X,XtXjXfXfXpXpXpX",
"8XiXuXhXhXlXfXfXyXzX7X7X X}.x.d...W G f 2 & # ; . .                 X .   . * x s Z ^ W #.@.u.:.*.).3X@X1XyXyXyXzXzXzXlX",
"iX8XuXhXhXhXaXlXiX7XuX;X&XD.v.3./ P h 2 & @ # .         X X X X o o o o     & 4 Z V l x ,. .0.| r.I.-X-X,X7X7XjXfXfXfXtX",
"uXuXfXdXaXaXaXaXyX7X7X=X|.v.x.X.P W h = & : #         o o o X X o o o o o   + @ J Z q c #.T *.| h.I.XX-X,X3XyXiXjXzXjXlX",
"uXuXfXfXkXaXaXyX7XiX-X&XY.D.3.) I J g , = : #   O O o o o X X X o   o o o     + j A q ] D T +.*.C.I.oX-X-X3XhXfX9XtXfXfX",
"dXuXhXjXkXaXaXyX7XiX+X!./.Y.o.) D d < > = @ .     O X X X X X X       o o X % & u v p ^ t /  .p.h.I.+X@X@X7XzX7XtXeXtXpX",
"dXfXfXjXaXaXyXyXyX3X-XY.}.x.o.) x w < < , @ . .         X X X     .   o o % 6 0 m w C B k ! o.u.g.K.oXoX-X7XfX3XyXyXlXzX",
"rXuXjXkXaXyXyXyXyX5X X}./.3.1.P k a y < , = # # O           . . . .     o % 6 0 N p B a Z ^ #.8.N.R._.'.4X7X3XtXeXtXtXhX",
"dXdXkXlXaXyXyXyX7XuXY.dXB.$.8.G t v k < > , , # ; # . .         . .       % 5 4 i C a S V ` >.5.G.Q.K.'.tXtX1XzXfXlXlXzX",
"jXpXlXfXfXfXuXiXuX=X;X6Xl.8.-.Y j Q r < 2 h * & 8 5 +     X   X   O O   + @ 9 h D Q D x ! { &.G.N.C.).3XfX3X3XhXfXfXfXfX",
"lXlXlXfXfXuXiXuX5X;X6X=Xa.t.=.T b J < u 3 h * , f - @ . . . % $ o % . . . @ 3 d D d D P Y &.N.r.h.^.@X,X3XhXzXtXhXhXhXhX",
"fXaXfXlXfXfXuXuX6X6X8X}.a.x.9.T m x < l r x > u j 4 & @ + # # # # ; : - , 3 y i d D I ) &.r.r.r.S.OX3X*X4XzXzX3XhXhXhXhX",
"lXlXaXfXhXiXuXuX<X8XuX}.x.N.s.R m c < Z e M < i < 3 , = - 5 9 = , 1 u l l k z l d ` ) $.5.;.:.N.oX#X4XtXtXtXtXfXfXfXfXfX",
"lXaXfXkXlXkXuX7X6XuXdX|.v.F.b.o.m c e z w Z e q < < 1 r f g b h s p p w w w s N } U o.@.+.:.Z.^.,X#X4XiXhX3X7XzXhXhXhXhX",
"lXaXaXlXjXjXtX7X5XuXhX{.G.J.A.%.H M l z t z s < k t r r r j h G Z C C a p p s N ( ..#.-.r.A.XX#X@X4X3X7XfXhXhXhXfXhXfXhX",
"lXlXaXfXjXzXfX5XuX8XhX}.|.R.J.q...J W W M N c y E M l r u u h c B C S [ A Z ~ ( { 5.q.a./.oX`.:X:X3XtX3X3XzXzXfXfXfXfXhX",
"jXlXyXfXzXjXtX5XiX8XuX*X*X[.Q.x.3.U { { { m K j K K J m m H U ! s v V V Z ! } &.t.5.v././.`.,X0X3XtXfXfXfXhXfXeXzXzXzXhX",
"hXhXhXhXhXhXhXhXzX5XuXuXOX&XOXF.u.#.#.3...R R P H ( ) ) R ) ) ..../ P U { %.5.r.z.N.G.Q.'.+X>X>XtXtXdXtXpXfXfXfXtXfXfXfX",
"hXhXhXhXhXhXiXhXzX5XfX8X*X*X,XL.d.9.=.=.-.$.R o.T { R T #.q.3.R w.3.3.-.4.r.a.f.N.C.I.{.*X1XrXrXdXtXpXfXfXfXfXfXhXhXhXhX",
"hXhXhXhXhXhXjXfXzX7XfXtX,X3X3XoXV.A.a.:.p.4.+.@.o.@.@.#. . .=.x.u.u.s.h.C.H.I.).'.XX%X-X2XeXrXrXtXtXfXtXfXfXfXfXhXhXhXhX",
"hXhXhXhXhXhXjXfXhXtXfXtX3XeXtX4XP.P.h.d.g.p.=.=.-.@.=.p.9.*.;.a.Z.~.^.^.).`.XX#X1X3X7XyXrXeXeXeXtXtXfXfXfXfXfXfXfXfXfXfX",
"hXhXhXhXfXjXjXjXhXfXaXyX3XtXpXqX'.L.H.Z.c.g.s.9.0.0.4.9.s.v.h.i.k.h.Z.P.^..X4XqX:X4X9X9XeX9XrXtXtXfXfXfXfXfXfXfXhXhXhXhX",
"hXhXhXhXjXjXfXjXhXhXaXqXtXtXqXtX4X).'.'.S.S.G.c.c.s.k.a.i.g.C.L.P.R.P.~.L.L.)..X4X0X9X9XtXaXsXsXpXtXfXtXfXfXfXfXfXhXhXhX",
"iXhXhXiXjXfXjXfXfXjXlXaXlXtXqXfXtX@XOX*X{.R.T.E.Y.v.c.Y.(.S.C.S.R.!.{.OX=X<X2XeX9XrXsXaXwXaXwXaXtXfXfXtXfXfXfXfXfXfXfXfX",
"hXiXhXhXjXfXjXjXaXjXlXlXjXfXqXlXtXtX,X*X1X].Y.=X!.[._.T.R.{.{.(.K.!.}.&X=X>X>X>X4X0X0X9X9XwXwXwXtXtXfXfXfXfXfXfXzXzXzXzX",
"hXhXhXhXhXhXhXhXjXjXhXhXhXhXfXfXzXtX3X1X3X1X*XOX+XOXOXoXOXOX+X*X*X+XOXoXoX@X4X1X3X3X9X9XtXtXpXhXhXhXhXhXhXhXhXhXfXtXtXfX",
"hXhXhXhXhXhXhXhXhXhXhXhXfXhXfXfXfXtX3X3X3X3X4X,X4X,X,X,X,X:X,X4X3X1X4X1X1X3X5XtXtX3XtXtXfXpXhXhXhXhXhXhXhXhXhXhXjXhXhXjX",
"hXhXhXhXhXhXhXhXhXhXhXhXhXfXhXfXfXtXtXtXtXeXtX9X3XtX3X3X3X3X3X3X3X3X7XqXtXtXtXtXtXtXtXfXfXhXlXzXhXhXhXhXhXhXhXhXtXtXtXtX",
"hXhXhXhXhXhXhXhXhXhXhXhXfXhXfXhXtXtXfXtXtXtXfXfXtXtXfXtXtXqX7X3X3X3X3XtX7XtX3XtXtXtXfXfXfXhXhXjXhXhXhXhXhXhXhXhXzXjXhXhX",
"hXhXhXhXhXhXhXhXhXfXhXfXhXhXhXhXtXfXhXfXtX7XfXyXtXfXfXfXtXtXtX3XtX3XtXtXtXtXfXfXfXfXfXfXhXhXiXhXhXhXhXhXhXhXhXhXhXhXjXhX",
"hXhXhXhXhXhXhXhXfXhXfXhXhXhXhXhXfXhXhXfXtXtXfXfXfXfXfXfXfXfXtXtXfXfXtXtXfXfXhXhXfXfXfXfXfXfXfXfXhXhXhXhXhXhXhXhXtXfXfXtX",
"hXhXhXhXhXhXhXhXfXfXhXhXhXhXhXhXfXfXfXfXfXfXfXfXfXhXhXhXhXfXhXfXfXtXtXtXtXfXfXpXhXhXhXfXfXfXfXfXhXhXhXhXhXhXhXhXhXjXhXhX",
"hXhXhXhXhXhXhXhXfXfXfXhXhXhXhXhXfXfXfXfXfXfXfXfXfXfXfXfXhXfXfXhXtXtXfXhXpXhXhXiXhXhXhXhXhXfXfXfXhXhXhXhXhXhXhXhXtXtXfXfX",
"uXhXhXhXfXhXhXjXfXzXfXhXjXfXzXfXhXhXfXfXhXzXhXfXhXtXzXfXfXzXtXzXfXhXfXhXhXhXhXhXiXhXhXhXfXhXhXzXfXzXtXhXhXtXzXtXjXfXfXzX",
"iXhXhXhXhXfXhXjXfXzXfXjXhXtXzXfXhXhXfXhXhXhXhXhXzXfXhXfXfXzXtXhXfXfXhXfXhXhXhXhXpXhXhXhXhXhXhXhXtXhXfXhXhXtXzXfXhXfXtXhX",
"fXfXhXhXfXhXhXjXfXzXtXhXhXfXjXfXhXhXfXfXhXhXhXfXhXtXzXfXfXzXfXhXfXhXfXhXhXhXhXhXfXiXhXhXhXpXhXjXfXzXtXhXhXtXjXtXhXtXtXfX",
"fXhXhXhXhXhXhXhXfXzXfXjXhXfXzXfXhXfXfXhXhXhXhXfXhXfXzXfXfXhXfXzXfXfXhXfXhXhXhXhXfXhXhXhXhXhXhXhXtXhXtXhXhXtXzXtXjXfXfXhX"
};
