/* XPM */
static char *_2025_9556d5d6a40ca0ac840bd2aa14d1aaeb73f3d8efe4c68e4d59b99bddd0141a24[] = {
/* columns rows colors chars-per-pixel */
"45 61 115 2 ",
"   c #6F4D33",
".  c #6F4E34",
"X  c #704E34",
"o  c #795539",
"O  c #7A563A",
"+  c #8B6A3F",
"@  c #8C6A3F",
"#  c #886142",
"$  c #8A6343",
"%  c #8D6B40",
"&  c #8E6C40",
"*  c #906D41",
"=  c #916D43",
"-  c #906E42",
";  c #916E42",
":  c #916F42",
">  c #926E43",
",  c #926F43",
"<  c #926E44",
"1  c #936E44",
"2  c #927043",
"3  c #937043",
"4  c #937044",
"5  c #937144",
"6  c #947144",
"7  c #957245",
"8  c #977446",
"9  c #987148",
"0  c #987248",
"q  c #997248",
"w  c #997249",
"e  c #9B734A",
"r  c #9B744A",
"t  c #9C744A",
"y  c #9C744B",
"u  c #9C754B",
"i  c #9D754B",
"p  c #9F764D",
"a  c #9C7849",
"s  c #9C784A",
"d  c #A0774D",
"f  c #A3794F",
"g  c #A17C4D",
"h  c #A57F4F",
"j  c #A47950",
"k  c #A47A51",
"l  c #A57A51",
"z  c #A67A52",
"x  c #A67B52",
"c  c #A77B52",
"v  c #A87C53",
"b  c #A97D54",
"n  c #AA7D54",
"m  c #AA7D55",
"M  c #AC7E56",
"N  c #AD7F56",
"B  c #AD7F57",
"V  c #A5804F",
"C  c #A58050",
"Z  c #AE8058",
"A  c #AF8058",
"S  c #B08058",
"D  c #B08159",
"F  c #B18159",
"G  c #B0815A",
"H  c #B1835B",
"J  c #B48D5A",
"K  c #B58E5A",
"L  c #B68E5B",
"P  c #B78F5C",
"I  c #BA915D",
"U  c #BB935E",
"Y  c #BC935E",
"T  c #BC935F",
"R  c #B58760",
"E  c #B78962",
"W  c #BB8D67",
"Q  c #BE9560",
"!  c #BE9660",
"~  c #BE906A",
"^  c #BE906B",
"/  c #C19762",
"(  c #C29963",
")  c #C39A64",
"_  c #C59B64",
"`  c #C69C66",
"'  c #CA9F68",
"]  c #C29570",
"[  c #C99C79",
"{  c #CAA068",
"}  c #CBA068",
"|  c #CBA069",
" . c #CBA169",
".. c #CCA169",
"X. c #CCA26A",
"o. c #CDA26A",
"O. c #CDA36A",
"+. c #CFA46C",
"@. c #D0A56C",
"#. c #D1A56C",
"$. c #D5A970",
"%. c #D6AA70",
"&. c #D7AB70",
"*. c #D7AB71",
"=. c #D8AB71",
"-. c #D8AC71",
";. c #CFA380",
":. c #D3A785",
">. c #E4BA9B",
",. c #ECC2A5",
"<. c #F2C9AD",
"1. c #F3CAAE",
"2. c #F9D0B5",
"3. c #FFD9BF",
"4. c #FFDAC0",
/* pixels */
"X X                                                                                   . X ",
"X o # # # # # # # # # # # # # # # # # # # # # # # # # # # # # # # # # # # # # # # # # O X ",
"  # D D D D D D D D D D D D D D D D D D D D D D D D D D D D D D D D D D D D D D D D D $   ",
"  # D D D D D D D D D D D D D D D D D D D D D D D D D D D D D D D D D D D D D D D D D $   ",
"  # D D D D D D D D D D D D D D D D D D D D D D D D D D D D D D D D D D D D D D D D D $   ",
"  # D D D D D D D D D D D D D D D D D D D D D D D D D D D D D D D D D D D D D D D D D $   ",
"  # D D D D z y y y y y y y y y y y i n D D D D D m i y y y y y y y y y y y l D D D D $   ",
"  # D D D D u + ; , , , , , , , , - @ j F D D D F l @ * , , , , , , , , : @ r D D D D $   ",
"  # D D D D y ; /  .} } } } } } ..L % j F D D D F l % J ..} } } } } }  .( , r D D D D $   ",
"  # D D D D y , | =.&.&.&.&.&.&.-.! % j F D D D F l % T -.&.&.&.&.&.&.*.o.4 e D D D D $   ",
"  # D D D D y , { *.%.%.%.%.%.%.*.Q % j F D D D F l % U *.%.%.%.%.%.%.&...4 e D D D D $   ",
"  # D D D D y , { *.%.%.%.%.%.%.*.Q % j F D D D F l % U *.%.%.%.%.%.%.&...4 e D D D D $   ",
"  # D D D D y , { *.%.%.%.%.%.%.*.Q % j F D D D F l % U *.%.%.%.%.%.%.&...4 e D D D D $   ",
"  # D D D D y , { *.%.%.%.%.%.%.*.Q % j F D D D F l % U *.%.%.%.%.%.%.&...4 e D D D D $   ",
"  # D D D D y , { *.%.%.%.%.%.%.*.Q % j F D D D F l % U *.%.%.%.%.%.%.&...4 e D D D D $   ",
"  # D D D D y , { *.%.%.%.%.%.%.*.Q % j F D D D F l % U *.%.%.%.%.%.%.&...4 e D D D D $   ",
"  # D D D D y , { *.%.%.%.%.%.%.*.Q % j F D D D F l % U *.%.%.%.%.%.%.&...4 e D D D D $   ",
"  # D D D D y , { *.%.%.%.%.%.%.*.Q % j F D D D F l % U *.%.%.%.%.%.%.&...4 e D D D D $   ",
"  # D D D D y , { *.%.%.%.%.%.%.*.Q % j F D D D F l % U *.%.%.%.%.%.%.&...4 e D D D D $   ",
"  # D D D D y , { *.%.%.%.%.%.%.*.Q % j F D D D F l % U *.%.%.%.%.%.%.&...4 e D D D D $   ",
"  # D D D D y , { *.%.%.%.%.%.%.*.Q % j F D D D F l % U *.%.%.%.%.%.%.&...4 e D D D D $   ",
"  # D D D D y , { *.%.%.%.%.%.%.*.Q % j F D D D F l % U *.%.%.%.%.%.%.&...4 e D D D D $   ",
"  # D D D D y , { *.%.%.%.%.%.%.*.Q % j F D D D F l % U *.%.%.%.%.%.%.&...4 e D D D D $   ",
"  # D D D D y , { *.%.%.%.%.%.%.*.Q % j F D D D F l % U *.%.%.%.%.%.%.&...4 e D D D D $   ",
"  # D D D D y , { *.%.%.%.%.%.%.*.Q % j F D D D F l % U *.%.%.%.%.%.%.&...4 e D D D D $   ",
"  # D D D D y , { *.%.%.%.%.%.%.*.Q % j F D D D F l % Y *.%.%.%.%.%.%.&...4 e D D D D $   ",
"  # D D D D y , ' %.$.$.$.$.$.$.&.Q % j F D D D F l % U &.$.$.$.$.$.$.%. .4 e D D D D $   ",
"  # D D D D y % g V h h h h h h V s @ j F D D D F l @ a C h h h h h h h g & r D D D D $   ",
"  # D D D D d > = = = = = = = = = = < x F D D D D c 1 = = = = = = = = = = = p D D D D $   ",
"  # D D D D Z B B B B B B B B B B B B A D D D D D A B B B B B B B B B B B M N A D D D $   ",
"  # D D D D D D D D D D D D D D D D D D D D D D D D D D D D D D D D D D D ~ :.] D D D $   ",
"  # D D D D D D D D D D D D D D D D D D D D D D D D D D D D D D D D D D R ,.3.1.W A D $   ",
"  # D D D D D D D D D D D D D D D D D D D D D D D D D D D D D D D D D S E <.4.2.^ A D $   ",
"  # D D D D D D D D D D D D D D D D D D D D D D D D D D D D D D D D D D D [ >.;.H D D $   ",
"  # D D D D D D D D D D D D D D D D D D D D D D D D D D D D D D D D D D D A G A D D D $   ",
"  # D D D D j 0 0 9 0 0 0 0 0 0 9 0 q v D D D D D b w 0 9 0 0 0 0 0 0 9 0 0 f D D D D $   ",
"  # D D D D y @ 7 8 8 8 8 8 8 8 8 4 @ j F D D D F l @ 3 8 8 8 8 8 8 8 8 7 @ r D D D D $   ",
"  # D D D D y : _ @.+.+.+.+.+.+.#.I % j F D D D F l % P #.+.+.+.+.+.+.@.` 3 r D D D D $   ",
"  # D D D D y , } *.%.%.%.%.%.%.=.Q % j F D D D F l % T =.%.%.%.%.%.%.*.X.4 e D D D D $   ",
"  # D D D D y , { *.%.%.%.%.%.%.*.Q % j F D D D F l % U *.%.%.%.%.%.%.&...4 e D D D D $   ",
"  # D D D D y , { *.%.%.%.%.%.%.*.Q % j F D D D F l % U *.%.%.%.%.%.%.&...4 e D D D D $   ",
"  # D D D D y , { *.%.%.%.%.%.%.*.Q % j F D D D F l % U *.%.%.%.%.%.%.&...4 e D D D D $   ",
"  # D D D D y , { *.%.%.%.%.%.%.*.Q % j F D D D F l % U *.%.%.%.%.%.%.&...4 e D D D D $   ",
"  # D D D D y , { *.%.%.%.%.%.%.*.Q % j F D D D F l % U *.%.%.%.%.%.%.&...4 e D D D D $   ",
"  # D D D D y , { *.%.%.%.%.%.%.*.Q % j F D D D F l % U *.%.%.%.%.%.%.&...4 e D D D D $   ",
"  # D D D D y , { *.%.%.%.%.%.%.*.Q % j F D D D F l % U *.%.%.%.%.%.%.&...4 e D D D D $   ",
"  # D D D D y , { *.%.%.%.%.%.%.*.Q % j F D D D F l % U *.%.%.%.%.%.%.&...4 e D D D D $   ",
"  # D D D D y , { *.%.%.%.%.%.%.*.Q % j F D D D F l % U *.%.%.%.%.%.%.&...4 e D D D D $   ",
"  # D D D D y , { *.%.%.%.%.%.%.*.Q % j F D D D F l % U *.%.%.%.%.%.%.&...4 e D D D D $   ",
"  # D D D D y , { *.%.%.%.%.%.%.*.Q % j F D D D F l % U *.%.%.%.%.%.%.&...4 e D D D D $   ",
"  # D D D D y , { *.%.%.%.%.%.%.*.Q % j F D D D F l % U *.%.%.%.%.%.%.&...4 e D D D D $   ",
"  # D D D D y , | *.&.&.&.&.&.&.-.! % j F D D D F l % T -.&.&.&.&.&.&.*.X.4 e D D D D $   ",
"  # D D D D y ; ( o.X.X.X.X.X.X.o.P % j F D D D F l % K O.X.X.X.X.X.X.o.) , r D D D D $   ",
"  # D D D D y @ 2 6 5 5 5 5 5 5 6 ; @ j F D D D F l @ ; 6 5 5 5 5 5 5 6 2 @ r D D D D $   ",
"  # D D D D l r e e e e e e e e e e t b D D D D D m t r e e e e e e e e e r k D D D D $   ",
"  # D D D D D D D D D D D D D D D D D D D D D D D D D D D D D D D D D D D D D D D D D $   ",
"  # D D D D D D D D D D D D D D D D D D D D D D D D D D D D D D D D D D D D D D D D D $   ",
"  # D D D D D D D D D D D D D D D D D D D D D D D D D D D D D D D D D D D D D D D D D $   ",
"  # D D D D D D D D D D D D D D D D D D D D D D D D D D D D D D D D D D D D D D D D F $   ",
". O $ $ $ $ $ $ $ $ $ $ $ $ $ $ $ $ $ $ $ $ $ $ $ $ $ $ $ $ $ $ $ $ $ $ $ $ $ $ $ $ $ O . ",
"X X                                                                                   . X "
};
