/* XPM */
static char *result[] = {
/* columns rows colors chars-per-pixel */
"45 45 218 2 ",
"   c #35150F",
".  c #322222",
"X  c #580B0A",
"o  c #5F1C14",
"O  c #7B0809",
"+  c #7A1411",
"@  c #6B0B0A",
"#  c #552415",
"$  c #46281D",
"%  c #682D1A",
"&  c #6D351A",
"*  c #653117",
"=  c #78381C",
"-  c #462C26",
";  c #5A3528",
":  c #4A3037",
">  c #663928",
",  c #7B3B27",
"<  c #683331",
"1  c #6C412F",
"2  c #7A4328",
"3  c #6C4333",
"4  c #644333",
"5  c #784937",
"6  c #0A1E5C",
"7  c #0F225B",
"8  c #081F67",
"9  c #0C2266",
"0  c #182A69",
"q  c #0A2274",
"w  c #0C277C",
"e  c #152C79",
"r  c #273872",
"t  c #233270",
"y  c #2A315B",
"u  c #463A5F",
"i  c #663048",
"p  c #4B3668",
"a  c #653776",
"s  c #5A575A",
"d  c #684641",
"f  c #79635E",
"g  c #534D68",
"h  c #786C73",
"j  c #777678",
"k  c #6F6B6D",
"l  c #870707",
"z  c #990404",
"x  c #9B1C1C",
"c  c #941618",
"v  c #8D1412",
"b  c #A30606",
"n  c #B80608",
"m  c #AA1614",
"M  c #B7181D",
"N  c #BF0A14",
"B  c #803E1F",
"V  c #8A1D2D",
"C  c #AA1829",
"Z  c #992624",
"A  c #8E3834",
"S  c #A92525",
"D  c #B43029",
"F  c #C60506",
"G  c #DC0A0B",
"H  c #D40909",
"J  c #D51115",
"K  c #E70A0B",
"L  c #F70F0E",
"P  c #E81214",
"I  c #FD1313",
"U  c #F61315",
"Y  c #F10F10",
"T  c #EA201D",
"R  c #D71C24",
"E  c #FB1E23",
"W  c #EC1D27",
"Q  c #D32C30",
"!  c #EB2524",
"~  c #FC2728",
"^  c #F93539",
"/  c #F13A37",
"(  c #874528",
")  c #9C543A",
"_  c #855031",
"`  c #A4583B",
"'  c #BE653A",
"]  c #AF4417",
"[  c #A71E45",
"{  c #832557",
"}  c #AA2A57",
"|  c #A5234A",
" . c #F43C40",
".. c #E83B41",
"X. c #895144",
"o. c #965545",
"O. c #815050",
"+. c #A95D43",
"@. c #89685C",
"#. c #A8694D",
"$. c #B6694A",
"%. c #A56C52",
"&. c #B46A55",
"*. c #B47254",
"=. c #897979",
"-. c #BA7B62",
";. c #CE4642",
":. c #F44E4D",
">. c #C87958",
",. c #CC6D4F",
"<. c #F55D61",
"1. c #CE7865",
"2. c #EE696C",
"3. c #EB7779",
"4. c #F67175",
"5. c #C2AA30",
"6. c #EFDB32",
"7. c #9E815B",
"8. c #81807D",
"9. c #A78779",
"0. c #C9815A",
"q. c #D0865E",
"w. c #DA8964",
"e. c #D58668",
"r. c #DB936B",
"t. c #DC8C70",
"y. c #CD9772",
"u. c #E99270",
"i. c #F8A477",
"p. c #092383",
"a. c #0F2C81",
"s. c #16338A",
"d. c #123495",
"f. c #173799",
"g. c #0E2A92",
"h. c #253A89",
"j. c #3F348D",
"k. c #153AA3",
"l. c #173EAD",
"z. c #183FB0",
"x. c #603FA1",
"c. c #1C4487",
"v. c #2E4494",
"b. c #304196",
"n. c #1840AF",
"m. c #1640B2",
"M. c #1A43B5",
"N. c #1944BC",
"B. c #2747BB",
"V. c #2B47A8",
"C. c #445988",
"Z. c #4B6791",
"A. c #707686",
"S. c #4A55AC",
"D. c #6540A7",
"F. c #6478AA",
"G. c #1B48C4",
"H. c #1D4BCB",
"J. c #1A47C3",
"K. c #1E50D7",
"L. c #244CC8",
"P. c #214FD3",
"I. c #2250D4",
"U. c #2554DA",
"Y. c #3757CA",
"T. c #3F61D4",
"R. c #2B5AE2",
"E. c #2757E4",
"W. c #3363EC",
"Q. c #4668DD",
"!. c #5076EA",
"~. c #867E82",
"^. c #937E83",
"/. c #77859A",
"(. c #8A898A",
"). c #8E9196",
"_. c #979697",
"`. c #8F8D94",
"'. c #B9A49A",
"]. c #9E9EA0",
"[. c #9BA1AF",
"{. c #A9A8AA",
"}. c #A7ABB5",
"|. c #B8B6B8",
" X c #A78A8C",
".X c #F98587",
"XX c #EC9597",
"oX c #EF9285",
"OX c #D3AA95",
"+X c #FBAB89",
"@X c #FCB585",
"#X c #FCB995",
"$X c #EAAF8C",
"%X c #E49FA2",
"&X c #C4ADAF",
"*X c #E9BABB",
"=X c #FEC49D",
"-X c #FFCEA7",
";X c #FFD5A7",
":X c #FFDDB3",
">X c #B3B6C5",
",X c #C0BFC4",
"<X c #BFC1CA",
"1X c #CBCCD9",
"2X c #D7D6D9",
"3X c #C3C2C2",
"4X c #D8DDE6",
"5X c #E6DFE4",
"6X c #DCE3F4",
"7X c #EAE8EC",
"8X c #ECEDF3",
"9X c #E6EDFC",
"0X c #EFF5FC",
"qX c #F3FAFE",
"wX c #FAFCFE",
"eX c #F2F4F9",
"rX c #F1D1D2",
"tX c None",
/* pixels */
"tXtXtXtXtXtXtXtXtXtXtXtXtXtXtXtXtXtXtXtXtXtXtXtXtXtXtXtXtXtXtXtXtXtXtXtXtXtXtXtXtXtXtXtXtX",
"tXtXtXtXtXtXtXtXtXtXtXtXtXtXtXtXtXtXtXtXtXtXtXtXtXtXtXtXtXtXtXtXtXtXtXtXtXtXtXtXtXtXtXtXtX",
"tXtXtXtXtXtXtXtXtXtXtXtXtXtXtXtXtXtXtXtXtXtXtXtXtXtXtXtXtXtXtXtXtXtXtXtXtXtXtXtXtXtXtXtXtX",
"tXtXtXtXtXtXtXtXtXtXtXtXtXtXtXtXtX:.~ E  .<.tXtXtXtXtXtXtXtXtXtXtXtXtXtXtXtXtXtXtXtXtXtXtX",
"tXtXtXtXtXtXtXtXtXtXtXtXtXtXtXtX.X%XXXU U E :..XtXtXtXtXtXtXtXtXtXtXtXtXtXtXtXtXtXtXtXtXtX",
"tXtXtXtXtXtXtXtXtXtXtXtXtXtXtXoX.X3.%X^ Y P P  ..XtXtXtXtXtXtXtXtXtXtXtXtXtXtXtXtXtXtXtXtX",
"tXtXtXtXtXtXtXtXtXtXtXtXtXtXtX2.rX*X1.W P K G P  ..XtXtXtXtXtXtXtXtXtXtXtXtXtXtXtXtXtXtXtX",
"tXtXtXtXtXtXtXtXtXtXtXtXtXtXQ :.3.3...Y P G G J J :.tXtXtXtXtXtXtXtXtXtXtXtXtXtXtXtXtXtXtX",
"tXtXtXtXtXtXtXtXtXtXtXtXD Z S x m M R W W J H F H R <.tXtXtXtXtXtXtXtXtXtXtXtXtXtXtXtXtXtX",
"tXtXtXtXtXtXtXtXtXtXtXtXx v + o ) ) > X x R J n n n Q 2.tXtXtXtXtXtXtXtXtXtXtXtXtXtXtXtXtX",
"tXtXtXtXtXtXtXtXtXtXtXtXtXc + < *.*.> , - A S n z z m Q 2.tXtXtXtXtXtXtXtXtXtXtXtXtXtXtXtX",
"tXtXtXtXtXtXtXtXtXtXtXtXtXtXtXOX=Xi.OX X-.$.+.B @ l z m ;.tXtXtXtXtXtXtXtXtXtXtXtXtXtXtXtX",
"tXtXtXtXtXtXtXtXtXtXtXtXtXtXtX>XOX=X|.Z.'.i.1.> X X c R ;.tXtXtXtXtXtXtXtXtXtXtXtXtXtXtXtX",
"tXtXtXtXtXtXtXtXtXtXtXtXtX:X-X$X$X=X[.c.'.@Xw.= $ > 1.u.tXtXtXtXtXtXtXtXtXtXtXtXtXtXtXtXtX",
"tXtXtXtXtXtXtXtXtXtXtXtX:X;X-X@Xe.r.{.Z. X@Xu.% # ) ,.u.#XtXtXtXtXtXtXtXtXtXtXtXtXtXtXtXtX",
"tXtXtXtXtXtXtXtXtXtXtXtX-X@Xi.r.*.3 d : 4 oX+Xo.B +.,.+X+XtXtXtXtXtXtXtXtXtXtXtXtXtXtXtXtX",
"tXtXtXtXtXtXtXtXtXtXtXtXtXr.q.*.4 . . $ X.t.i.t.&.&.u.i.tXtXtXtXtXtXtXtXtXtXtXtXtXtXtXtXtX",
"tXtXtXtXtXtXtXtXtX8X2XtXtX@.1 - . . 3 >.e.r.1.e.&.;.:.^ ~ ^ tXtX0XtXtXtXtXtXtXtXtXtXtXtXtX",
"tXtXtXtXtXtXtXtX8X1X>X7X&X'.y.#.#.0.w.u.e.>.$.D U I I I I I .X8X8XqXwXtXtXtXtXtXtXtXtXtXtX",
"tXtXtXtXtXtXtXwX2X{._.|.=.(.tX@Xi.i.r.0.*.o.Z P I U U U I :.7XeXwXwXwXqXwXtXtXtXtXtXtXtXtX",
"tXtXtXtXtXtXtX8X3X_.s j k ~.tXtXi.w.&.o.a p K I K K F F G XX8XwXwXqX0XqXqXqXtXtXtXtXtXtXtX",
"tXtXtXtXtXtXtX2X}.h s `.~.h A tX! S + i L.| L K F b l c S &X7XwXqX0X9X9X6X4XtXtXtXtXtXtXtX",
"tXtXtXtXtXtXtX{.(.k A.`.}.f O z Y C M x.Y.R Y G n z V tXtXtX7X8X8X8X6X1X>X}.tXtXtXtXtXtXtX",
"tXtXtXtXtXtXtXtXtX(.=.`.^.@ z F H i } F.S.R L K K F a tXtXtX5X2X2X4X<X).).].tXtXtXtXtXtXtX",
"tXtXtXtXtXtXtXtXtXtXtX_.X.O l z ] S./.6.A.x.} [ i j.B.tXtXtX5X{._.3X].j (.tXtXtXtXtXtXtXtX",
"tXtXtXtXtXtXtXtXtXtXtXtXtXtXtXtX7.Y./.5.v.K.H.G.J.M.B.!.tXtXtX|.{.|._.8.tXtXtXtXtXtXtXtXtX",
"tXtXtXtXtXtXtXtXtXtXtXtXtXtXtXtXtXT.I.V.B.L.H.J.z.z.z.Q.tXtXtXh f =.tXtXtXtXtXtXtXtXtXtXtX",
"tXtXtXtXtXtXtXtXtXtXtXtXtXtXtXtXtXT.H.H.H.H.J.M.z.z.k.L.tXtXV.t : d @.tXtXtXtXtXtXtXtXtXtX",
"tXtXtXtXtXtXtXtXtXtXtXtXtXtXtXtXtXT.N.G.H.J.N.z.z.k.d.M.Q.B.g.p.0 ; d tXtXtXtXtXtXtXtXtXtX",
"tXtXtXtXtXtXtXtXtXtXtXtXtXtXtXtXtX!.U.U.I.H.J.M.l.f.g.k.L.g.g.p.w u ( %.tXtXtXtXtXtXtXtXtX",
"tXtXtXtXtXtXtXtXtXtXtXtXtXtXtXtXtXW.R.E.U.P.H.N.z.f.a.h.f.p.p.w q s.> ( %.tXtXtXtXtXtXtXtX",
"tXtXtXtXtXtXtXtXtXtXtXtXtXtXtXtXW.R.U.I.H.J.M.k.f.w e p.q q q q q w i = ( %.tXtXtXtXtXtXtX",
"tXtXtXtXtXtXtXtXtXtXtXr.>.tXtX!.R.R.I.J.m.k.f.a.q 0 7 6 9 9 8 9 9 9 ; = & 5 tXtXtXtXtXtXtX",
"tXtXtXtXtXtXtXtXtXtX>.' +.O.S.E.R.U.H.l.s.w 9 0 r r 7 7 6 9 9 0 t y ; & * 3 tXtXtXtXtXtXtX",
"tXtXtXtXtXtXtXtXtX-.$.&.+.d g K.U.I.N.k.e t r tXtXtXtXr r tXtXtXtXtXtX> > tXtXtXtXtXtXtXtX",
"tXtXtXtXtXtXtXtXtX*.` #.( 2 i N.I.G.n.d.s.tXtXtXtXtXtXtXtXtXtXtXtXtXtXtXtXtXtXtXtXtXtXtXtX",
"tXtXtXtXtXtXtXtXtXr.) ( B = > b.G.N.k.s.v.tXtXtXtXtXtXtXtXtXtXtXtXtXtXtXtXtXtXtXtXtXtXtXtX",
"tXtXtXtXtXtXtXtXtXtX0.( , & & u m.l.g.s.tXtXtXtXtXtXtXtXtXtXtXtXtXtXtXtXtXtXtXtXtXtXtXtXtX",
"tXtXtXtXtXtXtXtXtXtXtX$.2 # & > r f.a.v.tXtXtXtXtXtXtXtXtXtXtXtXtXtXtXtXtXtXtXtXtXtXtXtXtX",
"tXtXtXtXtXtXtXtXtXtXtXtXtX2 * % : 0 v.tXtXtXtXtXtXtXtXtXtXtXtXtXtXtXtXtXtXtXtXtXtXtXtXtXtX",
"tXtXtXtXtXtXtXtXtXtXtXtXtXtX_ * # - g tXtXtXtXtXtXtXtXtXtXtXtXtXtXtXtXtXtXtXtXtXtXtXtXtXtX",
"tXtXtXtXtXtXtXtXtXtXtXtXtXtXtX5 ; 4 tXtXtXtXtXtXtXtXtXtXtXtXtXtXtXtXtXtXtXtXtXtXtXtXtXtXtX",
"tXtXtXtXtXtXtXtXtXtXtXtXtXtXtXtXtXtXtXtXtXtXtXtXtXtXtXtXtXtXtXtXtXtXtXtXtXtXtXtXtXtXtXtXtX",
"tXtXtXtXtXtXtXtXtXtXtXtXtXtXtXtXtXtXtXtXtXtXtXtXtXtXtXtXtXtXtXtXtXtXtXtXtXtXtXtXtXtXtXtXtX",
"tXtXtXtXtXtXtXtXtXtXtXtXtXtXtXtXtXtXtXtXtXtXtXtXtXtXtXtXtXtXtXtXtXtXtXtXtXtXtXtXtXtXtXtXtX"
};
