/* XPM */
static char *_b4330bb5d4446afbe83df7d9e79ab3dl71Ofn0gYicNIFoi[] = {
/* columns rows colors chars-per-pixel */
"60 34 183 2 ",
"   c #261E1B",
".  c #2B221E",
"X  c #130D0D",
"o  c #5B0106",
"O  c #56101F",
"+  c #45080A",
"@  c #7B1D1A",
"#  c #723B1E",
"$  c #4C3F37",
"%  c #543B33",
"&  c #653B29",
"*  c #683A21",
"=  c #783F21",
"-  c #663A36",
";  c #594438",
":  c #6F4729",
">  c #7C4224",
",  c #764A29",
"<  c #734B37",
"1  c #744E3B",
"2  c #6F513F",
"3  c #735438",
"4  c #747725",
"5  c #0D355C",
"6  c #14375B",
"7  c #2F2741",
"8  c #223D48",
"9  c #323644",
"0  c #2A3D56",
"q  c #0E3B65",
"w  c #2D4745",
"e  c #05447C",
"r  c #174876",
"t  c #29486A",
"y  c #364B61",
"u  c #2A5479",
"i  c #555A5D",
"p  c #4C5B5A",
"a  c #654840",
"s  c #69594C",
"d  c #795D42",
"f  c #735D4A",
"g  c #716153",
"h  c #545C6A",
"j  c #786C67",
"k  c #6D767D",
"l  c #7E7770",
"z  c #8D0913",
"x  c #BD0916",
"c  c #BE0F1B",
"v  c #B50916",
"b  c #991D25",
"n  c #A91621",
"m  c #B81922",
"M  c #8F2023",
"N  c #9A272E",
"B  c #853234",
"V  c #A7333B",
"C  c #C5000C",
"Z  c #DB000D",
"A  c #C30412",
"S  c #CA0311",
"D  c #D10111",
"F  c #D90616",
"G  c #E50012",
"H  c #E90012",
"J  c #834423",
"K  c #85483F",
"L  c #855C4E",
"P  c #A14C45",
"I  c #AA4C52",
"U  c #A5555A",
"Y  c #866757",
"T  c #89775A",
"R  c #8E5E61",
"E  c #8A6D63",
"W  c #817065",
"Q  c #8F7977",
"!  c #A96367",
"~  c #A06468",
"^  c #A57364",
"/  c #AA6E71",
"(  c #AB7B7B",
")  c #BA7273",
"_  c #C2595E",
"`  c #C77674",
"'  c #98826D",
"]  c #968777",
"[  c #A28D77",
"{  c #A3907D",
"}  c #B8957E",
"|  c #054986",
" . c #044B8C",
".. c #074A85",
"X. c #1B578C",
"o. c #12548F",
"O. c #014E93",
"+. c #045197",
"@. c #01539C",
"#. c #21588A",
"$. c #2C5E8B",
"%. c #2E5C87",
"&. c #2C608E",
"*. c #3E688E",
"=. c #0156A2",
"-. c #0159A7",
";. c #015CAD",
":. c #005DB1",
">. c #7C7E81",
",. c #647D95",
"<. c #4D6E8D",
"1. c #817F80",
"2. c #78828C",
"3. c #6B8297",
"4. c #858383",
"5. c #8B8989",
"6. c #928C88",
"7. c #9A9289",
"8. c #8B8E92",
"9. c #918F91",
"0. c #81909F",
"q. c #989797",
"w. c #A88184",
"e. c #AA9C8E",
"r. c #BA9D83",
"t. c #B38F91",
"y. c #A59C94",
"u. c #A39999",
"i. c #B59294",
"p. c #B89E9F",
"a. c #BBA38A",
"s. c #A7A19C",
"d. c #9A9FA1",
"f. c #8B99A6",
"g. c #99A0A2",
"h. c #A3A2A2",
"j. c #ADABAB",
"k. c #A1A7A9",
"l. c #BAAAA9",
"z. c #ABAFB1",
"x. c #B5B4B3",
"c. c #B9B6B3",
"v. c #BCBCBB",
"b. c #BDBAB7",
"n. c #ACB7B9",
"m. c #C19A83",
"M. c #C8AD92",
"N. c #C9B095",
"B. c #D1B699",
"V. c #DBBD9F",
"C. c #D4B99C",
"Z. c #C5A88C",
"A. c #DEBFA0",
"S. c #C0AFB0",
"D. c #C0BEBD",
"F. c #D3C0AA",
"G. c #C6C2BE",
"H. c #E9C9A7",
"J. c #E2C7A6",
"K. c #F5D2AE",
"L. c #F6D6B2",
"P. c #FCD9B4",
"I. c #B9BCC0",
"U. c #C3C4C4",
"Y. c #CBC2C2",
"T. c #CAC9C7",
"R. c #C6CACC",
"E. c #CCCCCC",
"W. c #D4D3D3",
"Q. c #DCDCDC",
"!. c #D9D8D7",
"~. c #DBDFE0",
"^. c #E3E3E2",
"/. c #EDEEEE",
"(. c #E7EAE9",
"). c #F0EFEE",
"_. c #EFEFF0",
"`. c #EFF0F0",
"'. c #F3F3F3",
"]. c #F7F7F8",
"[. c #F7F8F8",
"{. c #F9F9F9",
"}. c #F6F8F7",
/* pixels */
"{./.]./.]./.]./.]./.]./.]./.].).]./.]./.].).]./.]./.].).].).]./.}./.}.).]./.].).].).]./.]./.]./.]./.].).]./.]./.]./.]./.",
"/.}.'.'.).}._.'.).}.).}.'.'._.'._.}.).'._.].).}.).}._.'._.}._.'.'.'._.'._.}._.'._.}._.'.).}.).}._.'.).}.).}._.'.).}.).].",
"}._.}.).'.'.].).].).'.).'.).}.).}.).].).'._.'._.'.).}._.}.).].).}.).'.).'.).}.'.'.).].).}.).'.).].).'.).]._.}.).'._.}./.",
"/.'.).}._.'.).}._.'.'.}._.].).}.).}.).}._.}._.}._.}.).}.(.'.'.]./._.'.}._.].).'._.}.).}._.]._.}.).}._.]._.'.).}.).}.).].",
"].).]._.].).}.).}.).'.).}.).'.'.'._.[.`.].`.'.'.}.`.`.i.I w.Q.(.w.w.}./.'.).}.).}._.]._.}.).}.).'.).]._.].).'._.'._.].).",
"/.}.).'.).}._.'.).]._.].).]._.'.'.'.(.}._.}./.W.W.}.i.A Z ) ( u.v I /.}._.}./.}.).}._.'._.'._.'._.}.).].).}.).].).}.).].",
"].).}.).]._.}._.]._.}._.}.).'.'.E.q.z.W.}._.'.j.R.~.V G H ! ` N Z ! }._.}.).}./.'.).}.).].).}.'.].).'._.}._.}.).}.).'./.",
"/.}.).]._.'.).}._.'.).}._.'._.].U.q.R.`./.(.^._.`.G.A H H F B v x l.'.{._.]./.}._.].).}.).].).'.).}.).}._.'.).}.).]._.].",
"]._.].).}.).'.).}.).'._.].).}.).].(.'.(.h.g.n.Q.{.p.S G H C o + ; b.).v.l.b.'.`.]._.}.).'.).}.).}._.}._.].).}._.].).}./.",
"/.'.).}.).}._.].).}._.}._.'.).}.).].'.'.h.k.U./.}.i.D G G M L E 5.] 7.N.H.a.G.}._.'.).}._.}.).].).'.'.'._.].).'.).}.).].",
"].).}.).].).}.).]._.'.'.}.).]._.'.'.'._.}./.].).(.~ Z H c m.K.A.2.] A.P.P.V.c.'.}.).].).]._.'._.}.).'._.'._.}.).}.).'.).",
").]._.'._.'.).].).]._.'.).}.).'.'.'./.}./.}.'.^.U A D S @ Y r.] l w.r.A.B.e.!.}.'.'._.'.).}.).}.).].).].'.'.).].).}._.].",
"].).'._.].).]._.}.).}.).}.).}.).'._.].).}.).{.l.A m ^ ^ < * ' s     X . j Q.}.).'.).}.).}./.'._.'.'.}.).'._.'._.'._.}./.",
"/.}.).}.).}._.'._.'.).]._.'.).].'.'.).].).'.'.Y.n P J.[ M.Z.H.J.s $ ; g s.]._.}._.].).}.).}._.}._.'.).].).].).}._.}.).].",
"].).'.).}._.}.'.].).}._.}.'.'._.}.).'._.'.'.'.).S.Q B.B.V.P.P.P.K.K.C.y.^._.}.).'.).'._.}.).}.).}.).'._.}.).'._.}._.].).",
"/.}._.}.).'._.'.).}.).'._.'._.].).].).].).].).].'.(.6.f 1 L j k 6.r.Y h.W.].).]._.}._.]./.}.`.}.).}._.].).}._.}.).'._.].",
"].).'.'.}._.'.).]._.}.).'.).}.).}._.}.).'._.].).}._.W.< z C z t u 7 O h 5.W.].).}.).}.).}.).'.).'.).}.).'.).]._.}.).'./.",
").}._.'.).]._.}.).'.).]._.}.).].).'.).}.'.'.).].).].l.m x b R W.R.p 8 | y q.'.].).]._.}.).}.).}._.}.).]._.}._.'.).}._.].",
"].).}.).'._.}.).}.).]._.}._.].).}.).'._.}._.'.'.]./.U Z V I.c.(.(.T 4 e ..i !._.].W.W.).}.).}.).].).'._.]._.}.).'._.}./.",
"/.}.).].).]._.].'.'._.'.).}._.'.).}.).]._.]._.'.).}./ C ! {.!.'.Q.i w ..-.q %.0.9.1 < j.).'.`.}.).}.).}.).].).}._.].).].",
"}._.].).}.).}._.'.).}.).}.).'._.'._.'.).].).}._.'.G.D.1.Q U.`.W.z.r O.=.-.@.;.+.6 = > 3 ^.'.'.`.}._.}._.}.).'.).].).'.).",
"/.'.).}._.'.).'._.].).}.).}._.}._.}.'.'.).}._.{.S.L < 1.8.t *.u %.-.:.;.;.;.;.:.r J > Y !.}.).}.).'.'.'._.}._.].).}._.].",
"].).'._.'.'.].).'.'.'._.].).}.).'._.].).}.).}.Y.f * 9  .r =.:.;.;.;.;.:.;.:.;.;.0 J , [ ).).}.).}.).'._.'._.}.).'.).}./.",
"/.]._.].).}.).]._.'._.}._.'.).}._.].'.].).].Q.T , & ..:.;.;.;.;.;.:.=.o.&.#.@.+.% # L G.'.}.).}.).}.).].'.'.).]._.}.).].",
"].).}.).'._.}.).}.).}._.}._.].).].(.T.Q.].`.T.< J % @.;.;.;.;.;.;.+.<.v.^.W.,.9 # : y.).}.).}.).'._.}.).'._.'._.'._.}.).",
"/.}.).}._.}._.'.).].).'.'.'._.].!.9.v.!.x.}.W.2 J & 5 @.;.;.;.=.X.f.^.]._.}.(.y.W ' W.]._.}.).]._.].).}._.}._.].).}._.].",
"].).].).'.).]._.].).}._.'.).}.'.q.D.{.{.x.`.].c.1 < 6.,.#.X.&.3.R./.}./.'._.].'.}.(.].).'._.'._.].).'.).'.'.].).}.).'.).",
"/.'.).}._.}.).]._.'.).]._.].).].b.h.~.v.R.^.j./.W.W.'.).W.W.Q.}.'.}._.}._.}.).'./.}.).].).].).}.).}._.]._.'.).}.).}.).].",
"].).]._.].).}.).}.).}._.].).'._.'.T.W.E._.W.W.Q.^.'.'.'.{.].{.'.[.`.{.}.].).]._.'._.'.'.'.'.'._.}.).]._.].).}.).]._.]./.",
").]._.'.).}._.'.).].).'.).]._.}._.].'.]._.'.(.j.Q.{.(.U.9.5.4.4.Q 5.q.I.(.].).'._.}._.'.).}._.}.).}.).'.).}._.'._.'.).].",
"}.).'.'.]._.}._.'._.}._.}.).'._.}._.}._.}.).'.).].).'.v.q.5.4.4.4.5.q.v.'.).}.).'.).].).].).}.).'._.}.).'.'.].).}.).'.).",
"/.}.).}.).'.).}.'.'._.'.).}._.}._.'.'.'.).}.).].).'.).}.].{.'.}.'.{.].].).]._.]._.}.).}._.'.).]._.]._.}._.'.).}._.}._.}.",
"}.).'._.}.).'._.}.).}.).'._.}.).}.).'.'.'.).}.).}.).'._.}.).}.).'._.}._.'._.}.).}.).'._.].).}.).'.'.'.).}.).}.).'._.}.).",
"/.].).].).]./.]./.].).]./.].).]./.]./.]./.].).]./.}.).]./.]./.}.).].).]./.].).]./.}./.].).]./.]./.].).]./.}./.].).]./.]."
};
