/* XPM */
static char *_4590_9b2837616a35ac40cd9d8bcce2b4057f5b7bae3cfa1ecc917e4259bcd756abe4[] = {
/* columns rows colors chars-per-pixel */
"60 40 130 2 ",
"   c #005614",
".  c #02611D",
"X  c #036322",
"o  c #0A6325",
"O  c #066923",
"+  c #076529",
"@  c #0B642B",
"#  c #0D6B2B",
"$  c #12642B",
"%  c #116B2D",
"&  c #0F742D",
"*  c #14712D",
"=  c #18732E",
"-  c #147B2E",
";  c #0F6830",
":  c #166430",
">  c #146E31",
",  c #196E34",
"<  c #1B6738",
"1  c #167232",
"2  c #1A7436",
"3  c #167931",
"4  c #1C7A35",
"5  c #1C763A",
"6  c #1D7B3A",
"7  c #22743C",
"8  c #227C3E",
"9  c #1E7C40",
"0  c #267440",
"q  c #287646",
"w  c #257E42",
"e  c #2B7D45",
"r  c #267F49",
"t  c #2C7D49",
"y  c #317F4D",
"u  c #1A8036",
"i  c #1D833A",
"p  c #22823D",
"a  c #23893F",
"s  c #258342",
"d  c #2A8445",
"f  c #268A44",
"g  c #2A8A45",
"h  c #278149",
"j  c #2C864A",
"k  c #2D8A4A",
"l  c #318C47",
"z  c #32844C",
"x  c #328B4D",
"c  c #289043",
"v  c #2E914C",
"b  c #32934D",
"n  c #38934E",
"m  c #33994E",
"M  c #2E8751",
"N  c #338452",
"B  c #358E51",
"V  c #3A8C54",
"C  c #3B8758",
"Z  c #3A8D59",
"A  c #359253",
"S  c #3A9355",
"D  c #359A53",
"F  c #3B9A55",
"G  c #379259",
"H  c #3C9659",
"J  c #369959",
"K  c #3E9A5B",
"L  c #3DA356",
"P  c #3DA25B",
"I  c #3DA858",
"U  c #3E9761",
"Y  c #3F9C61",
"T  c #42935B",
"R  c #429C5D",
"E  c #48995F",
"W  c #42A35D",
"Q  c #44AC5F",
"!  c #459560",
"~  c #489760",
"^  c #459D62",
"/  c #499C64",
"(  c #469F69",
")  c #4C9D69",
"_  c #45A262",
"`  c #4AA465",
"'  c #46AA62",
"]  c #4CAA66",
"[  c #47A26A",
"{  c #4CA56A",
"}  c #47AB69",
"|  c #4DAA6B",
" . c #52A36C",
".. c #52AB6E",
"X. c #58A96F",
"o. c #4DB164",
"O. c #4EB269",
"+. c #54B36D",
"@. c #55BA6E",
"#. c #4EA970",
"$. c #52A771",
"%. c #55AD71",
"&. c #5AAC74",
"*. c #57AF7C",
"=. c #58AF78",
"-. c #55B272",
";. c #5AB375",
":. c #59BB77",
">. c #57B579",
",. c #5CB57A",
"<. c #5CBA7A",
"1. c #61AF7B",
"2. c #60BB76",
"3. c #62B37C",
"4. c #61BB7C",
"5. c #5CC279",
"6. c #5EB781",
"7. c #5FBB82",
"8. c #64BD82",
"9. c #68B883",
"0. c #65BE88",
"q. c #68BF88",
"w. c #66C183",
"e. c #69C485",
"r. c #69CA87",
"t. c #6CC589",
"y. c #6ECB8C",
"u. c #71CD8D",
"i. c #75CA92",
"p. c #76D294",
/* pixels */
"8._ B T n ^ 4.S ^ j S %.x 1 n K w t.%.i.R d / j  .t.l 1 2 W 8 p l n n = n ] p E 4 T E W d d H > S x K K | %.x B w K A 6 ",
"> 5 A d l k ,.x K R 6 w 2 d ..7 B H h : ^ H j 2 ` x 1 k X.F l 1.= l T 4 a ] p l l n p E B 6 ` J ` k > 1 x { A B x ^ R A ",
"A ..A 8.R u.8.,.%.j l w d | { R { / H B 8.3.{ B x ;.4.` W d 2 l F Q W d T p $ W x z B R B j } 8.j ` P <.| ` x z 8 j S J ",
"u.` B S S d d x j A d ` R j -.` $.{ G 0.B d ^ , l R w R S R 2 d n T R 2 8 X.o.T -.l F j S ;.^ { :.<.s H x R T K w s _ <.",
"4.H H k A 1 z _ j j -.K d H x %.&.H e >.z w ` x R  .p p 8 Q l S R   5 ..K { { 5 ;.` U B G H B U 6 ` A -.A x j A k s H O.",
"x 8 d H x ` R ` ..` S ^ A 2 S %.e , j 7 T B z ..1 W  .k p T  .] > H ` H H ^ B w H ( w ( ^ 9 U [ } W 2 x R ..B 8 _ A k d ",
"R 2 ^ x ` R _ w 4.s l B A d * ;.V ~ &.e T B 8 R R n A _ ' s * 4 s ..H B ..B j t.T j ; B 6.$.U h ( K x k x F z S ..| J j ",
"k % x -.d R H ..S z x x R H x ^ / ,.Z z 2 T ` z 8 ^ K ` x ;.' _ e.K k B x { >.M d h 6.H ( 6.; M ^ A K j S E S ` 2 x k s ",
"` 8 K l j S s R % R R o k R K z / / T E T E x S R o d ] s _ r.J 8 x { % 2 %.( B [ $.h %.0.( #.5 >.u.} ` ` 8 > 8 T A H | ",
"` j R ..R k x ..j 1 x ` H B ` ^ / z 7 / ` z $ 8 ..x | 6 g g -.g k z K 8 H | H d $.[ 6.( U M r w R v d ( ` j A ` R | _ b ",
"6 R ^ _ A H %.` l 6 S ..B R ..R 7 e e T z d e { ` S ` 8 Y 3 D D F ..T ] > d w <.A B { B M G ( [ | x K S d n R B | -.` j ",
"x w d ^ S w K %.%.4.{ R d R l 7 z E E X.1.1.l 1 l H K ] P f 6 k ` B n B ;.d k A B G B h B j 8._ A s J A j { %.&.| A d A ",
"` x S S x x l S ` B s R R .._ ..1.X.y T z V d x j | | } i J f + 8 l T l +.d n T k H ^ H x d %.G ;.A J K x 2 o B ;.k 8 P ",
"S ` -.x j %._ 7 ;.d x -.S B R x z / T y 7 n T &.R J Y J f J P 6 l ] = l p -.g R G 8 { ` S %.^ B } _ { | ..R S ..,.J k K ",
"B l B | ` S K F d w R ^ x k R S 1.X.y 7 V 1.X.{ ..1 s f } v } P p o.2.a T T p T +.d R ` j ;.x j 6 k A b l _ ..d A x b J ",
"w j 0 | ^ 2 K H 1 H ` b R 8 k ;.T 7 $ E X.^ 7 w ` s p s :._ _ v X.Q l   l 2.n B R n d ` # l R ` x s j K s S &.* 8 k K | ",
"e 8 e { x J K ] f 3 k 3 W v g v E T &.T 3.F j S x R k s R H j A 4.W l l  .R 7 x R 7 F T R R 8 R l g F d J f f O.} v i ' ",
"~ C ^ V A F . o.' u f L 5.' v _ X. .+.n j l X.7 7 4.&.w , x R ` x e E ;.^ l H ..8 F 3.4.3.^ 8 = . ' ] a b O.p f Q m f L ",
"y y T ..R x v ' m m _ Q f f f P F n l 2.X.o 1 T l H w x B W S ..^ B l S T T A 7 e W W T j d S k W ] 6 F W J X :.P P J m ",
"z C T ,.A 8 _ b f f v D f J K A S T 7 V R z 8 S R ;.l e % H z V S %.z x ..B 8 H E ` H j e x { ;.n 2.b 6 # W s m v v J ' ",
"q ) 9.t , 5 4 -.v p A ' _ B J k d 8 ] t.z 8 8  .e x 8 S B X.` X.` K 8 H ,.x 1 S ` l ` -.;...l H A d g <.Y f f J } f J v ",
"N y 7 , T ;.;.H S ' | R G j ( U X.V e 2 2 -.` ] -.E x ;.] ) A ` H x ..R 1 8 S ` ` 8 R ^ ..-.w x S p A -.J J >.} #.h J v ",
"< C ~ 9.{ e t.K A -.B s M >.0.$.H 8 # A X.B 7 &.A ;.3.z $ S 4.t.` 2 R x s e.e.` ` H S s x ..R H J M h k 9 J 7.#.J h } J ",
"C T  .) 8.R A K 5 { j H 0 M r M 2 e l  .S 8 A 8 e S ` S l R ` S H # R { ` { 5 A 2 ^ _ x A { R X J } A Y Y #.#.J + & *.Y ",
"C ) ) Z ) z 1 ` 1 j S { { *.( t H X.j T E 5 F T x R l z ` ` j E d +.| x _ <.8 S l _ 6 R k 1 <.K G + M h h K #.Y { Y [ [ ",
"t ) i. .w S R x k A k G N { )  ...2.....R z l T l ` A 2 A z l _ -.S ^ k 5 A _ J B J e.;.` 4 _ ; 1 #.Y G M #.G 9 ( [ >.[ ",
"$.z Z B d x k * | } B ( ( { Z N x j S B x S x S 3.,.` z ^ d B &.R 6 H K 8 6 <.` K x J j 6 K s j w.p.[ G ; B #.M w d T A ",
"B B j 2 F e.} g <.K 1 j { =.Z M B 7 d z A { ` H T w d 8  .w x -.x J j J _ 2 k x J S 8 A J 8.5 } >.M h G K j $.( ^ B { 4.",
"S +.4.] R F f l f f s } %.( , @ ;.^ T ` R R E d l j R T 4.S E | K #.# g [ g s A J _ -._ #.W k M s w A S w._ j ^ T T  . .",
"W 7 F ] g p b Q b P } -.w 5 r Z R R H ` R j x j 8 E -.B H j d 2 J _ 6 Y A v ` -.R J ` K 3 B Y & w { <.K j [ 0 d B ] ;.z ",
"2.R S a p D m a p v O.w.M G  .-.B d l B R T l ` x T R j j x l 5 K _ ' #.J b } H J A v _ f J A g 1 H ` H 1 K A > 8 T ` e ",
"F ] Q F W g * ' _ g k J w ` 8.| 3.j z 8 R _ 5 R w.^ d z A n j s J b v v -.#.} 9 K K _ 6 #.1 # y.| >.x 6 ` s x A B l E W ",
"g 8 Q ;.J <.t.M M [ G G j A j $.H B t.p s D ' D _ d w ;.= p n m u & Q p J ] x S j j K 1 s J | K A B ] ,.j 8 { ( A j O._ ",
"W Q F d h B U U >.0.G 5 G 8.-.A z d %.g a i c F <.A ; R o.@.Q Q a m a u J k R k A w H z j _ +._ B p V ..K S <.>.` ` K R ",
"% 4 ' ` j B 6.6.6.6.( G G j d o V /  .+.v Q p W k H 2 w W a a W u m u a ] j B 8 { <.| G J k 4 ` H R ^ ^ x A A . J _ 4 x ",
"p.A d s M B #.M + 9 U =.{ 6 ..<./ ` T p a W c F ` t.( e a a u u o.o.W W :.R d j R S R K 5 k g A 4.,.R k d A ] D ' ] H } ",
"W K j 0 -.U B ( ^ ( [ ^ H w ..,.~ T  .7 @.R W d j &.) z S W @.o.m L a - k R S A 8 ` B j ` ;.s J | x 2 B K s P u.A k R l ",
"%.B 2 % #.^ G G 0.U M B S w j ` 7 y T ) o.R a p d ) T z , p m W u W i p p ] t.H w H ,...x ` F 6 R ^ H ,.4.k g ..S p R 8 ",
": 2 / U | 0 j w >.A B K R x $ R  .1.z 2.p +.R ] B T $ y T R a R a m c F 4 d x 1 : K &.B k x d 8 j %.K d x d p f b f l p ",
"S &.&.B 0.B 9 K d j k w k ..8 E ~ / E T l W R @ z E e 1.X.T u o.o.. l ' 6 d % H ,.^ ..x x H F 1 w %.H k K x 6 6 b F 8 F "
};
