/* XPM */
static char *_1d1d6b919c34b91891c5929534bdf73kriBls6dPEZF0WHL[] = {
/* columns rows colors chars-per-pixel */
"45 45 209 2 ",
"   c #1E0305",
".  c #3C0102",
"X  c #340508",
"o  c #2B0509",
"O  c #37333A",
"+  c #440204",
"@  c #4C0204",
"#  c #4A070B",
"$  c #51090C",
"%  c #480D13",
"&  c #48141A",
"*  c #541419",
"=  c #590F1C",
"-  c #591825",
";  c #761E38",
":  c #6D1F35",
">  c #492A2F",
",  c #5A2428",
"<  c #553439",
"1  c #7D223C",
"2  c #652A38",
"3  c #343642",
"4  c #583C44",
"5  c #653846",
"6  c #3F4049",
"7  c #524B58",
"8  c #5A5056",
"9  c #684C54",
"0  c #724658",
"q  c #585C67",
"w  c #4E5462",
"e  c #775966",
"r  c #685861",
"t  c #5B616F",
"y  c #66656B",
"u  c #75676F",
"i  c #616673",
"p  c #666D79",
"a  c #726E74",
"s  c #7B7A7D",
"d  c #72757A",
"f  c #66717F",
"g  c #85223F",
"h  c #892746",
"j  c #972A4B",
"k  c #9A2D50",
"l  c #883651",
"z  c #A22F52",
"x  c #B2355D",
"c  c #AD3259",
"v  c #B93760",
"b  c #BC3962",
"n  c #C63E69",
"m  c #8F566D",
"M  c #A85B74",
"N  c #8B6672",
"B  c #CB426E",
"V  c #D94776",
"C  c #DA517D",
"Z  c #C54E74",
"A  c #E14679",
"S  c #E2487A",
"D  c #EA4A7F",
"F  c #6D7783",
"G  c #737D8A",
"H  c #7C7D82",
"J  c #947B83",
"K  c #8A7F85",
"L  c #A77786",
"P  c #A66F81",
"I  c #ED4C81",
"U  c #FB4E89",
"Y  c #F44D84",
"T  c #E75687",
"R  c #FC538D",
"E  c #F6578F",
"W  c #FB5B95",
"Q  c #FC5E98",
"!  c #F65A92",
"~  c #C17D93",
"^  c #E86695",
"/  c #FB639C",
"(  c #F26297",
")  c #FC69A1",
"_  c #F56AA0",
"`  c #75818E",
"'  c #79848E",
"]  c #7C8995",
"[  c #868488",
"{  c #93898C",
"}  c #858E97",
"|  c #84939E",
" . c #98979A",
".. c #958C92",
"X. c #8696A0",
"o. c #8B9DA6",
"O. c #8E9FA8",
"+. c #939CA6",
"@. c #AE8CA2",
"#. c #8FA1AA",
"$. c #92A3AD",
"%. c #99A3AD",
"&. c #95A7B0",
"*. c #98A7B0",
"=. c #96A9B3",
"-. c #9BACB5",
";. c #98ADB8",
":. c #9BB1BC",
">. c #A6A7AC",
",. c #A5ACB3",
"<. c #B0AFB3",
"1. c #AEB1B5",
"2. c #A4B4BC",
"3. c #A8B7BF",
"4. c #ACB8BE",
"5. c #B8BABC",
"6. c #C399A7",
"7. c #DA92AD",
"8. c #E687A7",
"9. c #E393AF",
"0. c #DCADBC",
"q. c #9DB5C2",
"w. c #9EB9C6",
"e. c #9FBBC9",
"r. c #A2B9C4",
"t. c #ACBBC3",
"y. c #A1BDCC",
"u. c #B1BEC5",
"i. c #A5C0CE",
"p. c #A9C1CC",
"a. c #B4C0C6",
"s. c #B5C4CB",
"d. c #B9C6CC",
"f. c #BAC8CF",
"g. c #B7C8CF",
"h. c #A5C3D3",
"j. c #ABC6D4",
"k. c #ABCBDC",
"l. c #BCCBD3",
"z. c #B8CED9",
"x. c #BCD1DC",
"c. c #AFD1E4",
"v. c #B1D2E4",
"b. c #B4D7EB",
"n. c #B5D9ED",
"m. c #BAD9EA",
"M. c #BCDEF1",
"N. c #ADCEE1",
"B. c #CCCCCD",
"V. c #C7C6C6",
"C. c #C2CED4",
"Z. c #C2D0D7",
"A. c #C5D4DB",
"S. c #CAD6DC",
"D. c #CAD8DF",
"F. c #C9D2D7",
"G. c #D2D2D3",
"H. c #D0D6D9",
"J. c #D9DADC",
"K. c #DFCED4",
"L. c #E4D6DB",
"P. c #CCDBE2",
"I. c #C5DBE6",
"U. c #D2DEE4",
"Y. c #D9DFE2",
"T. c #CEE1EB",
"R. c #D3E0E7",
"E. c #D4E4EB",
"W. c #DAE6EB",
"Q. c #DAE9EE",
"!. c #D7E8EE",
"~. c #CAE4F1",
"^. c #DCECF2",
"/. c #D6E8F2",
"(. c #E4EAED",
"). c #EBECEE",
"_. c #E4E5E6",
"`. c #E3EEF3",
"'. c #ECEFF1",
"]. c #E2F1F6",
"[. c #EDF1F3",
"{. c #E6F5F9",
"}. c #E6F5F9",
"|. c #E9F6FA",
" X c #EAF6FA",
".X c #EFFBFD",
"XX c #EDF9FD",
"oX c #ECF9FC",
"OX c gray95",
"+X c #F3F3F3",
"@X c #F3F2F2",
"#X c #F1F2F2",
"$X c #F3F3F3",
"%X c #F1FBFD",
"&X c #F2FCFE",
"*X c #F5FDFE",
"=X c #F7FEFF",
"-X c #F7FDFE",
";X c #F3FCFE",
":X c #F8FEFF",
">X c #FAFEFF",
",X c #F8FDFE",
"<X c #FDFFFF",
"1X c #FEFFFF",
"2X c white",
"3X c #FCFDFD",
"4X c #FAFEFE",
"5X c #F3F7F8",
"6X c #F0ECED",
/* pixels */
"+X+X@X+X+X@X@X+X@X@X+X@X@X@X@X[.[.[.].].`.`.^.Q.Q.W.Q.(.@X@X@X@X+X@X@X+X@X@X+X@X@X+X'.@X+X",
"+X+X@X+X+X[.+X+X@X@X+X+X@X[.[.].oXoX%X%X%XoXoX|.].^.!.P.Y.W.'.@X+X@X[.+X@X@X+X@X@X+X@X@X+X",
"@X@X+X@X@X+X@X@X@X@X#X#X].|.%X-X,X:X,X,X:X:X*X*XoX|.].^.R.D.D.(.@X@X+X@X+X@X@X+X+X@X+X+X@X",
"+X+X@X+X+X@X+X+X#X#X[.}.%X-X:X1X1X1X1X3X:X1X:X*X*XXXoX].^.E.P.Z.Y.@X+X+X@X[.+X@X[.+X@X@X+X",
"+X+X@X+X+X[.@X+X[.[.}.&X:X1X1X1X1X1X1X1X1X1X1X*X&X.X.X{.].^.T.D.l.D.#X@X@X@X+X@X@X+X@X@X+X",
"@X@X+X@X@X+X@X@X).|.-X:X1X1X1X1X1X1X3X3X1X1X:X:X*X&X.X{.}.^.^.P.Z.d.F.).+X@X@X+X+X@X+X@X#X",
"+X+X@X@X@X@X@X`.|.-X:X1X1X1X1X1X1X1X1X3X3X1X:X:X*X*XXXoX}.].^.E.P.C.s.F.'.@X+X+X@X'.).@X+X",
"+X+X@X@X@X@X[.}.*X1X1X1X1X1X1X1X1X1X).B.3X1X:X:X*X*X.XoX}.].^.!.P.A.d.u.S.@X+X).`.oXU.H.+X",
"@X@X+X[.@X@X].%X3X1X1XG.V.3X3X1X1XY. ._.1X:X:X*X*X&X.XoX}.]./.!.U.D.l.a.3.J.).`..X|.f.3.).",
"+X+X@X@X@X).|.,X1X1X6X..a 5._.L.>...J.1X:X:X:X&X&X.XoX{.].^.!.E.P.D.l.s.r.t.Q.%X%XE.3.:.(.",
"+X+X@X+X'.`.%X3X3X@X .G.J.s y y s +X1X:X:X*X*X&X.XoX{.}.].Q.E.R.P.A.C.d.d.U.|.XXQ.l.-.3.).",
"@X@X+X@X).}.G._.G.[ V.1X:XB.t i s 1X1X:X:X:X&X&XXXoX{.].^.Q.E.P.S.A.l.d.P.].|.^.D.t.*.s.#X",
"+X+X@X#X(.%XJ.[ d s 3X3X1XG.7 O { 1X:X:X*X*X&X.XoX}.].^.!.E.R.P.A.Z.g.l.!.].Q.D.s.-.;.D.+X",
"+X+X@X'.`.%X1X1.p ' ,X:X1X5Xs q J.1X1X:X&XXX.XoX{.}.^.^.E.R.P.D.Z.l.d.g.R.!.P.g.2.=.:.W.+X",
"@X#X+X`.`.&X:X,.O  .,X:X:X:X5X+X1X*X*XXX}.].].].].].^.!.R.U.D.x.C.d.p.a.A.D.l.t.=.=.j.).@X",
"+X+X+X(.^.XX*XY.H J.3X:X:X:X:X*X&XXXoX`.R.A.P.E././.!.R.R.D.A.l.g.s.t.t.s.g.p.-.#.:.A.+X@X",
"@X#X#XW.^.{..X%X.X&X&X&X&X&X.XoXoX].T.g.2.2.s.P.R.!.!.U.P.A.Z.l.u.u.t.3.t.t.;.$.&.y.Q.+X@X",
").`.).R.!.].}.|.oXoXoXoXoXXX{.].R.g.-.| p a 2.C.P.U.U.P.I.Z.l.d.u.t.3.2.2.;.$.o.:.z.'.@X@X",
"].3X,XR.T.R.Q.^.].].].^.^.!.D.a.%.] G f 8 4 *.l.I.P.P.P.A.C.f.s.t.3.2.2.-.$.O.$.y.y.(.`.U.",
"W.-X1XR.l.a.s.x.x.A.A.l.t.&.} G q t 2.:.y , +.f.A.D.A.A.Z.f.d.u.t.2.-.*.$.O.O.:.i.-.P.E.t.",
"S.Q.%XU.g.*.' ' X.} ` G f q i ' p 8 H.x.u *  .x.A.A.A.Z.l.d.u.t.2.-.*.*.#.o.#.q.r.$.3.s.3.",
"_.Z.Q.D.s.t.] O F G w i %.G r d.O.- N Z.u $ ..A.Z.A.A.l.f.s.t.t.2.;.*.O.O.o.$.q.q.-.-.2.l.",
"+XH.a.l.s.s.a.q y C.' 8 <.*., N [ $ , >.9 @ { A.x.l.l.f.a.t.t.2.;.&.$.O.o.O.;.w.w.q.q.p.W.",
"@X@XF.-.a.f.f.>.O 4.r.4 < u # @ * @ @ 2 * + N T.Z.l.l.g.t.t.2.-.=.$.#.o.o.&.q.y.y.y.h.m.'.",
"@X+X#XC.4.g.Z.A.y 8 4., . + @ @ @ @ @ @ .   ` D.A.l.f.a.t.3.-.&.$.#.O.O.$.;.e.y.y.k.v./.@X",
"+X+X+X+Xd.a.Z.D.u.> 7 # + + @ @ @ # + + X   s P.Z.f.u.t.2.:.&.$.#.O.O.#.=.q.y.h.c.c.~.'.+X",
"@X@X+X+XH.2.g.S.R.[ X . + + + # = * : ; * o [ P.Z.f.t.3.:.=.$.$.O.o.#.=.q.y.h.N.v.n./.+X@X",
"@X@X+X+X).2.4.l.P.F.4 . . . % j h z n x h &  .A.f.t.r.-.&.#.O.o.O.#.=.q.e.h.N.c.n.~.[.+X@X",
"+X+X+X+X+XC.-.a.Z.U.<.& X . z v x D A n h - <.z.t.2.-.&.$.o.o.o.O.*.q.y.y.N.c.n.M.`.@X@X+X",
"#X@X+X#X+X).,.2.g.D.U...o g V b A U Y n h 2 5.a.2.-.$.O.o.o.o.$.&.q.e.y.c.v.n.M./.@X+X+XOX",
"@X#X+X@X+X+XH.$.3.s.Z.P.J V A n U U Y B g 5 2.2.-.$.O.o.o.o.o.&.q.e.y.N.v.n.n.~.#X@X+X+XOX",
"+X+X@X+X+X@X#Xa.O.-.t.l.7.U A I R U U n ; 4 $.$.$.o.X.X.o.#.&.:.y.y.N.v.n.n.~.'.$X+X$X$X+X",
"+X+X@X+X+X@X+X).4.#.*.,.^ R Y R W R I v : 7 ] X.X.X.X.X.o.;.q.w.y.k.c.b.n.~.'.+X@X+X$X#X+X",
"@X#X+X@X[.@X@X+X(.u.$.@.^ Q R Q Q R D c : t G ] X.X.o.$.$.q.q.y.k.c.n.n.~.'.+X+X+X@X+X@X$X",
"+X+X@X+X+X@X+X+X@X).f.@./ / / / Q U n k 5 G } X.X.O.$.;.q.w.y.k.c.b.M./.#X+X+X@X@X+X$X$X@X",
"+X+X@X+X+X@X+X@X@X@X+X9./ ) ) ) W U n j 0 X.O.#.=.=.;.q.w.y.k.N.b.~.`.5X@X#X+X@X$X+X$X#X+X",
"@X@X+X@X@X+X@X@X+X@X+X8.Q ) ) / ! I b j e *.;.;.q.q.r.y.y.k.c.U.(.$X+X$X@X+X#X+X+XOX+X+X$X",
"@X@X@X+X@X@X+X+X#X+X#X8./ / ) / Y V b j m q.q.r.w.w.y.j.v.U.(.+X@X@X#X+X#X$X+X@XOX+X#X$X+X",
"+X@X@X+X+X@X+X+X@X+X'.8.Q ) ) ( T n v h N x.z.z.z.I.U.(.#X@X@X+X+X$X#X+X$X#X+X#XOX+X#X@X+X",
"@X@X@X[.@X@X[.@X+X@X@X7.E ) _ ^ T n x g P +X#X@X'.$X@X@X@X$X@X$X$X$X@X$X+X+X@X+X+XOX+X+X#X",
"+X@X@X+X@X@X+X+X@X+X+X0.C ( ^ T C b z 5 L @X+X+X@X+X@X@X+X+X[.+X+XOXOX+XOXOX+XOXOX+XOXOX+X",
"+X@X@X+X+X@X+X+X@X+X+XL.Z S T C B c h 1 6.+X+X@X@X+X+X[.+X+X@X+X+XOXOX+XOXOX+XOXOX+XOXOX+X",
"@X@X@X@X@X+X@X@X+X@X[.#X~ v B M v k ; j K.5X@X@X+X@X@X+X@X@X+X@XOX+X+XOX+X+XOX+X+XOX+X+XOX",
"+X@X@X+X@X@X+X+X@X@X+X+XL.M j j h h h 6.@X@X@X@X@X+X+X@X+X+X@X+X+XOXOX+XOXOX+XOXOX+XOXOX+X",
"+X+X@X+X+X+X+X+X+X+X5X5X@XL.M l l m 6.6X@X[.+X+X@X+X+X@X+X+X@X+X+XOXOX+XOXOX+XOXOX+XOXOX+X"
};
