/* XPM */
static char *result[] = {
/* columns rows colors chars-per-pixel */
"52 52 226 2 ",
"   c #362524",
".  c #58150E",
"X  c #7F0C0B",
"o  c #741A1A",
"O  c #5B2E19",
"+  c #65271A",
"@  c #6B351A",
"#  c #653219",
"$  c #793B1D",
"%  c #452C27",
"&  c #593425",
"*  c #5B3639",
"=  c #4B312F",
"-  c #673A25",
";  c #70362D",
":  c #774328",
">  c #6C4233",
",  c #764638",
"<  c #68412F",
"1  c #091E5D",
"2  c #0F225D",
"3  c #342E56",
"4  c #081F67",
"5  c #0C2266",
"6  c #15296C",
"7  c #172967",
"8  c #0A2273",
"9  c #0C267C",
"0  c #142C78",
"q  c #283469",
"w  c #2D3374",
"e  c #4A3542",
"r  c #493B5D",
"t  c #752B57",
"y  c #59337D",
"u  c #574B52",
"i  c #795447",
"p  c #734F51",
"a  c #454271",
"s  c #745671",
"d  c #777477",
"f  c #706F6E",
"g  c #960708",
"h  c #881718",
"j  c #961817",
"k  c #830403",
"l  c #AC0809",
"z  c #B70706",
"x  c #AC1816",
"c  c #8F241B",
"v  c #A4381F",
"b  c #951827",
"n  c #A4172E",
"m  c #BB1F3A",
"M  c #832A25",
"N  c #93322A",
"B  c #A92428",
"V  c #B52726",
"C  c #B8342F",
"Z  c #CB0709",
"A  c #D6090B",
"S  c #CA1517",
"D  c #D8151C",
"F  c #D80E13",
"G  c #E40C0C",
"H  c #EB0B0B",
"J  c #F40E0F",
"K  c #E70E12",
"L  c #E91516",
"P  c #FB1313",
"I  c #F71516",
"U  c #CC1A2A",
"Y  c #F41A20",
"T  c #CA2628",
"R  c #D7383B",
"E  c #CF302E",
"W  c #EA262A",
"Q  c #FD2A2B",
"!  c #E8322A",
"~  c #FA3638",
"^  c #F33836",
"/  c #824529",
"(  c #8C4932",
")  c #934A36",
"_  c #9C5639",
"`  c #8B5235",
"'  c #A1553B",
"]  c #B7513C",
"[  c #932657",
"{  c #B73743",
"}  c #993F6E",
"|  c #F03F44",
" . c #8D5C48",
".. c #825658",
"X. c #925247",
"o. c #A45B45",
"O. c #98644B",
"+. c #9D735F",
"@. c #AB664A",
"#. c #B7664C",
"$. c #A86C51",
"%. c #BB7354",
"&. c #BC7759",
"*. c #BA7452",
"=. c #8A6A68",
"-. c #837A7B",
";. c #BB7960",
":. c #D64A4B",
">. c #FA4447",
",. c #E95458",
"<. c #FA5456",
"1. c #EF4F4F",
"2. c #C67A54",
"3. c #C86650",
"4. c #D37D63",
"5. c #DC787A",
"6. c #EB7678",
"7. c #EE726F",
"8. c #A8A055",
"9. c #BB8874",
"0. c #AC8C7A",
"q. c #ADA46A",
"w. c #949474",
"e. c #CA835E",
"r. c #D1845D",
"t. c #CE8466",
"y. c #D58665",
"u. c #D99E75",
"i. c #E88969",
"p. c #E7996E",
"a. c #E89876",
"s. c #F38F77",
"d. c #F6A779",
"f. c #0B2787",
"g. c #132D89",
"h. c #13318A",
"j. c #193387",
"k. c #143393",
"l. c #153798",
"z. c #0B2896",
"x. c #223C94",
"c. c #213882",
"v. c #1439A2",
"b. c #163EAB",
"n. c #1838A7",
"m. c #183FB1",
"M. c #253DA6",
"N. c #663B92",
"B. c #384395",
"V. c #324A95",
"C. c #1C41AE",
"Z. c #1741B2",
"A. c #1941B4",
"S. c #1A45BC",
"D. c #2547B8",
"F. c #2F48AC",
"G. c #42448A",
"H. c #774983",
"J. c #7D7B88",
"K. c #6B7796",
"L. c #5759AC",
"P. c #4655AF",
"I. c #5069B5",
"U. c #6170A3",
"Y. c #1D49C5",
"T. c #1D4BCB",
"R. c #1B46C1",
"E. c #1F4ED1",
"W. c #224DCB",
"Q. c #3455CA",
"!. c #204FD3",
"~. c #2350D4",
"^. c #2553DB",
"/. c #2856DD",
"(. c #395FD8",
"). c #3B60D6",
"_. c #2858E4",
"`. c #315FE4",
"'. c #3262EA",
"]. c #3F6EF0",
"[. c #486BD9",
"{. c #7083AA",
"}. c #8C8B8D",
"|. c #888488",
" X c #949493",
".X c #9A9798",
"XX c #948D91",
"oX c #9B9FA8",
"OX c #A5A3A5",
"+X c #A5A3AD",
"@X c #BCBBBD",
"#X c #B5B4B7",
"$X c #AEADB2",
"%X c #D39F8B",
"&X c #EB8384",
"*X c #ED8D8E",
"=X c #D8A88E",
"-X c #D9A491",
";X c #ECAB86",
":X c #F9A886",
">X c #E6B996",
",X c #FBBE95",
"<X c #C4ABA5",
"1X c #CDB1B0",
"2X c #EFAEA9",
"3X c #FFC695",
"4X c #FFD6A9",
"5X c #F5D0AF",
"6X c #C8C6C9",
"7X c #C6CCD8",
"8X c #D1CED1",
"9X c #D9D6DB",
"0X c #D6DBEB",
"qX c #EDDAE0",
"wX c #EBEBEE",
"eX c #E6E1E3",
"rX c #EDEDF2",
"tX c #E6EFFA",
"yX c #E6EAF7",
"uX c #F3F6FB",
"iX c #F5FAFE",
"pX c #FAFCFF",
"aX c #F5F4F7",
"sX c #EEF1FC",
"dX c #F0CDCE",
"fX c None",
/* pixels */
"fXfXfXfXfXfXfXfXfXfXfXfXfXfXfXfXfXfXfXfXfXfXfXfXfXfXfXfXfXfXfXfXfXfXfXfXfXfXfXfXfXfXfXfXfXfXfXfXfXfXfXfX",
"fXfXfXfXfXfXfXfXfXfXfXfXfXfXfXfXfXfXfXfXfXfXfXfXfXfXfXfXfXfXfXfXfXfXfXfXfXfXfXfXfXfXfXfXfXfXfXfXfXfXfXfX",
"fXfXfXfXfXfXfXfXfXfXfXfXfXfXfXfXfXfXfXfXfXfXfXfXfXfXfXfXfXfXfXfXfXfXfXfXfXfXfXfXfXfXfXfXfXfXfXfXfXfXfXfX",
"fXfXfXfXfXfXfXfXfXfXfXfXfXfXfXfXfXfXfXfXfXfXfXfXfXfXfXfXfXfXfXfXfXfXfXfXfXfXfXfXfXfXfXfXfXfXfXfXfXfXfXfX",
"fXfXfXfXfXfXfXfXfXfXfXfXfXfXfXfXfXfXfXfXfXfXfXfXfXfXfXfXfXfXfXfXfXfXfXfXfXfXfXfXfXfXfXfXfXfXfXfXfXfXfXfX",
"fXfXfXfXfXfXfXfXfXfXfXfXfXfXfXfXfXfXfXfXfXfXfXfXfXfXfXfXfXfXfXfXfXfXfXfXfXfXfXfXfXfXfXfXfXfXfXfXfXfXfXfX",
"fXfXfXfXfXfXfXfXfXfXfXfXfXfXfXfXfXfXfXfXfXfXfXfXfXfXfXfXfXfXfXfXfXfXfXfXfXfXfXfXfXfXfXfXfXfXfXfXfXfXfXfX",
"fXfXfXfXfXfXfXfXfXfXfXfXfXfXfXfXfXfXfXfXfXfXfXfXfXfXfXfXfXfXfXfXfXfXfXfXfXfXfXfXfXfXfXfXfXfXfXfXfXfXfXfX",
"fXfXfXfXfXfXfXfXfXfXfXfXfXfXfXfXfXfXfXfXfXfXfXfXfXfXfXfXfXfXfXfXfXfXfXfXfXfXfXfXfXfXfXfXfXfXfXfXfXfXfXfX",
"fXfXfXfXfXfXfXfXfXfXfXfXfXfXfXfXfXfXfXfXfXfXfXfXfXfXfXfXfXfXfXfXfXfXfXfXfXfXfXfXfXfXfXfXfXfXfXfXfXfXfXfX",
"fXfXfXfXfXfXfXfXfXfXfXfXfXfXfXfXfXfXfXfXfXfXfXfXfXfXfXfXfXfXfXfXfXfXfXfXfXfXfXfXfXfXfXfXfXfXfXfXfXfXfXfX",
"fXfXfXfXfXfXfXfXfXfXfXfXfXfXfXfXfXfXfXfXfXrX9X+XfXfXfXfXfXfXfXfXfXfXfX&.$.@.e.fXfXfXfXfXfXfXfXfXfXfXfXfX",
"fXfXfXfXfXfXfXfXfXfXfXfXfXfXfXfXfXfXfXfXyX9X@X}. XfXfXfXfXfXfXfXfXfXt.3.@._ ` _ fXfXfXfXfXfXfXfXfXfXfXfX",
"fXfXfXfXfXfXfXfXfXfXfXfXfXfXfXfXfXfXfXrX9X$X|.f d fXfXfXfXfXfXfXfXfX2.#.o.) / $ / fXfXfXfXfXfXfXfXfXfXfX",
"fXfXfXfXfXfXfXfXfXfXfXfXfXfXfXfXfXfXrX9X#X}.f f J.|.fXfXfXfXfXfXfXfX%.' ) / $ @ # : fXfXfXfXfXfXfXfXfXfX",
"fXfXfXfXfXfXfXfXfXfXfXfXfXfXfXfXfXfXfX8X@XXXf }.}.}.fXfXfXfXfXfXfXfXfXi p , - @ @ # : : fXfXfXfXfXfXfXfX",
"fXfXfXfXfXfXfXfXfXfXfXfXfXfXfXfXfXfXfXfX8X Xd -.+X=.; fXfXfXfXfXfXfXfXP.B.G.a r * & & - fXfXfXfXfXfXfXfX",
"fXfXfXfXfXfXfXfXfXfXfXfXfXfXfXfXfXfXfXfX1X|.-.-.p o X fXfXfXfXfXfXfXfX'./.W.D.C.x.3 % & fXfXfXfXfXfXfXfX",
"fXfXfXfXfXfXfXfXfXfXfXB fXfXfXfX4X3Xa.+.0.fXfXX.h g g g fXfXfXfXfX].'._./.~.Y.A.v.g.q = fXfXfXfXfXfXfXfX",
"fXfXfXfXfXfXfXfXfXfXV j j fXfX5X4X3Xp. .O.u.fXfXg z z v fXfXfXfXfX'._./.W.Y.A.v.g.g.V.fXfXfXfXfXfXfXfXfX",
"fXfXfXfXfXfXfXfXfXfXV h o N -X5X,X;Xy.` < t.d.i.L S B s I.(.(.Q.`._./.E.R.Z.v.h.j.V.fXfXfXfXfXfXfXfXfXfX",
"fXfXfXfXfXfXfXfXfX1.E c o  .<X<X;Xy.$.& % &.d.r.B n [ U.I.Q.W.W.^._.^.Y.b.l.h.V.fXfXfXfXfXfXfXfXfXfXfXfX",
"fXfXfXfXfXfXfXfX&X7.:.c ( &.>X>X;Xt.i   % r.p.&.; n } q.8.V.Y.Y.!.^.T.S.k.0 c.fXfXfXfXfXfXfXfXfXfXfXfXfX",
"fXfXfXfXfXfXfX&X&XdX6.V _ *.;X3X1X%Xp   > r.y.$.t N.L.w.w.F.Y.Y.E.!.T.Z.h.0 fXfXfXfXfXfXfXfXfXfXfXfXfXfX",
"fXfXfXfXfXfX<.*X&X2X6.T N , 9.OX{.K.u % O.y.e...G.F.N.H.P.W.W.Y.R.T.R.b.g.6 fXfXfXfXfXfXfXfXfXfXfXfXfXfX",
"fXfXfXfXfXfX~ 6.*X5.R W j & =.{.K.J.s , %.y.2...t U L m N.!.Y.R.S.S.S.v.0 7 fXfXfXfXfXfXfXfXfXfXfXfXfXfX",
"fXfXfXfXfXfXQ ~ ^ W L L U o , t.=X=X%Xi.i.4.#.N U P H K [ W.R.m.Z.Z.Z.k.0 q fXfXfXfXfXfXfXfXfXfXfXfXfXfX",
"fXfXfXfXfXfXfXQ I J L K D V N &.p.p.;X:Xa.4.] S I G Z H [ m.m.m.C.v.v.g.6 7 fXfXfXfXfXfXfXfXfXfXfXfXfXfX",
"fXfXfXfXfXfXfX>.Y J K F A S V _ @.o.) o.4.4.R L J Z z Z [ n.m.n.v.l.h.0 7 2 7 fXfXfXfXfXfXfXfXfXfXfXfXfX",
"fXfXfXfXfXfXfXfX| Y K A A z l M + + + $ o.#.! I H z g b N.n.Z.Z.b.l.l.j.5 1 7 fXfXfXfXfXfXfXfXfXfXfXfXfX",
"fXfXfXfXfXfXfXfXfX1.W L Z z l k . . ; _ #.3.! P G z h t L.[.[.).Q.D.C.k.8 5 5 fXfXfXfXfXfXfXfXfXfXfXfXfX",
"fXfXfXfXfXfXfXfXfXfX<.R W S l g X M #.3.y.7.Q P G z b fXfXfXfXfXfXQ.n.f.8 5 5 fXfXfXfXfXfXfXfXfXfXfXfXfX",
"fXfXfXfXfXfXfXfXfXfXfXfX,.| V x l C y.i.:Xs.Q P P A { fXfXfXfXfXfXn.z.f.8 4 5 fXfXfXfXfXfXfXfXfXfXfXfXfX",
"fXfXfXfXfXfXfXfXfXfXfXfXfXfX,.E V C s.:X:XfX~ I | &X1X9XfXfXfXfXV.k.f.9 8 4 6 fXfXfXfXfXfXfXfXfXfXfXfXfX",
"fXfXfXfXfXfXfXfXfXfXfXfXfXfXfX7.:.:.fXfXfXfXfX<.2XqXrXwXeX@X#XXXr 6 9 9 8 5 6 fXfXfXfXfXfXfXfXfXfXfXfXfX",
"fXfXfXfXfXfXfXfXfXfXfXfXfXfXfXfXfXfXfXfXfXfXfX2XqXaXpXaXeX1XOXXXp e 3 w g.6 3 = fXfXfXfXfXfXfXfXfXfXfXfX",
"fXfXfXfXfXfXfXfXfXfXfXfXfXfXfXfXfXfXfXfXfXfXfXrXrXpXpXuXwX8X@X$X=.p > ; e e & # - fXfXfXfXfXfXfXfXfXfXfX",
"fXfXfXfXfXfXfXfXfXfXfXfXfXfXfXfXfXfXfXfXfXfXfXfXaXpXuXsXyX7XOX.XfXfX . .( / $ # - fXfXfXfXfXfXfXfXfXfXfX",
"fXfXfXfXfXfXfXfXfXfXfXfXfXfXfXfXfXfXfXfXfXfXfXfXpXpXuXtX0X+X|.d fXfXfXfX#.` : : > fXfXfXfXfXfXfXfXfXfXfX",
"fXfXfXfXfXfXfXfXfXfXfXfXfXfXfXfXfXfXfXfXfXfXfXfXfXpXuXtX7XoX}. XfXfXfXfXfXfX ., fXfXfXfXfXfXfXfXfXfXfXfX",
"fXfXfXfXfXfXfXfXfXfXfXfXfXfXfXfXfXfXfXfXfXfXfXfXfXiXiXtX7X+X.XfXfXfXfXfXfXfXfXfXfXfXfXfXfXfXfXfXfXfXfXfX",
"fXfXfXfXfXfXfXfXfXfXfXfXfXfXfXfXfXfXfXfXfXfXfXfXfXfXfXtX7X#XfXfXfXfXfXfXfXfXfXfXfXfXfXfXfXfXfXfXfXfXfXfX",
"fXfXfXfXfXfXfXfXfXfXfXfXfXfXfXfXfXfXfXfXfXfXfXfXfXfXfXfXfXfXfXfXfXfXfXfXfXfXfXfXfXfXfXfXfXfXfXfXfXfXfXfX",
"fXfXfXfXfXfXfXfXfXfXfXfXfXfXfXfXfXfXfXfXfXfXfXfXfXfXfXfXfXfXfXfXfXfXfXfXfXfXfXfXfXfXfXfXfXfXfXfXfXfXfXfX",
"fXfXfXfXfXfXfXfXfXfXfXfXfXfXfXfXfXfXfXfXfXfXfXfXfXfXfXfXfXfXfXfXfXfXfXfXfXfXfXfXfXfXfXfXfXfXfXfXfXfXfXfX",
"fXfXfXfXfXfXfXfXfXfXfXfXfXfXfXfXfXfXfXfXfXfXfXfXfXfXfXfXfXfXfXfXfXfXfXfXfXfXfXfXfXfXfXfXfXfXfXfXfXfXfXfX",
"fXfXfXfXfXfXfXfXfXfXfXfXfXfXfXfXfXfXfXfXfXfXfXfXfXfXfXfXfXfXfXfXfXfXfXfXfXfXfXfXfXfXfXfXfXfXfXfXfXfXfXfX",
"fXfXfXfXfXfXfXfXfXfXfXfXfXfXfXfXfXfXfXfXfXfXfXfXfXfXfXfXfXfXfXfXfXfXfXfXfXfXfXfXfXfXfXfXfXfXfXfXfXfXfXfX",
"fXfXfXfXfXfXfXfXfXfXfXfXfXfXfXfXfXfXfXfXfXfXfXfXfXfXfXfXfXfXfXfXfXfXfXfXfXfXfXfXfXfXfXfXfXfXfXfXfXfXfXfX",
"fXfXfXfXfXfXfXfXfXfXfXfXfXfXfXfXfXfXfXfXfXfXfXfXfXfXfXfXfXfXfXfXfXfXfXfXfXfXfXfXfXfXfXfXfXfXfXfXfXfXfXfX",
"fXfXfXfXfXfXfXfXfXfXfXfXfXfXfXfXfXfXfXfXfXfXfXfXfXfXfXfXfXfXfXfXfXfXfXfXfXfXfXfXfXfXfXfXfXfXfXfXfXfXfXfX",
"fXfXfXfXfXfXfXfXfXfXfXfXfXfXfXfXfXfXfXfXfXfXfXfXfXfXfXfXfXfXfXfXfXfXfXfXfXfXfXfXfXfXfXfXfXfXfXfXfXfXfXfX"
};
