/* XPM */
static char *_720_83e7253f0d06003ab6d6132e2f03b9eb5f933e66ba349ad939e5babb123a4093[] = {
/* columns rows colors chars-per-pixel */
"45 45 183 2 ",
"   c #030101",
".  c #0B0502",
"X  c #090A0A",
"o  c #050409",
"O  c #100601",
"+  c #1B0000",
"@  c #150C02",
"#  c #190C03",
"$  c #1A0D0B",
"%  c #15070C",
"&  c #000010",
"*  c #151513",
"=  c #1E1913",
"-  c gray10",
";  c #240101",
":  c #210F02",
">  c #2C0A06",
",  c #310000",
"<  c #251302",
"1  c #2D1503",
"2  c #261B08",
"3  c #321C03",
"4  c #391B04",
"5  c #321703",
"6  c #251B12",
"7  c #282800",
"8  c #3A2606",
"9  c #342308",
"0  c #2C251B",
"q  c #31291E",
"w  c #372715",
"e  c #383503",
"r  c #1F0028",
"t  c #0A0736",
"y  c #1C0039",
"u  c #131432",
"i  c #290029",
"p  c #1D2222",
"a  c #322C20",
"s  c #3D3427",
"d  c #24243D",
"f  c #333535",
"g  c #393939",
"h  c #383635",
"j  c #272726",
"k  c #430202",
"l  c #490000",
"z  c #4E0D09",
"x  c #530000",
"c  c #5B0604",
"v  c #5E0806",
"b  c #421F04",
"n  c #620302",
"m  c #6A0101",
"M  c #630D09",
"N  c #7D0000",
"B  c #740000",
"V  c #7D1818",
"C  c #472105",
"Z  c #4C2405",
"A  c #4A2F07",
"S  c #472D06",
"D  c #4D3107",
"F  c #4E2619",
"G  c #74251B",
"H  c #48002D",
"J  c #480033",
"K  c #413728",
"L  c #403627",
"P  c #523526",
"I  c #6A3728",
"U  c #54540E",
"Y  c #6A690A",
"T  c #4F4F35",
"R  c #574935",
"E  c #55462E",
"W  c #63543C",
"Q  c #625035",
"!  c #040445",
"~  c #1C1C44",
"^  c #1E1E4D",
"/  c #000056",
"(  c #2C1759",
")  c #35354D",
"_  c #000066",
"`  c #00006D",
"'  c #170067",
"]  c #00007B",
"[  c #120074",
"{  c #222269",
"}  c gray27",
"|  c #5D5D45",
" . c #585858",
".. c #6B5A45",
"X. c #715F45",
"o. c #776449",
"O. c #7B674A",
"+. c #6B6969",
"@. c #7A7A79",
"#. c #767676",
"$. c #830000",
"%. c #8A0000",
"&. c #840008",
"*. c #920000",
"=. c #9A0101",
"-. c #9A0009",
";. c #990E0A",
":. c #8A1817",
">. c #A70000",
",. c #AB0000",
"<. c #BE0000",
"1. c #B60000",
"2. c #C30101",
"3. c #CB0000",
"4. c #D50000",
"5. c #DD0100",
"6. c #E60000",
"7. c #EC0000",
"8. c #F60000",
"9. c #FE0000",
"0. c #856B4E",
"q. c #826E50",
"w. c #8C7656",
"e. c #8F7A59",
"r. c #877253",
"t. c #927B59",
"y. c #866E6E",
"u. c #917B7B",
"i. c #818108",
"p. c #B2B239",
"a. c #FFFF14",
"s. c #99815E",
"d. c #80806F",
"f. c #9C8561",
"g. c #A38A64",
"h. c #AA9169",
"j. c #B3996F",
"k. c #B5976E",
"l. c #BA9D72",
"z. c #BFA175",
"x. c #C2A477",
"c. c #C6A97B",
"v. c #00008F",
"b. c #000085",
"n. c #111185",
"m. c #0000A4",
"M. c #0000AC",
"N. c #0000B3",
"B. c #0000B8",
"V. c #0000CE",
"C. c #0000D5",
"Z. c #0000DD",
"A. c #0101E4",
"S. c #0808E1",
"D. c #0000F6",
"F. c #0000F9",
"G. c #1515E5",
"H. c #848484",
"J. c #969796",
"K. c #9C9C9C",
"L. c #9898A2",
"P. c #A5A8A8",
"I. c #AAABAB",
"U. c #A5A5A5",
"Y. c gray73",
"T. c #D4B482",
"R. c #DCB986",
"E. c #DFBC88",
"W. c #E2BF8A",
"Q. c #E8C48E",
"!. c #ECC790",
"~. c #EDC891",
"^. c #F3CD95",
"/. c #F7D097",
"(. c #F9D298",
"). c #C2C2C2",
"_. c #CECECC",
"`. c #D3D4D4",
"'. c #DBDBD7",
"]. c #EAEAEA",
"[. c #FDFDFD",
"{. c #F1F1F1",
"}. c None",
/* pixels */
"}.}.}.}.}.}.}.}.}.}.}.}.}.}.}.}.}.}.}.}.}.}.}.}.}.}.}.}.}.}.}.}.}.}.}.}.}.}.}.}.}.}.}.}.}.",
"}.}.}.}.}.}.}.}.}.}.}.}.}.}.}.}.}.}.}.}.}.}.}.}.}.}.}.}.}.}.}.}.}.}.}.}.}.}.}.}.}.}.}.}.}.",
"}.}.}.}.}.}.}.}.}.}.}.}.}.}.}.}.}.}.}.}.}.}.}.}.}.}.}.}.}.}.}.}.}.}.}.}.}.}.}.}.}.}.}.}.}.",
"}.}.}.}.}.}.}.}.}.}.}.}.}.}.}.}.}.}.}.}.}.}.}.}.}.}.}.}.}.}.}.}.}.}.}.}.}.}.}.}.}.}.}.}.}.",
"}.}.}.}.}.}.}.}.}.}.}.}.}.}.}.}.}.}.}.}.}.}.}.}.}.}.}.}.}.}.}.}.}.}.}.}.}.}.}.}.}.}.}.}.}.",
"}.}.}.}.}.}.}.}.}.}.}.}.}.}.}.}.}.}.}.}.}.}.}.}.}.}.}.}.}.}.}.}.}.}.}.}.}.}.}.}.}.}.}.}.}.",
"}.}.}.}.}.}.}.}.}.}.}.g * }.}.  h }.}.}.}.}.}.}.}.}.}.}.}.}.}.}.}.}.}.}.}.}.}.}.}.}.}.}.}.",
"}.}.}.}.}.}.}.}.}.}.X U.g   . X I.h }.}.}.}.}.}.}.}.}.}.}.}.}.}.}.}.}.}.}.}.}.}.}.}.}.}.}.",
"}.}.}.}.}.}.}.}.; l k I.g + , X I.g }.}.}.}.}.}.}.}.}.}.}.}.}.}.}.}.}.}.}.}.}.}.}.}.}.}.}.",
"}.}.}.}.}.}.}.k <.6.M P.g + x X I.g }.}.}.}.}.}.}.}.}.}.}.}.}.}.}.}.}.}.}.}.}.}.}.}.}.}.}.",
"}.}.}.}.}.}.k 2.9.9.n I.+.> l f ).h }.}.}.}.}.}.}.}.}.}.}.}.}.}.}.}.}.}.}.}.}.}.}.}.}.}.}.",
"}.}.}.}.}.l 2.9.9.9.-.u.K.:.%.y.K.p }.}.}.}.}.}.}.}.}.}.}.}.}.}.}.}.}.}.}.}.}.}.}.}.}.}.}.",
"}.}.}.}.}.*.9.9.9.8.=.; . N *.B m m n }.}.}.}.}.}.}.}.}.}.}.}.}.}.}.}.}.}.}.}.}.}.}.}.}.}.",
"}.}.}.}.x 3.9.8.*.N N $.N N $.4.9.9.6.%.m }.}.}.}.}.}.}.}.}.}.}.}.}.}.}.}.}.}.}.}.}.}.}.}.",
"}.}.}.x 3.9.8.*.%.>.8.9.9.9.9.9.9.9.9.9.,.  }.}.}.}.}.}.}.}.}.}.}.}.}.}.}.}.}.}.}.}.}.}.}.",
"}.}.}.m 9.8.*.=.8.8.8.2.v v v v v v x x l }.}.}.}.}.}.}.}.}.}.}.}.}.}.}.}.}.}.}.}.}.}.}.}.",
"}.}.O B 8.*.=.8.5.M z I g.j.j.j.h.f.* }.}.}.}.}.}.}.}.}.}.}.}.}.}.}.}.}.}.}.}.}.}.}.}.}.}.",
"}.x 3.7.>.%.4.4.G j.c.e.O././.R...t.= }.}.}.}.}.}.}.}.}.}.}.}.}.}.}.}.}.}.}.}.}.}.}.}.}.}.",
", 5.8.4.<.n > > l.^.(.f.W /.T.X.q s q 0 }.}.}.}.}.}.}.}.}.}.}.}.}.}.}.}.}.}.}.}.}.}.}.}.}.",
", 1.;.P P w 8 7 f.!./.j.r./.s.h.Q.E.W.l.K }.}.}.}.}.}.}.}.}.}.}.}.}.}.}.}.}.}.}.}.}.}.}.}.",
"}.$ 0.c.z.W 3 S w T./.^.~./.~.~.^.^.^.^.f.  }.}.}.}.}.}.}.}.}.}.}.}.}.}.}.}.}.}.}.}.}.}.}.",
"}.K !.w.O.g.w 2 6 T.R.e.e.e.e.T.^.~.^.E.o.}.}.}.}.}.}.}.}.}.}.}.}.}.}.}.}.}.}.}.}.}.}.}.}.",
"}.L !.x.o.z.f.o.r.Q.j.@ < < 2 Q T.(.E.X.}.}.}.}.}.}.}.}.}.}.}.}.}.}.}.}.}.}.}.}.}.}.}.}.}.",
"}.0 e.^.z.x././././.j.2 D D D 8 E W R }.}.}.}.}.}.}.}.}.}.}.}.}.}.}.}.}.}.}.}.}.}.}.}.}.}.",
"}.}.0 E R R l.!.!.!.W.O.9 S A A 3   }.}.}.}.}.}.}.}.}.}.}.}.}.}.}.}.}.}.}.}.}.}.}.}.}.}.}.",
"}.}.}.}.}.}.a s s R T.T...% @ @ @ }.}.}.}.}.}.}.}.}.}.}.}.}.}.}.}.}.}.}.}.}.}.}.}.}.}.}.}.",
"}.}.}.}.}.}.+ % ] t 0 F ( _ & }.}.}.}.}.}.}.}.}.}.}.}.}.}.}.}.}.}.}.}.}.}.}.}.}.}.}.}.}.}.",
"}.}.}.}.}., ,.4.H b.i <.-.' ` }.}.}.}.}.}.}.}.}.}.}.}.}.}.}.}.}.}.}.}.}.}.}.}.}.}.}.}.}.}.",
"}.}.}.}.}.*.9.9.4.y M.J 4.-.' _ }.}.}.}.}.}.}.}.}.}.}.}.}.}.}.}.}.}.}.}.}.}.}.}.}.}.}.}.}.",
"}.}.}.}.  c ,.8.6.r A.m.l >.J B.] }.}.}.}.}.}.}.}.}.}.}.}.}.}.}.}.}.}.}.}.}.}.}.}.}.}.}.}.",
"}.}.}.}.f +.+.:.&.[ C.{ Y e v.F.S.T }.}.}.}.}.}.}.}.}.}.}.}.}.}.}.}.}.}.}.}.}.}.}.}.}.}.}.",
"}.}.}.} ).[.[.J.u Z.B.U a.i.v.F.G.p.7 }.}.}.}.}.}.}.}.}.}.}.}.}.}.}.}.}.}.}.}.}.}.}.}.}.}.",
"}.}.} Y.[.[.[.[.L.n.C.{ Y ) V.D.S.| d.}.}.}.}.}.}.}.}.}.}.}.}.}.}.}.}.}.}.}.}.}.}.}.}.}.}.",
"}.}. .Y.I.K.).[.'.~ A.Z.m.V.D.D.A.^ I.- }.}.}.}.}.}.}.}.}.}.}.}.}.}.}.}.}.}.}.}.}.}.}.}.}.",
"}.}. .K.H.@.P.u.g ! A.D.F.D.D.D.A.t g X }.}.}.}.}.}.}.}.}.}.}.}.}.}.}.}.}.}.}.}.}.}.}.}.}.",
"}.}. .`.].].{._.d B.D.D.D.D.D.D.V.~ @.* }.}.}.}.}.}.}.}.}.}.}.}.}.}.}.}.}.}.}.}.}.}.}.}.}.",
"}.}.}.#.`.`.`.).~ B.C.F.F.F.D.C./ }.j }.}.}.}.}.}.}.}.}.}.}.}.}.}.}.}.}.}.}.}.}.}.}.}.}.}.",
"}.}.}.}.* = 6 6 : % t N.B.B.B.! }.}.}.}.}.}.}.}.}.}.}.}.}.}.}.}.}.}.}.}.}.}.}.}.}.}.}.}.}.",
"}.}.}.}.  # 5 1 3 Z 4 o o $ $ # # }.}.}.}.}.}.}.}.}.}.}.}.}.}.}.}.}.}.}.}.}.}.}.}.}.}.}.}.",
"}.}.}.}.@ # : : < Z b : < 4 Z Z C O }.}.}.}.}.}.}.}.}.}.}.}.}.}.}.}.}.}.}.}.}.}.}.}.}.}.}.",
"}.}.}.}.1 Z Z Z Z Z Z Z 1 < Z Z C O }.}.}.}.}.}.}.}.}.}.}.}.}.}.}.}.}.}.}.}.}.}.}.}.}.}.}.",
"}.}.}.}.< Z Z Z Z Z Z Z 1 < Z Z C O }.}.}.}.}.}.}.}.}.}.}.}.}.}.}.}.}.}.}.}.}.}.}.}.}.}.}.",
"}.}.}.}.< Z Z Z Z Z Z Z 1 : Z Z < }.}.}.}.}.}.}.}.}.}.}.}.}.}.}.}.}.}.}.}.}.}.}.}.}.}.}.}.",
"}.}.}.}.. 5 C C C C Z 4 . . @ @ }.}.}.}.}.}.}.}.}.}.}.}.}.}.}.}.}.}.}.}.}.}.}.}.}.}.}.}.}.",
"}.}.}.}.  . O O O O O . }.}.}.}.}.}.}.}.}.}.}.}.}.}.}.}.}.}.}.}.}.}.}.}.}.}.}.}.}.}.}.}.}."
};
