/* XPM */
static char *_870_2674f44df98180a654ddabfb29f661f22e5d573c09f4bf05e698787349c91641[] = {
/* columns rows colors chars-per-pixel */
"45 45 219 2 ",
"   c #080503",
".  c #130B06",
"X  c #180B06",
"o  c #1A1308",
"O  c #190F17",
"+  c #151413",
"@  c #1B1B1A",
"#  c #1C1414",
"$  c #0F0C18",
"%  c #200B07",
"&  c #251306",
"*  c #2B1506",
"=  c #23130B",
"-  c #2B150A",
";  c #281C06",
":  c #321706",
">  c #311609",
",  c #34190A",
"<  c #381A09",
"1  c #361608",
"2  c #221A15",
"3  c #251F1B",
"4  c #271613",
"5  c #381F12",
"6  c #370B0B",
"7  c #392907",
"8  c #2D241E",
"9  c #25211B",
"0  c #392617",
"q  c #2C2102",
"w  c #181727",
"e  c #0D1030",
"r  c #301A2D",
"t  c #242322",
"y  c #2D2B2A",
"u  c #292725",
"i  c #322A24",
"p  c #3D2D25",
"a  c #342D2A",
"s  c #38332C",
"d  c #382B36",
"f  c #363433",
"g  c #3B3837",
"h  c #560F0F",
"j  c #560C10",
"k  c #6E0F14",
"l  c #423403",
"z  c #4B3B04",
"x  c #4A3608",
"c  c #533C0A",
"v  c #523806",
"b  c #422514",
"n  c #4B2712",
"m  c #4B2B1A",
"M  c #482A19",
"N  c #522E1A",
"B  c #5A2F16",
"V  c #463C19",
"C  c #5A3318",
"Z  c #41200F",
"A  c #64351A",
"S  c #6D3A1E",
"D  c #653616",
"F  c #733B1C",
"G  c #7D3F1D",
"H  c #753A08",
"J  c #521C3B",
"K  c #411C31",
"L  c #463528",
"P  c #583724",
"I  c #422A3C",
"U  c #423C37",
"Y  c #4B272D",
"T  c #6D3C21",
"R  c #673723",
"E  c #713E22",
"W  c #642936",
"Q  c #544204",
"!  c #5F4B03",
"~  c #5B4508",
"^  c #564317",
"/  c #674908",
"(  c #6B5403",
")  c #745B04",
"_  c #765505",
"`  c #6C4617",
"'  c #774B05",
"]  c #7B6104",
"[  c #44403E",
"{  c #48423F",
"}  c #744124",
"|  c #7A4528",
" . c #7E4239",
".. c #0E1447",
"X. c #1A2152",
"o. c #323758",
"O. c #041668",
"+. c #3A1846",
"@. c #4F1D49",
"#. c #442743",
"$. c #59284A",
"%. c #4A2357",
"&. c #4C3551",
"*. c #632848",
"=. c #772659",
"-. c #673253",
";. c #732F4B",
":. c #542566",
">. c #5C346E",
",. c #6A3072",
"<. c #4A4643",
"1. c #4D4946",
"2. c #4C4A49",
"3. c #474445",
"4. c #514E4D",
"5. c #534649",
"6. c #54514E",
"7. c #595655",
"8. c #5B5957",
"9. c #5E5C5B",
"0. c #585453",
"q. c #504153",
"w. c #615E5D",
"e. c #79425C",
"r. c #62605E",
"t. c #666362",
"y. c #696665",
"u. c #6C6966",
"i. c #6E6B69",
"p. c #726E6C",
"a. c #75716F",
"s. c #767372",
"d. c #797573",
"f. c #7E7B78",
"g. c #7D7977",
"h. c #861516",
"j. c #96131A",
"k. c #A5151C",
"l. c #B2171E",
"z. c #B91820",
"x. c #E51C27",
"c. c #83421F",
"v. c #8A4F1C",
"b. c #8C5510",
"n. c #8B6C04",
"m. c #866803",
"M. c #956303",
"N. c #976B03",
"B. c #947403",
"V. c #9B7A04",
"C. c #987405",
"Z. c #92740C",
"A. c #A46C03",
"S. c #A86E03",
"D. c #A87703",
"F. c #B97904",
"G. c #8A4721",
"H. c #8D4A25",
"J. c #844A2C",
"K. c #8B4D2D",
"L. c #834523",
"P. c #944B22",
"I. c #9A4E23",
"U. c #9E5024",
"Y. c #93532F",
"T. c #955432",
"R. c #9D5934",
"E. c #995633",
"W. c #8D4E32",
"Q. c #A35326",
"!. c #A95627",
"~. c #AB5728",
"^. c #AE5828",
"/. c #A35C36",
"(. c #AD6239",
"). c #A86136",
"_. c #B4663B",
"`. c #B7683C",
"'. c #B8683C",
"]. c #816D28",
"[. c #812D54",
"{. c #832A63",
"}. c #892C68",
"|. c #873364",
" X c #993072",
".X c #A7337E",
"XX c #A03A69",
"oX c #827D7B",
"OX c #A98505",
"+X c #B58F03",
"@X c #BC9403",
"#X c #CB8603",
"$X c #C49B03",
"%X c #CA9F04",
"&X c #D78D04",
"*X c #E19304",
"=X c #CDA204",
"-X c #DAAC03",
";X c #D5A804",
":X c #E6B504",
">X c #ECBA04",
",X c #E9B704",
"<X c #F1BE04",
"1X c #FBC604",
"2X c #FFCA04",
"3X c #F5C203",
"4X c #85817E",
"5X c #722E8A",
"6X c #76318E",
"7X c #B23785",
"8X c #953CB8",
"9X c #C93F96",
"0X c #D5429F",
"qX c #DE44A8",
"wX c #E345AB",
"eX c #EA48B0",
"rX c #8C8784",
"tX c #908C89",
"yX c None",
/* pixels */
"yXyXyXyXyXyXyXyXyXyXyXyXyXyXyXyXyXyXyXyXyXyXyXyXyXyXyXyXyXyXyXyXyXyXyXyXyXyXyXyXyXyXyXyXyX",
"yXyXyXyXyXyXyXyXyXyXyXyXyXyXyXyXyXyXyXyXyXyXyXyXyXyXyXyXyXyXyXyXyXyXyXyXyXyXyXyXyXyXyXyXyX",
"yXyXyXyXyXyXyXyXyXyXyXyXyXyXyXyXyXyXyXyXyXyXyXyXyXyXyXyXyXyXyXyXyXyXyXyXyXyXyXyXyXyXyXyXyX",
"yXyXyXyXyXyXyXyXyXyXyXyXyXyXyXyXyXyXyXyXyXyXyXyXyXyXyXyXyXyXyXyXyXyXyXyXyXyXyXyXyXyXyXyXyX",
"yXyXyXyXyXyXyXyXyXyXyXyXyXyXyXyXyXyXyXyXyXyXyXyXyXyXyXyXyXyXyXyXyXyXyXyXyXyXyXyXyXyXyXyXyX",
"yXyXyXyXyXyXyXyXyXyXyXyXyXyXyXyXyXyXyXyX  . = o - - X l Q ; . .   yXyXyXyXyXyXyXyXyXyXyXyX",
"yXyXyXyXyXyXyXyXyX@ u t + . - b n n 7 C.C.c L.P.P.I.} _ ,X$XC c.A ,   yXyXyXyXyXyXyXyXyXyX",
"yXyXyXyXyXyXyXy 7.s.y.4Xs.U m P.U.I.S n.2X@XD L.L.H.H.A OX2XV.F H.L.N X yXyXyXyXyXyXyXyXyX",
"yXyXyXyXyXyX1.u.s.tXy.oXs.y.w.M | R.R.` OX>Xn.} /././.T./ -X$XC E.E.H.N .   yXyXyXyXyXyXyX",
"yXyXyXyXyX3.oXrX9.[ i i u 3.g.1.L T M 0 9 ^ ^ 8 p L L p i V V i a a i i u t u y u + yXyXyX",
"yXyXyXyXa d.w.1.b F G.P.F - 3 1.6.t [ y 8.r.t.y.y.i.i.i.p.a.s.s.g.g.d.f.oXf.oXoXf.f yXyXyX",
"yXyXyXyX4.oX{ B Q.!.!.!.!.F o w <.p.7.@ # 2 2 2 # @ 9 3 3 3 3 9 9 9 9 9 3 3 3 3 9 + yXyXyX",
"yXyXyX+ w.2.n Q.!.!.!.I.B 5 g u.i.s & = = > : * e e : : > > > * > > : : 1 1 1 : X   yXyXyX",
"yXyXyXt oX<.D !.!.I.F 5 y 9.s.3.4 * - ..O.- < - ..w : < 4 e = < < < < < < < * X   yXyXyXyX",
"yXyXyXt 9.f S Q.G M u 5.p.0.w e 4 < 1 + $ : < >   = 1 1 O O.O < < < 1 1 : * X   yXyXyXyXyX",
"yXyXyXy d.g n B 0 U u.w.i & w O.O < < * ; = > - 7 o - * . = < < < < - 1 h 6 6 X yXyXyXyXyX",
"yXyXyXy t.U # s 9.t.a X o * & X X o & 7 ] ~ 7 Q V.( Q Q o ; * * = 7 % j j.k l.j.yXyXyXyXyX",
"yXyXyXy r.s 1.u.3.7 / M.S.' x X z ) l V.;X=X$X=X:X=X;XB./ M.c v M.*Xb.j.j.k j.h.% yXyXyXyX",
"yXyXyX+ y 8.0.^ M.#XD.A.' m.N.v ~ ,X@X<X,X$X;X;X,X$X,X) M.M.V.M.#X*XS.k.k.z.x.h.7 yXyXyXyX",
"yXyXyXt 9.g @ / A.F._ B._ ( m.S.M.C.OX=X-X+X;X$X-XZ.].0 A.( _ _ n.N.F.H h k.h.' #X' yXyXyX",
"yXyXyX@ @ 9.t.2.g L L c c _ C ,.b.M ..o.e.L q.o.o.X.d c n.B.D.#XD.M.#XF.Y r =.XXv.D yXyXyX",
"yXyXyXyX  g r.d.oXp.w.4.{ g #.8XI s w r :.>.e e $ 0 / / 7 / A.D.F.S.D.H.wX9X=.}..X{.@.yXyX",
"yXyXyXyX+ g 2 0 U 9.f.rXoXp.u %.6Xq.w.0.d 5X&.4.6.6.4.4.6.6.5.4.5.1.p *.7X X5.5.-.W  XyXyX",
"yXyXyXyXw t.P I.F m 8 g 9.s.f %.,.w.tX4X>.5X8.tXrXrXoXg.g.p.p.p.u.w.}.wX*.5.r.y.r.I =.yXyX",
"yXyXyXyX@ y.0 E P.!.I.G B 0 + r 6Xd L d ,.%.i <.3.3.4.6.9.9.r.t.y.r.*.|.5.d.g.g.w.|.=.yXyX",
"yXyXyXyX@ t.P T.} S c.U.!.P.3 >.:., A @.5X*.F F b q m.n.v Q ] ~ o K 7XJ 0 p t f 8 {.@.yXyX",
"yXyXyXyXyX9.P _._./.J.S F G L >.+.O $.5X$.G.~.!.c.l ,X:XC.D.2X@X: ;.wX[.P.D 8 8.=.0XJ yXyX",
"yXyXyXyXyX7.p W.(._.'._.E.A [ 4.5X:.8XI F c.L.v.c.; %X<XM.n.3X] n R [.;.L.D g 6.$.=.yXyXyX",
"yXyXyXyXyX6.L F S J./._.'.Y.<.9.&.Y  .J.K.J.J.J.| N l +X+XOX] ; B W wX.X=.J d -.0X=.yXyXyX",
"yXyXyXyXyX3.L Q.Q.c.S } /.| 1.4Xp.R `.`.`.`.'.`.'._.} 0 7 7 M T.(.W.;.=.eX.X7X.X=.J yXyXyX",
"yXyXyXyXyXy 8 S c.!.!.G.S 0 2.i.t.P R.R./././.(.(.(._./.T.R.(.`._._.). .|.W -.r yXyXyXyXyX",
"yXyXyXyXyXo = J.| S P.!.!.B 0.rXu.b E } F S S T S S T T T T T } E } } } b 4.u.u yXyXyXyXyX",
"yXyXyXyXyX] ] 7 W./.E F I.B w.i.w.C ^.!.!.Q.!.Q.Q.Q.Q.Q.U.U.I.I.I.I.I.I.N r.t.@ yXyXyXyXyX",
"yXyXyXyXyX( ,XOX7 } _.T.T 5 y.rXu.N I.I.I.U.I.Q.Q.!.Q.!.!.!.!.!.!.~.!.U.L d.3.yXyXyXyXyXyX",
"yXyXyXyXyXo B.1X;Xc P (.(.m t.y.r.b } } E T T T S E T S S F F E F F E D U i.g yXyXyXyXyXyX",
"yXyXyXyXyXyXyXn.3X,X! m /.m i.4Xr.P '.`._._._.(.(.(././././.R.R.R.E.R.R 0.r.@ yXyXyXyXyXyX",
"yXyXyXyXyXyXyXyX) 3X3X( M 8 t.i.8.N `.'._.`._._._._.`.`._.`._.`.`.`._.P 7.2.yXyXyXyXyXyXyX",
"yXyXyXyXyXyXyXyXyX! -X1X] o U 1.s 4 R | W.W.E.E././.)./.R.R.R.R.R.R.J.i r.y yXyXyXyXyXyXyX",
"yXyXyXyXyXyXyXyXyXyX7 @X-XQ B.D.Z.n.] ) ) _ ) _ ' ` ( ~ ^ c c c c c x l V o yXyXyXyXyXyXyX",
"yXyXyXyXyXyXyXyXyXyXyXq ] ! -X1X1X2X2X2X2X2X2X1X1X1X1X1X3X3X<X<X>X3X>X3X=X7 yXyXyXyXyXyXyX",
"yXyXyXyXyXyXyXyXyXyXyXyXyXo l z Q Q Q ! ( ( ) ] ] n.n.C.C.OXV.OXOXOX+X+XV.; yXyXyXyXyXyXyX",
"yXyXyXyXyXyXyXyXyXyXyXyXyXyXyXyXyXyXyXyXyXyXyXyXyXyXyXyXyXyXyXyXyXyXyXyXyXyXyXyXyXyXyXyXyX",
"yXyXyXyXyXyXyXyXyXyXyXyXyXyXyXyXyXyXyXyXyXyXyXyXyXyXyXyXyXyXyXyXyXyXyXyXyXyXyXyXyXyXyXyXyX",
"yXyXyXyXyXyXyXyXyXyXyXyXyXyXyXyXyXyXyXyXyXyXyXyXyXyXyXyXyXyXyXyXyXyXyXyXyXyXyXyXyXyXyXyXyX",
"yXyXyXyXyXyXyXyXyXyXyXyXyXyXyXyXyXyXyXyXyXyXyXyXyXyXyXyXyXyXyXyXyXyXyXyXyXyXyXyXyXyXyXyXyX"
};
