/* XPM */
static char *_780_afbfcc17b24a6a3dc0d96d694bd318cf08b20520a8356c1682375997e9e422e6[] = {
/* columns rows colors chars-per-pixel */
"45 45 126 2 ",
"   c #EBAA7A",
".  c #EBAA7B",
"X  c #EBAB7B",
"o  c #ECAB7B",
"O  c #EEAC7B",
"+  c #EDAB7B",
"@  c #EDAC7B",
"#  c #E49962",
"$  c #E59A62",
"%  c #D18F5F",
"&  c #AF7E5A",
"*  c #AD7D5A",
"=  c #C98B5E",
"-  c #E59962",
";  c #E19862",
":  c #BC855C",
">  c #AC7D5A",
",  c #D47026",
"<  c #D57027",
"1  c #8E4C1B",
"2  c #18100A",
"3  c #120D09",
"4  c #723E17",
"5  c #D26F26",
"6  c #D57026",
"7  c #C66824",
"8  c #442610",
"9  c #0F0B08",
"0  c #110C09",
"q  c #D26B1F",
"w  c #D46C20",
"e  c #874414",
"r  c #080401",
"t  c #010000",
"y  c #68350F",
"u  c #D16A1F",
"i  c #D26B20",
"p  c #D36B20",
"a  c #C4631D",
"s  c #371C08",
"d  c black",
"f  c #874515",
"g  c #010100",
"h  c #693610",
"j  c #D16B20",
"k  c #D36C20",
"l  c #C4641E",
"z  c #381C09",
"x  c #D56D20",
"c  c #884515",
"v  c #C5641E",
"b  c #CF6A1F",
"n  c #854414",
"m  c #683510",
"M  c #CE691F",
"N  c #D06A1F",
"B  c #CF691F",
"V  c #D06A20",
"C  c #C1621D",
"Z  c #5F310F",
"A  c #60310F",
"S  c #3D1F09",
"D  c #040200",
"F  c #2F1807",
"G  c #5F300E",
"H  c #592D0D",
"J  c #190D04",
"K  c #0B0602",
"L  c #050301",
"P  c #0C0602",
"I  c #914A16",
"U  c #924A16",
"Y  c #8F4916",
"T  c #42210A",
"R  c #64330F",
"E  c #934B16",
"W  c #D56C20",
"Q  c #D76E21",
"!  c #924B16",
"~  c #070401",
"^  c #5D2F0E",
"/  c #894615",
"(  c #060301",
")  c #090401",
"_  c #090501",
"`  c #020100",
"'  c #6A3610",
"]  c #43220A",
"[  c #341B08",
"{  c #693510",
"}  c #62320F",
"|  c #1C0E04",
" . c #864514",
".. c #C2631E",
"X. c #371C09",
"o. c #D66D21",
"O. c #C5651E",
"+. c #381D09",
"@. c #AC581A",
"#. c #AE591A",
"$. c #6E3811",
"%. c #070301",
"&. c #562C0D",
"*. c #AB571A",
"=. c #AD581A",
"-. c #A05218",
";. c #2D1707",
":. c #180D04",
">. c #100802",
",. c #190C04",
"<. c #170C03",
"1. c #41210A",
"2. c #40210A",
"3. c #1D0F04",
"4. c #030200",
"5. c #42220A",
"6. c #C7651E",
"7. c #C8661E",
"8. c #5A2E0E",
"9. c #0B0502",
"0. c #C9671F",
"q. c #C7661E",
"w. c #D66D20",
"e. c #C6651E",
"r. c #261406",
"t. c white",
/* pixels */
"                                                                                          ",
". . . . . . . . . . . . . . . . . . X o O O + X . . . . . . . . . . . . . . . . . X @ O O ",
"# # # # # # # # # # # # # # # # # # $ % & * = # - # # # # # # # # # # # # # # # - ; : > * ",
", , , , , , , , , , , , , , , , , , < 1 2 3 4 5 , , , , , , , , , , , , , , , , 6 7 8 9 0 ",
"q q q q q q q q q q q q q q q q q q w e r t y u i q q q q q q q q q q q q q q q p a s d d ",
"i i i i i i i i i i i i i i i i i i w f r g h j p i i i i i i i i i i i i i i i k l z d d ",
"p p p p p p p p p p p p p p p p p p x c r g h i k p p p p p p p p p p p p p p p w v z d d ",
"b b b b b b b b b b b b b b b b b b j n r g m M N b b b b b b b b b b b b b b B V C s d d ",
"Z Z Z Z Z Z Z Z Z Z Z Z Z Z Z Z Z Z A S D t F G Z Z Z Z Z Z Z Z Z Z Z Z Z Z Z Z A H J d d ",
"d d d d d d d d d t d d d d d d d d d d d d d d d d d d d d d d d d d t d d d d d d d d d ",
"K K K K K K K K L d d r P K K K K K K K P P K K K K K K K K K K P r d d L K K K K K P P P ",
"I I I I I I U Y T d r R E I I I I I I I I I I I I I I I I I I I E R r d T Y U I I I I I I ",
"W W W W W W x j A d P E Q W W W W W W W W W W W W W W W W W W W Q E P d A j x W W W W W W ",
"i i i i i i p b Z d K I W i i i i i i i i i i i i i i i i i i i W I K d Z b p i i i i i i ",
"i i i i i i p b Z d K I W i i i i i i i i i i i i i i i i i i i W I K d Z b p i i i i i i ",
"i i i i i i p b Z d K I W i i i i i i i i i i i i i i i i i i i W I K d Z b p i i i i i i ",
"i i i i i i p b Z d K I W i i i i i i i i i i i i i i i i i i i W I K d Z b p i i i i i i ",
"i i i i i i p b Z d K I W i i i i i i i i i i i i i i i i i i i W I K d Z b p i i i i i i ",
"w w w w w w x j A d P ! Q w w w w w w w w w w w w w w w w w w w Q ! P d A j x w w w w w w ",
"f f f f f f c n S d ~ ^ / f f f f f f f f f f f f f f f f f f f / ^ ~ d S n c f f f f f f ",
"r r r r r r r r D d d ( ) r r r r r r r _ _ r r r r r r r r r r ) ( d d D r r r r r ) _ _ ",
"g g g g g g g g ` ` ` ` g g g g g g ` t d d d g g g g g g g g g g ` ` ` ` g g g g g d d d ",
"h h h h h h h h h h h h h h h h h h ' ] D t [ { h h h h h h h h h h h h h h h h ' } | d d ",
"j j j j j j j j j j j j j j j j j j k  .r g { V i j j j j j j j j j j j j j j j i ..s d d ",
"p p p p p p p p p p p p p p p p p p W f r g h i k p p p p p p p p p p p p p p p w l z d d ",
"i i i i i i i i i i i i i i i i i i w f r g h j p i i i i i i i i i i i i i i i k l X.d d ",
"i i i i i i i i i i i i i i i i i i w f r g h j p i i i i i i i i i i i i i i i k l X.d d ",
"i i i i i i i i i i i i i i i i i i w f r g h j p i i i i i i i i i i i i i i i k l X.d d ",
"i i i i i i i i i i i i i i i i i i w f r g h j p i i i i i i i i i i i i i i i k l X.d d ",
"w w w w w w w w w w w w w w w w w w o.c r g ' k W w w w w w w w w w w w w w w w x O.+.d d ",
"@.@.@.@.@.@.@.@.@.@.@.@.@.@.@.@.@.@.#.$.%.g &.*.=.@.@.@.@.@.@.@.@.@.@.@.@.@.@.@.=.-.;.d d ",
":.:.:.:.:.:.:.:.:.:.:.:.:.:.:.:.:.:.J >.g d P ,.:.:.:.:.:.:.:.:.:.:.:.:.:.:.:.:.J <.( d d ",
"d d d d d d d d d d d d d d d d d d d d d d d d d d d d d d d d d d d d d d d d d d d d d ",
"1.1.1.1.1.1.1.2.3.d 4.;.5.1.1.1.1.1.1.1.1.1.1.1.1.1.1.1.1.1.1.1.5.;.4.d 3.2.1.1.1.1.1.1.1.",
"6.6.6.6.6.6.7.l 8.d 9./ 0.q.6.6.6.6.6.6.6.6.6.6.6.6.6.6.6.6.6.q.0./ 9.d 8.l 7.6.6.6.6.6.6.",
"k k k k k k w V A d K U w.k k k k k k k k k k k k k k k k k k k w.U K d A V w k k k k k k ",
"i i i i i i p b Z d K I W i i i i i i i i i i i i i i i i i i i W I K d Z b p i i i i i i ",
"i i i i i i p b Z d K I W i i i i i i i i i i i i i i i i i i i W I K d Z b p i i i i i i ",
"i i i i i i p b Z d K I W i i i i i i i i i i i i i i i i i i i W I K d Z b p i i i i i i ",
"i i i i i i p B Z d K I W i i i i i i i i i i i i i i i i i i i W I K d Z B p i i i i i i ",
"k k k k k k w V A d K U w.k k k k k k k k k k k k k k k k k k k w.U K d A V w k k k k k k ",
"l l l l l l v C H d 9.f e.l l l l l l l l l l l l l l l l l l l e.f 9.d H C v l l l l l l ",
"X.X.X.X.X.X.z s J d 4.r.+.z X.X.X.X.X.X.X.X.X.X.X.X.X.X.X.X.X.z +.r.4.d J s z X.X.X.X.X.X.",
"d d d d d d d d d d d d d d d d d d d d d d d d d d d d d d d d d d d d d d d d d d d d d ",
"d d d d d d d d d d d d d d d d d d d d d d d d d d d d d d d d d d d d d d d d d d d d d "
};
